%TF.GenerationSoftware,KiCad,Pcbnew,(6.0.10-0)*%
%TF.CreationDate,2023-02-24T11:05:11+09:00*%
%TF.ProjectId,CH224K_PD_Decoy,43483232-344b-45f5-9044-5f4465636f79,0.5*%
%TF.SameCoordinates,Original*%
%TF.FileFunction,Drillmap*%
%TF.FilePolarity,Positive*%
%FSLAX45Y45*%
G04 Gerber Fmt 4.5, Leading zero omitted, Abs format (unit mm)*
G04 Created by KiCad (PCBNEW (6.0.10-0)) date 2023-02-24 11:05:11*
%MOMM*%
%LPD*%
G01*
G04 APERTURE LIST*
%ADD10C,0.100000*%
%ADD11C,0.200000*%
%ADD12C,0.065000*%
%ADD13C,0.220000*%
G04 APERTURE END LIST*
D10*
X12954000Y-7239000D02*
X12954000Y-9525000D01*
X12827000Y-9652000D02*
X7366000Y-9652000D01*
X7239000Y-9525000D02*
X7239000Y-7235803D01*
X12827000Y-9652000D02*
G75*
G03*
X12954000Y-9525000I0J127000D01*
G01*
X7239000Y-9525000D02*
G75*
G03*
X7366000Y-9652000I127000J0D01*
G01*
X12954000Y-7239000D02*
G75*
G03*
X12827000Y-7112000I-127000J0D01*
G01*
X7366000Y-7108803D02*
X12827000Y-7112000D01*
X7366000Y-7108800D02*
G75*
G03*
X7239000Y-7235803I0J-127000D01*
G01*
D11*
D12*
X7872900Y-8060500D02*
X7937900Y-8125500D01*
X7937900Y-8060500D02*
X7872900Y-8125500D01*
X7872900Y-8638500D02*
X7937900Y-8703500D01*
X7937900Y-8638500D02*
X7872900Y-8703500D01*
D13*
X7603000Y-7366000D02*
G75*
G03*
X7603000Y-7366000I-110000J0D01*
G01*
X7603000Y-9398000D02*
G75*
G03*
X7603000Y-9398000I-110000J0D01*
G01*
X12810000Y-7366000D02*
G75*
G03*
X12810000Y-7366000I-110000J0D01*
G01*
X12810000Y-9398000D02*
G75*
G03*
X12810000Y-9398000I-110000J0D01*
G01*
D11*
X7491619Y-9967476D02*
X7491619Y-9767476D01*
X7539238Y-9767476D01*
X7567809Y-9777000D01*
X7586857Y-9796048D01*
X7596381Y-9815095D01*
X7605905Y-9853190D01*
X7605905Y-9881762D01*
X7596381Y-9919857D01*
X7586857Y-9938905D01*
X7567809Y-9957952D01*
X7539238Y-9967476D01*
X7491619Y-9967476D01*
X7691619Y-9967476D02*
X7691619Y-9834143D01*
X7691619Y-9872238D02*
X7701143Y-9853190D01*
X7710667Y-9843667D01*
X7729714Y-9834143D01*
X7748762Y-9834143D01*
X7815428Y-9967476D02*
X7815428Y-9834143D01*
X7815428Y-9767476D02*
X7805905Y-9777000D01*
X7815428Y-9786524D01*
X7824952Y-9777000D01*
X7815428Y-9767476D01*
X7815428Y-9786524D01*
X7939238Y-9967476D02*
X7920190Y-9957952D01*
X7910667Y-9938905D01*
X7910667Y-9767476D01*
X8044000Y-9967476D02*
X8024952Y-9957952D01*
X8015428Y-9938905D01*
X8015428Y-9767476D01*
X8272571Y-9967476D02*
X8272571Y-9767476D01*
X8339238Y-9910333D01*
X8405905Y-9767476D01*
X8405905Y-9967476D01*
X8586857Y-9967476D02*
X8586857Y-9862714D01*
X8577333Y-9843667D01*
X8558286Y-9834143D01*
X8520190Y-9834143D01*
X8501143Y-9843667D01*
X8586857Y-9957952D02*
X8567810Y-9967476D01*
X8520190Y-9967476D01*
X8501143Y-9957952D01*
X8491619Y-9938905D01*
X8491619Y-9919857D01*
X8501143Y-9900810D01*
X8520190Y-9891286D01*
X8567810Y-9891286D01*
X8586857Y-9881762D01*
X8682095Y-9834143D02*
X8682095Y-10034143D01*
X8682095Y-9843667D02*
X8701143Y-9834143D01*
X8739238Y-9834143D01*
X8758286Y-9843667D01*
X8767810Y-9853190D01*
X8777333Y-9872238D01*
X8777333Y-9929381D01*
X8767810Y-9948429D01*
X8758286Y-9957952D01*
X8739238Y-9967476D01*
X8701143Y-9967476D01*
X8682095Y-9957952D01*
X8863048Y-9948429D02*
X8872571Y-9957952D01*
X8863048Y-9967476D01*
X8853524Y-9957952D01*
X8863048Y-9948429D01*
X8863048Y-9967476D01*
X8863048Y-9843667D02*
X8872571Y-9853190D01*
X8863048Y-9862714D01*
X8853524Y-9853190D01*
X8863048Y-9843667D01*
X8863048Y-9862714D01*
D12*
X7169000Y-10264500D02*
X7234000Y-10329500D01*
X7234000Y-10264500D02*
X7169000Y-10329500D01*
D11*
X7529714Y-10187476D02*
X7548762Y-10187476D01*
X7567809Y-10197000D01*
X7577333Y-10206524D01*
X7586857Y-10225571D01*
X7596381Y-10263667D01*
X7596381Y-10311286D01*
X7586857Y-10349381D01*
X7577333Y-10368429D01*
X7567809Y-10377952D01*
X7548762Y-10387476D01*
X7529714Y-10387476D01*
X7510667Y-10377952D01*
X7501143Y-10368429D01*
X7491619Y-10349381D01*
X7482095Y-10311286D01*
X7482095Y-10263667D01*
X7491619Y-10225571D01*
X7501143Y-10206524D01*
X7510667Y-10197000D01*
X7529714Y-10187476D01*
X7682095Y-10368429D02*
X7691619Y-10377952D01*
X7682095Y-10387476D01*
X7672571Y-10377952D01*
X7682095Y-10368429D01*
X7682095Y-10387476D01*
X7863048Y-10187476D02*
X7824952Y-10187476D01*
X7805905Y-10197000D01*
X7796381Y-10206524D01*
X7777333Y-10235095D01*
X7767809Y-10273190D01*
X7767809Y-10349381D01*
X7777333Y-10368429D01*
X7786857Y-10377952D01*
X7805905Y-10387476D01*
X7844000Y-10387476D01*
X7863048Y-10377952D01*
X7872571Y-10368429D01*
X7882095Y-10349381D01*
X7882095Y-10301762D01*
X7872571Y-10282714D01*
X7863048Y-10273190D01*
X7844000Y-10263667D01*
X7805905Y-10263667D01*
X7786857Y-10273190D01*
X7777333Y-10282714D01*
X7767809Y-10301762D01*
X8063048Y-10187476D02*
X7967809Y-10187476D01*
X7958286Y-10282714D01*
X7967809Y-10273190D01*
X7986857Y-10263667D01*
X8034476Y-10263667D01*
X8053524Y-10273190D01*
X8063048Y-10282714D01*
X8072571Y-10301762D01*
X8072571Y-10349381D01*
X8063048Y-10368429D01*
X8053524Y-10377952D01*
X8034476Y-10387476D01*
X7986857Y-10387476D01*
X7967809Y-10377952D01*
X7958286Y-10368429D01*
X8196381Y-10187476D02*
X8215428Y-10187476D01*
X8234476Y-10197000D01*
X8244000Y-10206524D01*
X8253524Y-10225571D01*
X8263048Y-10263667D01*
X8263048Y-10311286D01*
X8253524Y-10349381D01*
X8244000Y-10368429D01*
X8234476Y-10377952D01*
X8215428Y-10387476D01*
X8196381Y-10387476D01*
X8177333Y-10377952D01*
X8167809Y-10368429D01*
X8158286Y-10349381D01*
X8148762Y-10311286D01*
X8148762Y-10263667D01*
X8158286Y-10225571D01*
X8167809Y-10206524D01*
X8177333Y-10197000D01*
X8196381Y-10187476D01*
X8348762Y-10387476D02*
X8348762Y-10254143D01*
X8348762Y-10273190D02*
X8358286Y-10263667D01*
X8377333Y-10254143D01*
X8405905Y-10254143D01*
X8424952Y-10263667D01*
X8434476Y-10282714D01*
X8434476Y-10387476D01*
X8434476Y-10282714D02*
X8444000Y-10263667D01*
X8463048Y-10254143D01*
X8491619Y-10254143D01*
X8510667Y-10263667D01*
X8520190Y-10282714D01*
X8520190Y-10387476D01*
X8615429Y-10387476D02*
X8615429Y-10254143D01*
X8615429Y-10273190D02*
X8624952Y-10263667D01*
X8644000Y-10254143D01*
X8672571Y-10254143D01*
X8691619Y-10263667D01*
X8701143Y-10282714D01*
X8701143Y-10387476D01*
X8701143Y-10282714D02*
X8710667Y-10263667D01*
X8729714Y-10254143D01*
X8758286Y-10254143D01*
X8777333Y-10263667D01*
X8786857Y-10282714D01*
X8786857Y-10387476D01*
X9177333Y-10177952D02*
X9005905Y-10435095D01*
X9434476Y-10187476D02*
X9453524Y-10187476D01*
X9472571Y-10197000D01*
X9482095Y-10206524D01*
X9491619Y-10225571D01*
X9501143Y-10263667D01*
X9501143Y-10311286D01*
X9491619Y-10349381D01*
X9482095Y-10368429D01*
X9472571Y-10377952D01*
X9453524Y-10387476D01*
X9434476Y-10387476D01*
X9415429Y-10377952D01*
X9405905Y-10368429D01*
X9396381Y-10349381D01*
X9386857Y-10311286D01*
X9386857Y-10263667D01*
X9396381Y-10225571D01*
X9405905Y-10206524D01*
X9415429Y-10197000D01*
X9434476Y-10187476D01*
X9586857Y-10368429D02*
X9596381Y-10377952D01*
X9586857Y-10387476D01*
X9577333Y-10377952D01*
X9586857Y-10368429D01*
X9586857Y-10387476D01*
X9720190Y-10187476D02*
X9739238Y-10187476D01*
X9758286Y-10197000D01*
X9767810Y-10206524D01*
X9777333Y-10225571D01*
X9786857Y-10263667D01*
X9786857Y-10311286D01*
X9777333Y-10349381D01*
X9767810Y-10368429D01*
X9758286Y-10377952D01*
X9739238Y-10387476D01*
X9720190Y-10387476D01*
X9701143Y-10377952D01*
X9691619Y-10368429D01*
X9682095Y-10349381D01*
X9672571Y-10311286D01*
X9672571Y-10263667D01*
X9682095Y-10225571D01*
X9691619Y-10206524D01*
X9701143Y-10197000D01*
X9720190Y-10187476D01*
X9863048Y-10206524D02*
X9872571Y-10197000D01*
X9891619Y-10187476D01*
X9939238Y-10187476D01*
X9958286Y-10197000D01*
X9967810Y-10206524D01*
X9977333Y-10225571D01*
X9977333Y-10244619D01*
X9967810Y-10273190D01*
X9853524Y-10387476D01*
X9977333Y-10387476D01*
X10158286Y-10187476D02*
X10063048Y-10187476D01*
X10053524Y-10282714D01*
X10063048Y-10273190D01*
X10082095Y-10263667D01*
X10129714Y-10263667D01*
X10148762Y-10273190D01*
X10158286Y-10282714D01*
X10167810Y-10301762D01*
X10167810Y-10349381D01*
X10158286Y-10368429D01*
X10148762Y-10377952D01*
X10129714Y-10387476D01*
X10082095Y-10387476D01*
X10063048Y-10377952D01*
X10053524Y-10368429D01*
X10339238Y-10187476D02*
X10301143Y-10187476D01*
X10282095Y-10197000D01*
X10272571Y-10206524D01*
X10253524Y-10235095D01*
X10244000Y-10273190D01*
X10244000Y-10349381D01*
X10253524Y-10368429D01*
X10263048Y-10377952D01*
X10282095Y-10387476D01*
X10320190Y-10387476D01*
X10339238Y-10377952D01*
X10348762Y-10368429D01*
X10358286Y-10349381D01*
X10358286Y-10301762D01*
X10348762Y-10282714D01*
X10339238Y-10273190D01*
X10320190Y-10263667D01*
X10282095Y-10263667D01*
X10263048Y-10273190D01*
X10253524Y-10282714D01*
X10244000Y-10301762D01*
X10434476Y-10187476D02*
X10434476Y-10225571D01*
X10510667Y-10187476D02*
X10510667Y-10225571D01*
X10805905Y-10463667D02*
X10796381Y-10454143D01*
X10777333Y-10425571D01*
X10767810Y-10406524D01*
X10758286Y-10377952D01*
X10748762Y-10330333D01*
X10748762Y-10292238D01*
X10758286Y-10244619D01*
X10767810Y-10216048D01*
X10777333Y-10197000D01*
X10796381Y-10168429D01*
X10805905Y-10158905D01*
X10872571Y-10206524D02*
X10882095Y-10197000D01*
X10901143Y-10187476D01*
X10948762Y-10187476D01*
X10967810Y-10197000D01*
X10977333Y-10206524D01*
X10986857Y-10225571D01*
X10986857Y-10244619D01*
X10977333Y-10273190D01*
X10863048Y-10387476D01*
X10986857Y-10387476D01*
X11224952Y-10387476D02*
X11224952Y-10187476D01*
X11310667Y-10387476D02*
X11310667Y-10282714D01*
X11301143Y-10263667D01*
X11282095Y-10254143D01*
X11253524Y-10254143D01*
X11234476Y-10263667D01*
X11224952Y-10273190D01*
X11434476Y-10387476D02*
X11415428Y-10377952D01*
X11405905Y-10368429D01*
X11396381Y-10349381D01*
X11396381Y-10292238D01*
X11405905Y-10273190D01*
X11415428Y-10263667D01*
X11434476Y-10254143D01*
X11463048Y-10254143D01*
X11482095Y-10263667D01*
X11491619Y-10273190D01*
X11501143Y-10292238D01*
X11501143Y-10349381D01*
X11491619Y-10368429D01*
X11482095Y-10377952D01*
X11463048Y-10387476D01*
X11434476Y-10387476D01*
X11615428Y-10387476D02*
X11596381Y-10377952D01*
X11586857Y-10358905D01*
X11586857Y-10187476D01*
X11767809Y-10377952D02*
X11748762Y-10387476D01*
X11710667Y-10387476D01*
X11691619Y-10377952D01*
X11682095Y-10358905D01*
X11682095Y-10282714D01*
X11691619Y-10263667D01*
X11710667Y-10254143D01*
X11748762Y-10254143D01*
X11767809Y-10263667D01*
X11777333Y-10282714D01*
X11777333Y-10301762D01*
X11682095Y-10320810D01*
X11853524Y-10377952D02*
X11872571Y-10387476D01*
X11910667Y-10387476D01*
X11929714Y-10377952D01*
X11939238Y-10358905D01*
X11939238Y-10349381D01*
X11929714Y-10330333D01*
X11910667Y-10320810D01*
X11882095Y-10320810D01*
X11863048Y-10311286D01*
X11853524Y-10292238D01*
X11853524Y-10282714D01*
X11863048Y-10263667D01*
X11882095Y-10254143D01*
X11910667Y-10254143D01*
X11929714Y-10263667D01*
X12005905Y-10463667D02*
X12015428Y-10454143D01*
X12034476Y-10425571D01*
X12044000Y-10406524D01*
X12053524Y-10377952D01*
X12063048Y-10330333D01*
X12063048Y-10292238D01*
X12053524Y-10244619D01*
X12044000Y-10216048D01*
X12034476Y-10197000D01*
X12015428Y-10168429D01*
X12005905Y-10158905D01*
X12367809Y-10463667D02*
X12358286Y-10454143D01*
X12339238Y-10425571D01*
X12329714Y-10406524D01*
X12320190Y-10377952D01*
X12310667Y-10330333D01*
X12310667Y-10292238D01*
X12320190Y-10244619D01*
X12329714Y-10216048D01*
X12339238Y-10197000D01*
X12358286Y-10168429D01*
X12367809Y-10158905D01*
X12444000Y-10254143D02*
X12444000Y-10387476D01*
X12444000Y-10273190D02*
X12453524Y-10263667D01*
X12472571Y-10254143D01*
X12501143Y-10254143D01*
X12520190Y-10263667D01*
X12529714Y-10282714D01*
X12529714Y-10387476D01*
X12653524Y-10387476D02*
X12634476Y-10377952D01*
X12624952Y-10368429D01*
X12615428Y-10349381D01*
X12615428Y-10292238D01*
X12624952Y-10273190D01*
X12634476Y-10263667D01*
X12653524Y-10254143D01*
X12682095Y-10254143D01*
X12701143Y-10263667D01*
X12710667Y-10273190D01*
X12720190Y-10292238D01*
X12720190Y-10349381D01*
X12710667Y-10368429D01*
X12701143Y-10377952D01*
X12682095Y-10387476D01*
X12653524Y-10387476D01*
X12777333Y-10254143D02*
X12853524Y-10254143D01*
X12805905Y-10187476D02*
X12805905Y-10358905D01*
X12815428Y-10377952D01*
X12834476Y-10387476D01*
X12853524Y-10387476D01*
X13072571Y-10254143D02*
X13072571Y-10454143D01*
X13072571Y-10263667D02*
X13091619Y-10254143D01*
X13129714Y-10254143D01*
X13148762Y-10263667D01*
X13158286Y-10273190D01*
X13167809Y-10292238D01*
X13167809Y-10349381D01*
X13158286Y-10368429D01*
X13148762Y-10377952D01*
X13129714Y-10387476D01*
X13091619Y-10387476D01*
X13072571Y-10377952D01*
X13282095Y-10387476D02*
X13263048Y-10377952D01*
X13253524Y-10358905D01*
X13253524Y-10187476D01*
X13444000Y-10387476D02*
X13444000Y-10282714D01*
X13434476Y-10263667D01*
X13415428Y-10254143D01*
X13377333Y-10254143D01*
X13358286Y-10263667D01*
X13444000Y-10377952D02*
X13424952Y-10387476D01*
X13377333Y-10387476D01*
X13358286Y-10377952D01*
X13348762Y-10358905D01*
X13348762Y-10339857D01*
X13358286Y-10320810D01*
X13377333Y-10311286D01*
X13424952Y-10311286D01*
X13444000Y-10301762D01*
X13510667Y-10254143D02*
X13586857Y-10254143D01*
X13539238Y-10187476D02*
X13539238Y-10358905D01*
X13548762Y-10377952D01*
X13567809Y-10387476D01*
X13586857Y-10387476D01*
X13729714Y-10377952D02*
X13710667Y-10387476D01*
X13672571Y-10387476D01*
X13653524Y-10377952D01*
X13644000Y-10358905D01*
X13644000Y-10282714D01*
X13653524Y-10263667D01*
X13672571Y-10254143D01*
X13710667Y-10254143D01*
X13729714Y-10263667D01*
X13739238Y-10282714D01*
X13739238Y-10301762D01*
X13644000Y-10320810D01*
X13910667Y-10387476D02*
X13910667Y-10187476D01*
X13910667Y-10377952D02*
X13891619Y-10387476D01*
X13853524Y-10387476D01*
X13834476Y-10377952D01*
X13824952Y-10368429D01*
X13815428Y-10349381D01*
X13815428Y-10292238D01*
X13824952Y-10273190D01*
X13834476Y-10263667D01*
X13853524Y-10254143D01*
X13891619Y-10254143D01*
X13910667Y-10263667D01*
X13986857Y-10463667D02*
X13996381Y-10454143D01*
X14015428Y-10425571D01*
X14024952Y-10406524D01*
X14034476Y-10377952D01*
X14044000Y-10330333D01*
X14044000Y-10292238D01*
X14034476Y-10244619D01*
X14024952Y-10216048D01*
X14015428Y-10197000D01*
X13996381Y-10168429D01*
X13986857Y-10158905D01*
X7234000Y-10561000D02*
G75*
G03*
X7234000Y-10561000I-100000J0D01*
G01*
X7482095Y-10470524D02*
X7491619Y-10461000D01*
X7510667Y-10451476D01*
X7558286Y-10451476D01*
X7577333Y-10461000D01*
X7586857Y-10470524D01*
X7596381Y-10489571D01*
X7596381Y-10508619D01*
X7586857Y-10537190D01*
X7472571Y-10651476D01*
X7596381Y-10651476D01*
X7682095Y-10632429D02*
X7691619Y-10641952D01*
X7682095Y-10651476D01*
X7672571Y-10641952D01*
X7682095Y-10632429D01*
X7682095Y-10651476D01*
X7767809Y-10470524D02*
X7777333Y-10461000D01*
X7796381Y-10451476D01*
X7844000Y-10451476D01*
X7863048Y-10461000D01*
X7872571Y-10470524D01*
X7882095Y-10489571D01*
X7882095Y-10508619D01*
X7872571Y-10537190D01*
X7758286Y-10651476D01*
X7882095Y-10651476D01*
X8005905Y-10451476D02*
X8024952Y-10451476D01*
X8044000Y-10461000D01*
X8053524Y-10470524D01*
X8063048Y-10489571D01*
X8072571Y-10527667D01*
X8072571Y-10575286D01*
X8063048Y-10613381D01*
X8053524Y-10632429D01*
X8044000Y-10641952D01*
X8024952Y-10651476D01*
X8005905Y-10651476D01*
X7986857Y-10641952D01*
X7977333Y-10632429D01*
X7967809Y-10613381D01*
X7958286Y-10575286D01*
X7958286Y-10527667D01*
X7967809Y-10489571D01*
X7977333Y-10470524D01*
X7986857Y-10461000D01*
X8005905Y-10451476D01*
X8196381Y-10451476D02*
X8215428Y-10451476D01*
X8234476Y-10461000D01*
X8244000Y-10470524D01*
X8253524Y-10489571D01*
X8263048Y-10527667D01*
X8263048Y-10575286D01*
X8253524Y-10613381D01*
X8244000Y-10632429D01*
X8234476Y-10641952D01*
X8215428Y-10651476D01*
X8196381Y-10651476D01*
X8177333Y-10641952D01*
X8167809Y-10632429D01*
X8158286Y-10613381D01*
X8148762Y-10575286D01*
X8148762Y-10527667D01*
X8158286Y-10489571D01*
X8167809Y-10470524D01*
X8177333Y-10461000D01*
X8196381Y-10451476D01*
X8348762Y-10651476D02*
X8348762Y-10518143D01*
X8348762Y-10537190D02*
X8358286Y-10527667D01*
X8377333Y-10518143D01*
X8405905Y-10518143D01*
X8424952Y-10527667D01*
X8434476Y-10546714D01*
X8434476Y-10651476D01*
X8434476Y-10546714D02*
X8444000Y-10527667D01*
X8463048Y-10518143D01*
X8491619Y-10518143D01*
X8510667Y-10527667D01*
X8520190Y-10546714D01*
X8520190Y-10651476D01*
X8615429Y-10651476D02*
X8615429Y-10518143D01*
X8615429Y-10537190D02*
X8624952Y-10527667D01*
X8644000Y-10518143D01*
X8672571Y-10518143D01*
X8691619Y-10527667D01*
X8701143Y-10546714D01*
X8701143Y-10651476D01*
X8701143Y-10546714D02*
X8710667Y-10527667D01*
X8729714Y-10518143D01*
X8758286Y-10518143D01*
X8777333Y-10527667D01*
X8786857Y-10546714D01*
X8786857Y-10651476D01*
X9177333Y-10441952D02*
X9005905Y-10699095D01*
X9434476Y-10451476D02*
X9453524Y-10451476D01*
X9472571Y-10461000D01*
X9482095Y-10470524D01*
X9491619Y-10489571D01*
X9501143Y-10527667D01*
X9501143Y-10575286D01*
X9491619Y-10613381D01*
X9482095Y-10632429D01*
X9472571Y-10641952D01*
X9453524Y-10651476D01*
X9434476Y-10651476D01*
X9415429Y-10641952D01*
X9405905Y-10632429D01*
X9396381Y-10613381D01*
X9386857Y-10575286D01*
X9386857Y-10527667D01*
X9396381Y-10489571D01*
X9405905Y-10470524D01*
X9415429Y-10461000D01*
X9434476Y-10451476D01*
X9586857Y-10632429D02*
X9596381Y-10641952D01*
X9586857Y-10651476D01*
X9577333Y-10641952D01*
X9586857Y-10632429D01*
X9586857Y-10651476D01*
X9720190Y-10451476D02*
X9739238Y-10451476D01*
X9758286Y-10461000D01*
X9767810Y-10470524D01*
X9777333Y-10489571D01*
X9786857Y-10527667D01*
X9786857Y-10575286D01*
X9777333Y-10613381D01*
X9767810Y-10632429D01*
X9758286Y-10641952D01*
X9739238Y-10651476D01*
X9720190Y-10651476D01*
X9701143Y-10641952D01*
X9691619Y-10632429D01*
X9682095Y-10613381D01*
X9672571Y-10575286D01*
X9672571Y-10527667D01*
X9682095Y-10489571D01*
X9691619Y-10470524D01*
X9701143Y-10461000D01*
X9720190Y-10451476D01*
X9901143Y-10537190D02*
X9882095Y-10527667D01*
X9872571Y-10518143D01*
X9863048Y-10499095D01*
X9863048Y-10489571D01*
X9872571Y-10470524D01*
X9882095Y-10461000D01*
X9901143Y-10451476D01*
X9939238Y-10451476D01*
X9958286Y-10461000D01*
X9967810Y-10470524D01*
X9977333Y-10489571D01*
X9977333Y-10499095D01*
X9967810Y-10518143D01*
X9958286Y-10527667D01*
X9939238Y-10537190D01*
X9901143Y-10537190D01*
X9882095Y-10546714D01*
X9872571Y-10556238D01*
X9863048Y-10575286D01*
X9863048Y-10613381D01*
X9872571Y-10632429D01*
X9882095Y-10641952D01*
X9901143Y-10651476D01*
X9939238Y-10651476D01*
X9958286Y-10641952D01*
X9967810Y-10632429D01*
X9977333Y-10613381D01*
X9977333Y-10575286D01*
X9967810Y-10556238D01*
X9958286Y-10546714D01*
X9939238Y-10537190D01*
X10148762Y-10451476D02*
X10110667Y-10451476D01*
X10091619Y-10461000D01*
X10082095Y-10470524D01*
X10063048Y-10499095D01*
X10053524Y-10537190D01*
X10053524Y-10613381D01*
X10063048Y-10632429D01*
X10072571Y-10641952D01*
X10091619Y-10651476D01*
X10129714Y-10651476D01*
X10148762Y-10641952D01*
X10158286Y-10632429D01*
X10167810Y-10613381D01*
X10167810Y-10565762D01*
X10158286Y-10546714D01*
X10148762Y-10537190D01*
X10129714Y-10527667D01*
X10091619Y-10527667D01*
X10072571Y-10537190D01*
X10063048Y-10546714D01*
X10053524Y-10565762D01*
X10339238Y-10451476D02*
X10301143Y-10451476D01*
X10282095Y-10461000D01*
X10272571Y-10470524D01*
X10253524Y-10499095D01*
X10244000Y-10537190D01*
X10244000Y-10613381D01*
X10253524Y-10632429D01*
X10263048Y-10641952D01*
X10282095Y-10651476D01*
X10320190Y-10651476D01*
X10339238Y-10641952D01*
X10348762Y-10632429D01*
X10358286Y-10613381D01*
X10358286Y-10565762D01*
X10348762Y-10546714D01*
X10339238Y-10537190D01*
X10320190Y-10527667D01*
X10282095Y-10527667D01*
X10263048Y-10537190D01*
X10253524Y-10546714D01*
X10244000Y-10565762D01*
X10434476Y-10451476D02*
X10434476Y-10489571D01*
X10510667Y-10451476D02*
X10510667Y-10489571D01*
X10805905Y-10727667D02*
X10796381Y-10718143D01*
X10777333Y-10689571D01*
X10767810Y-10670524D01*
X10758286Y-10641952D01*
X10748762Y-10594333D01*
X10748762Y-10556238D01*
X10758286Y-10508619D01*
X10767810Y-10480048D01*
X10777333Y-10461000D01*
X10796381Y-10432429D01*
X10805905Y-10422905D01*
X10967810Y-10518143D02*
X10967810Y-10651476D01*
X10920190Y-10441952D02*
X10872571Y-10584810D01*
X10996381Y-10584810D01*
X11224952Y-10651476D02*
X11224952Y-10451476D01*
X11310667Y-10651476D02*
X11310667Y-10546714D01*
X11301143Y-10527667D01*
X11282095Y-10518143D01*
X11253524Y-10518143D01*
X11234476Y-10527667D01*
X11224952Y-10537190D01*
X11434476Y-10651476D02*
X11415428Y-10641952D01*
X11405905Y-10632429D01*
X11396381Y-10613381D01*
X11396381Y-10556238D01*
X11405905Y-10537190D01*
X11415428Y-10527667D01*
X11434476Y-10518143D01*
X11463048Y-10518143D01*
X11482095Y-10527667D01*
X11491619Y-10537190D01*
X11501143Y-10556238D01*
X11501143Y-10613381D01*
X11491619Y-10632429D01*
X11482095Y-10641952D01*
X11463048Y-10651476D01*
X11434476Y-10651476D01*
X11615428Y-10651476D02*
X11596381Y-10641952D01*
X11586857Y-10622905D01*
X11586857Y-10451476D01*
X11767809Y-10641952D02*
X11748762Y-10651476D01*
X11710667Y-10651476D01*
X11691619Y-10641952D01*
X11682095Y-10622905D01*
X11682095Y-10546714D01*
X11691619Y-10527667D01*
X11710667Y-10518143D01*
X11748762Y-10518143D01*
X11767809Y-10527667D01*
X11777333Y-10546714D01*
X11777333Y-10565762D01*
X11682095Y-10584810D01*
X11853524Y-10641952D02*
X11872571Y-10651476D01*
X11910667Y-10651476D01*
X11929714Y-10641952D01*
X11939238Y-10622905D01*
X11939238Y-10613381D01*
X11929714Y-10594333D01*
X11910667Y-10584810D01*
X11882095Y-10584810D01*
X11863048Y-10575286D01*
X11853524Y-10556238D01*
X11853524Y-10546714D01*
X11863048Y-10527667D01*
X11882095Y-10518143D01*
X11910667Y-10518143D01*
X11929714Y-10527667D01*
X12005905Y-10727667D02*
X12015428Y-10718143D01*
X12034476Y-10689571D01*
X12044000Y-10670524D01*
X12053524Y-10641952D01*
X12063048Y-10594333D01*
X12063048Y-10556238D01*
X12053524Y-10508619D01*
X12044000Y-10480048D01*
X12034476Y-10461000D01*
X12015428Y-10432429D01*
X12005905Y-10422905D01*
X12367809Y-10727667D02*
X12358286Y-10718143D01*
X12339238Y-10689571D01*
X12329714Y-10670524D01*
X12320190Y-10641952D01*
X12310667Y-10594333D01*
X12310667Y-10556238D01*
X12320190Y-10508619D01*
X12329714Y-10480048D01*
X12339238Y-10461000D01*
X12358286Y-10432429D01*
X12367809Y-10422905D01*
X12444000Y-10518143D02*
X12444000Y-10651476D01*
X12444000Y-10537190D02*
X12453524Y-10527667D01*
X12472571Y-10518143D01*
X12501143Y-10518143D01*
X12520190Y-10527667D01*
X12529714Y-10546714D01*
X12529714Y-10651476D01*
X12653524Y-10651476D02*
X12634476Y-10641952D01*
X12624952Y-10632429D01*
X12615428Y-10613381D01*
X12615428Y-10556238D01*
X12624952Y-10537190D01*
X12634476Y-10527667D01*
X12653524Y-10518143D01*
X12682095Y-10518143D01*
X12701143Y-10527667D01*
X12710667Y-10537190D01*
X12720190Y-10556238D01*
X12720190Y-10613381D01*
X12710667Y-10632429D01*
X12701143Y-10641952D01*
X12682095Y-10651476D01*
X12653524Y-10651476D01*
X12777333Y-10518143D02*
X12853524Y-10518143D01*
X12805905Y-10451476D02*
X12805905Y-10622905D01*
X12815428Y-10641952D01*
X12834476Y-10651476D01*
X12853524Y-10651476D01*
X13072571Y-10518143D02*
X13072571Y-10718143D01*
X13072571Y-10527667D02*
X13091619Y-10518143D01*
X13129714Y-10518143D01*
X13148762Y-10527667D01*
X13158286Y-10537190D01*
X13167809Y-10556238D01*
X13167809Y-10613381D01*
X13158286Y-10632429D01*
X13148762Y-10641952D01*
X13129714Y-10651476D01*
X13091619Y-10651476D01*
X13072571Y-10641952D01*
X13282095Y-10651476D02*
X13263048Y-10641952D01*
X13253524Y-10622905D01*
X13253524Y-10451476D01*
X13444000Y-10651476D02*
X13444000Y-10546714D01*
X13434476Y-10527667D01*
X13415428Y-10518143D01*
X13377333Y-10518143D01*
X13358286Y-10527667D01*
X13444000Y-10641952D02*
X13424952Y-10651476D01*
X13377333Y-10651476D01*
X13358286Y-10641952D01*
X13348762Y-10622905D01*
X13348762Y-10603857D01*
X13358286Y-10584810D01*
X13377333Y-10575286D01*
X13424952Y-10575286D01*
X13444000Y-10565762D01*
X13510667Y-10518143D02*
X13586857Y-10518143D01*
X13539238Y-10451476D02*
X13539238Y-10622905D01*
X13548762Y-10641952D01*
X13567809Y-10651476D01*
X13586857Y-10651476D01*
X13729714Y-10641952D02*
X13710667Y-10651476D01*
X13672571Y-10651476D01*
X13653524Y-10641952D01*
X13644000Y-10622905D01*
X13644000Y-10546714D01*
X13653524Y-10527667D01*
X13672571Y-10518143D01*
X13710667Y-10518143D01*
X13729714Y-10527667D01*
X13739238Y-10546714D01*
X13739238Y-10565762D01*
X13644000Y-10584810D01*
X13910667Y-10651476D02*
X13910667Y-10451476D01*
X13910667Y-10641952D02*
X13891619Y-10651476D01*
X13853524Y-10651476D01*
X13834476Y-10641952D01*
X13824952Y-10632429D01*
X13815428Y-10613381D01*
X13815428Y-10556238D01*
X13824952Y-10537190D01*
X13834476Y-10527667D01*
X13853524Y-10518143D01*
X13891619Y-10518143D01*
X13910667Y-10527667D01*
X13986857Y-10727667D02*
X13996381Y-10718143D01*
X14015428Y-10689571D01*
X14024952Y-10670524D01*
X14034476Y-10641952D01*
X14044000Y-10594333D01*
X14044000Y-10556238D01*
X14034476Y-10508619D01*
X14024952Y-10480048D01*
X14015428Y-10461000D01*
X13996381Y-10432429D01*
X13986857Y-10422905D01*
M02*
