G04 #@! TF.GenerationSoftware,KiCad,Pcbnew,(6.0.10-0)*
G04 #@! TF.CreationDate,2023-02-24T11:02:46+09:00*
G04 #@! TF.ProjectId,CH224K_PD_Decoy,43483232-344b-45f5-9044-5f4465636f79,0.5*
G04 #@! TF.SameCoordinates,Original*
G04 #@! TF.FileFunction,Soldermask,Top*
G04 #@! TF.FilePolarity,Negative*
%FSLAX46Y46*%
G04 Gerber Fmt 4.6, Leading zero omitted, Abs format (unit mm)*
G04 Created by KiCad (PCBNEW (6.0.10-0)) date 2023-02-24 11:02:46*
%MOMM*%
%LPD*%
G01*
G04 APERTURE LIST*
G04 Aperture macros list*
%AMRoundRect*
0 Rectangle with rounded corners*
0 $1 Rounding radius*
0 $2 $3 $4 $5 $6 $7 $8 $9 X,Y pos of 4 corners*
0 Add a 4 corners polygon primitive as box body*
4,1,4,$2,$3,$4,$5,$6,$7,$8,$9,$2,$3,0*
0 Add four circle primitives for the rounded corners*
1,1,$1+$1,$2,$3*
1,1,$1+$1,$4,$5*
1,1,$1+$1,$6,$7*
1,1,$1+$1,$8,$9*
0 Add four rect primitives between the rounded corners*
20,1,$1+$1,$2,$3,$4,$5,0*
20,1,$1+$1,$4,$5,$6,$7,0*
20,1,$1+$1,$6,$7,$8,$9,0*
20,1,$1+$1,$8,$9,$2,$3,0*%
G04 Aperture macros list end*
%ADD10RoundRect,0.250000X0.262500X0.450000X-0.262500X0.450000X-0.262500X-0.450000X0.262500X-0.450000X0*%
%ADD11R,2.500000X1.500000*%
%ADD12O,2.500000X1.500000*%
%ADD13C,2.200000*%
%ADD14R,3.000000X3.000000*%
%ADD15C,3.000000*%
%ADD16R,3.200000X2.300000*%
%ADD17R,0.510000X1.100000*%
%ADD18RoundRect,0.250000X1.425000X-0.362500X1.425000X0.362500X-1.425000X0.362500X-1.425000X-0.362500X0*%
%ADD19R,1.700000X1.700000*%
%ADD20O,1.700000X1.700000*%
%ADD21RoundRect,0.250000X0.450000X-0.262500X0.450000X0.262500X-0.450000X0.262500X-0.450000X-0.262500X0*%
%ADD22RoundRect,0.218750X-0.256250X0.218750X-0.256250X-0.218750X0.256250X-0.218750X0.256250X0.218750X0*%
%ADD23C,0.650000*%
%ADD24R,1.450000X0.600000*%
%ADD25R,1.450000X0.300000*%
%ADD26O,1.600000X1.000000*%
%ADD27O,2.100000X1.000000*%
%ADD28RoundRect,0.250000X0.475000X-0.250000X0.475000X0.250000X-0.475000X0.250000X-0.475000X-0.250000X0*%
G04 APERTURE END LIST*
D10*
X93241500Y-79629000D03*
X91416500Y-79629000D03*
D11*
X117856000Y-88900000D03*
D12*
X117856000Y-91440000D03*
X117856000Y-93980000D03*
D13*
X127000000Y-73660000D03*
D14*
X125730000Y-81280000D03*
D15*
X125730000Y-86360000D03*
D13*
X127000000Y-93980000D03*
D16*
X95250000Y-84328000D03*
D17*
X93250000Y-86878000D03*
X94250000Y-86878000D03*
X95250000Y-86878000D03*
X96250000Y-86878000D03*
X97250000Y-86878000D03*
X97250000Y-81778000D03*
X96250000Y-81778000D03*
X95250000Y-81778000D03*
X94250000Y-81778000D03*
X93250000Y-81778000D03*
D18*
X87376000Y-81829500D03*
X87376000Y-75904500D03*
D11*
X112268000Y-88900000D03*
D12*
X112268000Y-91440000D03*
X112268000Y-93980000D03*
D19*
X81280000Y-93980000D03*
D20*
X83820000Y-93980000D03*
X86360000Y-93980000D03*
D19*
X121158000Y-73655000D03*
D20*
X121158000Y-76195000D03*
D13*
X74930000Y-93980000D03*
D21*
X95758000Y-79398500D03*
X95758000Y-77573500D03*
D11*
X106680000Y-88900000D03*
D12*
X106680000Y-91440000D03*
X106680000Y-93980000D03*
D22*
X91440000Y-81635500D03*
X91440000Y-83210500D03*
D19*
X91445000Y-93980000D03*
D20*
X93985000Y-93980000D03*
X96525000Y-93980000D03*
X99065000Y-93980000D03*
X101605000Y-93980000D03*
D13*
X74930000Y-73660000D03*
D23*
X79054000Y-80930000D03*
X79054000Y-86710000D03*
D24*
X80499000Y-80570000D03*
X80499000Y-81370000D03*
D25*
X80499000Y-82570000D03*
X80499000Y-83570000D03*
X80499000Y-84070000D03*
X80499000Y-85070000D03*
D24*
X80499000Y-86270000D03*
X80499000Y-87070000D03*
X80499000Y-87070000D03*
X80499000Y-86270000D03*
D25*
X80499000Y-85570000D03*
X80499000Y-84570000D03*
X80499000Y-83070000D03*
X80499000Y-82070000D03*
D24*
X80499000Y-81370000D03*
X80499000Y-80570000D03*
D26*
X75404000Y-88140000D03*
D27*
X79584000Y-88140000D03*
X79584000Y-79500000D03*
D26*
X75404000Y-79500000D03*
D28*
X89154000Y-88326000D03*
X89154000Y-86426000D03*
M02*
