G04 #@! TF.GenerationSoftware,KiCad,Pcbnew,(6.0.10-0)*
G04 #@! TF.CreationDate,2023-02-24T11:02:46+09:00*
G04 #@! TF.ProjectId,CH224K_PD_Decoy,43483232-344b-45f5-9044-5f4465636f79,0.5*
G04 #@! TF.SameCoordinates,Original*
G04 #@! TF.FileFunction,Copper,L2,Bot*
G04 #@! TF.FilePolarity,Positive*
%FSLAX46Y46*%
G04 Gerber Fmt 4.6, Leading zero omitted, Abs format (unit mm)*
G04 Created by KiCad (PCBNEW (6.0.10-0)) date 2023-02-24 11:02:46*
%MOMM*%
%LPD*%
G01*
G04 APERTURE LIST*
G04 #@! TA.AperFunction,ComponentPad*
%ADD10R,2.500000X1.500000*%
G04 #@! TD*
G04 #@! TA.AperFunction,ComponentPad*
%ADD11O,2.500000X1.500000*%
G04 #@! TD*
G04 #@! TA.AperFunction,ComponentPad*
%ADD12R,3.000000X3.000000*%
G04 #@! TD*
G04 #@! TA.AperFunction,ComponentPad*
%ADD13C,3.000000*%
G04 #@! TD*
G04 #@! TA.AperFunction,ComponentPad*
%ADD14R,1.700000X1.700000*%
G04 #@! TD*
G04 #@! TA.AperFunction,ComponentPad*
%ADD15O,1.700000X1.700000*%
G04 #@! TD*
G04 #@! TA.AperFunction,ComponentPad*
%ADD16O,1.600000X1.000000*%
G04 #@! TD*
G04 #@! TA.AperFunction,ComponentPad*
%ADD17O,2.100000X1.000000*%
G04 #@! TD*
G04 #@! TA.AperFunction,ViaPad*
%ADD18C,0.800000*%
G04 #@! TD*
G04 #@! TA.AperFunction,Conductor*
%ADD19C,0.250000*%
G04 #@! TD*
G04 #@! TA.AperFunction,Conductor*
%ADD20C,0.500000*%
G04 #@! TD*
G04 APERTURE END LIST*
D10*
X117856000Y-88900000D03*
D11*
X117856000Y-91440000D03*
X117856000Y-93980000D03*
D12*
X125730000Y-81280000D03*
D13*
X125730000Y-86360000D03*
D10*
X112268000Y-88900000D03*
D11*
X112268000Y-91440000D03*
X112268000Y-93980000D03*
D14*
X81280000Y-93980000D03*
D15*
X83820000Y-93980000D03*
X86360000Y-93980000D03*
D14*
X121158000Y-73655000D03*
D15*
X121158000Y-76195000D03*
D10*
X106680000Y-88900000D03*
D11*
X106680000Y-91440000D03*
X106680000Y-93980000D03*
D14*
X91445000Y-93980000D03*
D15*
X93985000Y-93980000D03*
X96525000Y-93980000D03*
X99065000Y-93980000D03*
X101605000Y-93980000D03*
D16*
X75404000Y-88140000D03*
D17*
X79584000Y-88140000D03*
X79584000Y-79500000D03*
D16*
X75404000Y-79500000D03*
D18*
X87630000Y-91440000D03*
X105410000Y-74930000D03*
X113030000Y-77470000D03*
X91059000Y-88265000D03*
X80010000Y-91440000D03*
X78740000Y-74930000D03*
X105410000Y-77470000D03*
X102870000Y-77470000D03*
X82296000Y-79756000D03*
X102870000Y-83820000D03*
X113030000Y-74930000D03*
X107950000Y-74930000D03*
X91948000Y-84328000D03*
X102870000Y-86360000D03*
X77470000Y-91440000D03*
X110490000Y-77470000D03*
X107950000Y-77470000D03*
X81280000Y-74930000D03*
X98552000Y-84328000D03*
X102870000Y-74930000D03*
X121920000Y-93980000D03*
X121920000Y-91440000D03*
X82296000Y-87884000D03*
X110490000Y-74930000D03*
X100330000Y-74930000D03*
X103124000Y-88900000D03*
X91440000Y-90325500D03*
X90932000Y-86868000D03*
X99314000Y-90170000D03*
X94236764Y-80541856D03*
X99314000Y-88137500D03*
X98806000Y-82296000D03*
X94234000Y-88138000D03*
X96520000Y-91852500D03*
X99060000Y-91852500D03*
X95250000Y-88138000D03*
X96266000Y-80518000D03*
X83566000Y-85852000D03*
X83566000Y-81804497D03*
X85053000Y-84365000D03*
X97282000Y-80518000D03*
X82296000Y-81280000D03*
X82296000Y-86360000D03*
X96266000Y-88138000D03*
X96266000Y-89916000D03*
X83566000Y-84294500D03*
X83566000Y-82804000D03*
D19*
X112268000Y-88900000D02*
X106680000Y-88900000D01*
X117856000Y-88900000D02*
X112268000Y-88900000D01*
X90334000Y-89219500D02*
X90334000Y-87466000D01*
X91440000Y-90325500D02*
X90334000Y-89219500D01*
X90334000Y-87466000D02*
X90932000Y-86868000D01*
X103124000Y-88900000D02*
X106680000Y-88900000D01*
X106642500Y-91402500D02*
X106680000Y-91440000D01*
X100546500Y-91402500D02*
X106642500Y-91402500D01*
X98806000Y-80264000D02*
X98806000Y-82296000D01*
X99314000Y-90170000D02*
X100546500Y-91402500D01*
X94236764Y-80541856D02*
X95435620Y-79343000D01*
X97885000Y-79343000D02*
X98806000Y-80264000D01*
X99314000Y-88137500D02*
X99314000Y-90170000D01*
X95435620Y-79343000D02*
X97885000Y-79343000D01*
X102616000Y-90170000D02*
X108458000Y-90170000D01*
X94234000Y-88138000D02*
X94234000Y-88128695D01*
X94234000Y-90678000D02*
X94234000Y-88138000D01*
X109728000Y-91440000D02*
X112268000Y-91440000D01*
X94949695Y-87413000D02*
X99859000Y-87413000D01*
X96520000Y-91852500D02*
X95408500Y-91852500D01*
X95408500Y-91852500D02*
X94234000Y-90678000D01*
X94234000Y-88128695D02*
X94949695Y-87413000D01*
X99859000Y-87413000D02*
X102616000Y-90170000D01*
X108458000Y-90170000D02*
X109728000Y-91440000D01*
X104298500Y-91852500D02*
X105156000Y-92710000D01*
X99060000Y-91852500D02*
X97695000Y-91852500D01*
X95250000Y-90424000D02*
X95250000Y-88138000D01*
X95885000Y-91059000D02*
X95250000Y-90424000D01*
X115062000Y-91440000D02*
X117856000Y-91440000D01*
X99060000Y-91852500D02*
X104298500Y-91852500D01*
X105156000Y-92710000D02*
X113792000Y-92710000D01*
X97695000Y-91852500D02*
X96901500Y-91059000D01*
X113792000Y-92710000D02*
X115062000Y-91440000D01*
X96901500Y-91059000D02*
X95885000Y-91059000D01*
X84836000Y-85852000D02*
X83566000Y-85852000D01*
X85852000Y-84836000D02*
X84836000Y-85852000D01*
X86741000Y-82169000D02*
X85852000Y-83058000D01*
X96901000Y-82169000D02*
X86741000Y-82169000D01*
X85852000Y-83058000D02*
X85852000Y-84836000D01*
X96266000Y-80264000D02*
X96737000Y-79793000D01*
X98007000Y-80217695D02*
X98007000Y-81063000D01*
X96737000Y-79793000D02*
X97582305Y-79793000D01*
X97582305Y-79793000D02*
X98007000Y-80217695D01*
X98007000Y-81063000D02*
X96901000Y-82169000D01*
X96266000Y-80518000D02*
X96266000Y-80264000D01*
X83591802Y-81804497D02*
X83566000Y-81804497D01*
X96157995Y-81651310D02*
X83719187Y-81651310D01*
X85053000Y-84365000D02*
X85053000Y-83265695D01*
X97282000Y-80527305D02*
X96157995Y-81651310D01*
X85053000Y-83265695D02*
X83591802Y-81804497D01*
X97282000Y-80518000D02*
X97282000Y-80527305D01*
X83719187Y-81651310D02*
X83566000Y-81804497D01*
D20*
X82296000Y-81280000D02*
X82296000Y-86360000D01*
D19*
X96266000Y-88138000D02*
X96266000Y-89916000D01*
X83566000Y-82804000D02*
X83566000Y-84294500D01*
G04 #@! TA.AperFunction,Conductor*
G36*
X93388260Y-71608077D02*
G01*
X128220527Y-71628471D01*
X128239827Y-71629970D01*
X128263724Y-71633691D01*
X128273659Y-71632392D01*
X128274746Y-71632250D01*
X128303431Y-71631793D01*
X128376741Y-71639013D01*
X128406212Y-71641916D01*
X128430432Y-71646733D01*
X128549546Y-71682866D01*
X128572355Y-71692315D01*
X128682124Y-71750987D01*
X128702655Y-71764705D01*
X128798876Y-71843671D01*
X128816329Y-71861124D01*
X128895295Y-71957345D01*
X128909013Y-71977876D01*
X128967685Y-72087645D01*
X128977134Y-72110454D01*
X129013267Y-72229568D01*
X129018084Y-72253789D01*
X129027541Y-72349809D01*
X129027091Y-72365868D01*
X129027800Y-72365877D01*
X129027690Y-72374853D01*
X129026309Y-72383724D01*
X129027473Y-72392626D01*
X129027473Y-72392628D01*
X129030436Y-72415283D01*
X129031500Y-72431621D01*
X129031500Y-95200633D01*
X129030000Y-95220018D01*
X129027858Y-95233777D01*
X129026309Y-95243724D01*
X129027473Y-95252626D01*
X129027750Y-95254746D01*
X129028207Y-95283431D01*
X129022820Y-95338131D01*
X129018084Y-95386212D01*
X129013267Y-95410432D01*
X128977134Y-95529546D01*
X128967685Y-95552355D01*
X128909013Y-95662124D01*
X128895295Y-95682655D01*
X128816329Y-95778876D01*
X128798876Y-95796329D01*
X128702655Y-95875295D01*
X128682124Y-95889013D01*
X128572355Y-95947685D01*
X128549546Y-95957134D01*
X128430432Y-95993267D01*
X128406211Y-95998084D01*
X128310191Y-96007541D01*
X128294132Y-96007091D01*
X128294123Y-96007800D01*
X128285147Y-96007690D01*
X128276276Y-96006309D01*
X128267374Y-96007473D01*
X128267372Y-96007473D01*
X128254856Y-96009110D01*
X128244714Y-96010436D01*
X128228379Y-96011500D01*
X73709367Y-96011500D01*
X73689982Y-96010000D01*
X73675148Y-96007690D01*
X73675145Y-96007690D01*
X73666276Y-96006309D01*
X73656341Y-96007608D01*
X73655254Y-96007750D01*
X73626569Y-96008207D01*
X73553259Y-96000987D01*
X73523788Y-95998084D01*
X73499568Y-95993267D01*
X73380454Y-95957134D01*
X73357645Y-95947685D01*
X73247876Y-95889013D01*
X73227345Y-95875295D01*
X73131124Y-95796329D01*
X73113671Y-95778876D01*
X73034705Y-95682655D01*
X73020987Y-95662124D01*
X72962315Y-95552355D01*
X72952866Y-95529546D01*
X72916733Y-95410432D01*
X72911916Y-95386212D01*
X72902711Y-95292755D01*
X72902607Y-95269151D01*
X72902768Y-95267354D01*
X72903576Y-95262552D01*
X72903729Y-95250000D01*
X72899773Y-95222376D01*
X72898500Y-95204514D01*
X72898500Y-93980000D01*
X73316526Y-93980000D01*
X73336391Y-94232403D01*
X73337545Y-94237210D01*
X73337546Y-94237216D01*
X73371206Y-94377418D01*
X73395495Y-94478591D01*
X73397388Y-94483162D01*
X73397389Y-94483164D01*
X73481415Y-94686020D01*
X73492384Y-94712502D01*
X73624672Y-94928376D01*
X73789102Y-95120898D01*
X73981624Y-95285328D01*
X74197498Y-95417616D01*
X74202068Y-95419509D01*
X74202072Y-95419511D01*
X74405451Y-95503753D01*
X74431409Y-95514505D01*
X74494018Y-95529536D01*
X74672784Y-95572454D01*
X74672790Y-95572455D01*
X74677597Y-95573609D01*
X74777416Y-95581465D01*
X74864345Y-95588307D01*
X74864352Y-95588307D01*
X74866801Y-95588500D01*
X74993199Y-95588500D01*
X74995648Y-95588307D01*
X74995655Y-95588307D01*
X75082584Y-95581465D01*
X75182403Y-95573609D01*
X75187210Y-95572455D01*
X75187216Y-95572454D01*
X75365982Y-95529536D01*
X75428591Y-95514505D01*
X75454549Y-95503753D01*
X75657928Y-95419511D01*
X75657932Y-95419509D01*
X75662502Y-95417616D01*
X75878376Y-95285328D01*
X76070898Y-95120898D01*
X76235328Y-94928376D01*
X76266116Y-94878134D01*
X79921500Y-94878134D01*
X79928255Y-94940316D01*
X79979385Y-95076705D01*
X80066739Y-95193261D01*
X80183295Y-95280615D01*
X80319684Y-95331745D01*
X80381866Y-95338500D01*
X82178134Y-95338500D01*
X82240316Y-95331745D01*
X82376705Y-95280615D01*
X82493261Y-95193261D01*
X82580615Y-95076705D01*
X82602799Y-95017529D01*
X82624598Y-94959382D01*
X82667240Y-94902618D01*
X82733802Y-94877918D01*
X82803150Y-94893126D01*
X82837817Y-94921114D01*
X82866250Y-94953938D01*
X83038126Y-95096632D01*
X83231000Y-95209338D01*
X83235825Y-95211180D01*
X83235826Y-95211181D01*
X83298527Y-95235124D01*
X83439692Y-95289030D01*
X83444760Y-95290061D01*
X83444763Y-95290062D01*
X83539862Y-95309410D01*
X83658597Y-95333567D01*
X83663772Y-95333757D01*
X83663774Y-95333757D01*
X83876673Y-95341564D01*
X83876677Y-95341564D01*
X83881837Y-95341753D01*
X83886957Y-95341097D01*
X83886959Y-95341097D01*
X84098288Y-95314025D01*
X84098289Y-95314025D01*
X84103416Y-95313368D01*
X84108366Y-95311883D01*
X84312429Y-95250661D01*
X84312434Y-95250659D01*
X84317384Y-95249174D01*
X84517994Y-95150896D01*
X84699860Y-95021173D01*
X84732079Y-94989067D01*
X84843616Y-94877918D01*
X84858096Y-94863489D01*
X84875892Y-94838724D01*
X84988453Y-94682077D01*
X84989640Y-94682930D01*
X85036960Y-94639362D01*
X85106897Y-94627145D01*
X85172338Y-94654678D01*
X85200166Y-94686511D01*
X85257694Y-94780388D01*
X85263777Y-94788699D01*
X85403213Y-94949667D01*
X85410580Y-94956883D01*
X85574434Y-95092916D01*
X85582881Y-95098831D01*
X85766756Y-95206279D01*
X85776042Y-95210729D01*
X85975001Y-95286703D01*
X85984899Y-95289579D01*
X86088250Y-95310606D01*
X86102299Y-95309410D01*
X86106000Y-95299065D01*
X86106000Y-95298517D01*
X86614000Y-95298517D01*
X86618064Y-95312359D01*
X86631478Y-95314393D01*
X86638184Y-95313534D01*
X86648262Y-95311392D01*
X86852255Y-95250191D01*
X86861842Y-95246433D01*
X87053095Y-95152739D01*
X87061945Y-95147464D01*
X87235328Y-95023792D01*
X87243200Y-95017139D01*
X87382690Y-94878134D01*
X90086500Y-94878134D01*
X90093255Y-94940316D01*
X90144385Y-95076705D01*
X90231739Y-95193261D01*
X90348295Y-95280615D01*
X90484684Y-95331745D01*
X90546866Y-95338500D01*
X92343134Y-95338500D01*
X92405316Y-95331745D01*
X92541705Y-95280615D01*
X92658261Y-95193261D01*
X92745615Y-95076705D01*
X92767799Y-95017529D01*
X92789598Y-94959382D01*
X92832240Y-94902618D01*
X92898802Y-94877918D01*
X92968150Y-94893126D01*
X93002817Y-94921114D01*
X93031250Y-94953938D01*
X93203126Y-95096632D01*
X93396000Y-95209338D01*
X93400825Y-95211180D01*
X93400826Y-95211181D01*
X93463527Y-95235124D01*
X93604692Y-95289030D01*
X93609760Y-95290061D01*
X93609763Y-95290062D01*
X93704862Y-95309410D01*
X93823597Y-95333567D01*
X93828772Y-95333757D01*
X93828774Y-95333757D01*
X94041673Y-95341564D01*
X94041677Y-95341564D01*
X94046837Y-95341753D01*
X94051957Y-95341097D01*
X94051959Y-95341097D01*
X94263288Y-95314025D01*
X94263289Y-95314025D01*
X94268416Y-95313368D01*
X94273366Y-95311883D01*
X94477429Y-95250661D01*
X94477434Y-95250659D01*
X94482384Y-95249174D01*
X94682994Y-95150896D01*
X94864860Y-95021173D01*
X94897079Y-94989067D01*
X95008616Y-94877918D01*
X95023096Y-94863489D01*
X95040892Y-94838724D01*
X95153453Y-94682077D01*
X95154776Y-94683028D01*
X95201645Y-94639857D01*
X95271580Y-94627625D01*
X95337026Y-94655144D01*
X95364875Y-94686994D01*
X95424987Y-94785088D01*
X95571250Y-94953938D01*
X95743126Y-95096632D01*
X95936000Y-95209338D01*
X95940825Y-95211180D01*
X95940826Y-95211181D01*
X96003527Y-95235124D01*
X96144692Y-95289030D01*
X96149760Y-95290061D01*
X96149763Y-95290062D01*
X96244862Y-95309410D01*
X96363597Y-95333567D01*
X96368772Y-95333757D01*
X96368774Y-95333757D01*
X96581673Y-95341564D01*
X96581677Y-95341564D01*
X96586837Y-95341753D01*
X96591957Y-95341097D01*
X96591959Y-95341097D01*
X96803288Y-95314025D01*
X96803289Y-95314025D01*
X96808416Y-95313368D01*
X96813366Y-95311883D01*
X97017429Y-95250661D01*
X97017434Y-95250659D01*
X97022384Y-95249174D01*
X97222994Y-95150896D01*
X97404860Y-95021173D01*
X97437079Y-94989067D01*
X97548616Y-94877918D01*
X97563096Y-94863489D01*
X97580892Y-94838724D01*
X97693453Y-94682077D01*
X97694776Y-94683028D01*
X97741645Y-94639857D01*
X97811580Y-94627625D01*
X97877026Y-94655144D01*
X97904875Y-94686994D01*
X97964987Y-94785088D01*
X98111250Y-94953938D01*
X98283126Y-95096632D01*
X98476000Y-95209338D01*
X98480825Y-95211180D01*
X98480826Y-95211181D01*
X98543527Y-95235124D01*
X98684692Y-95289030D01*
X98689760Y-95290061D01*
X98689763Y-95290062D01*
X98784862Y-95309410D01*
X98903597Y-95333567D01*
X98908772Y-95333757D01*
X98908774Y-95333757D01*
X99121673Y-95341564D01*
X99121677Y-95341564D01*
X99126837Y-95341753D01*
X99131957Y-95341097D01*
X99131959Y-95341097D01*
X99343288Y-95314025D01*
X99343289Y-95314025D01*
X99348416Y-95313368D01*
X99353366Y-95311883D01*
X99557429Y-95250661D01*
X99557434Y-95250659D01*
X99562384Y-95249174D01*
X99762994Y-95150896D01*
X99944860Y-95021173D01*
X99977079Y-94989067D01*
X100088616Y-94877918D01*
X100103096Y-94863489D01*
X100120892Y-94838724D01*
X100233453Y-94682077D01*
X100234640Y-94682930D01*
X100281960Y-94639362D01*
X100351897Y-94627145D01*
X100417338Y-94654678D01*
X100445166Y-94686511D01*
X100502694Y-94780388D01*
X100508777Y-94788699D01*
X100648213Y-94949667D01*
X100655580Y-94956883D01*
X100819434Y-95092916D01*
X100827881Y-95098831D01*
X101011756Y-95206279D01*
X101021042Y-95210729D01*
X101220001Y-95286703D01*
X101229899Y-95289579D01*
X101333250Y-95310606D01*
X101347299Y-95309410D01*
X101351000Y-95299065D01*
X101351000Y-95298517D01*
X101859000Y-95298517D01*
X101863064Y-95312359D01*
X101876478Y-95314393D01*
X101883184Y-95313534D01*
X101893262Y-95311392D01*
X102097255Y-95250191D01*
X102106842Y-95246433D01*
X102298095Y-95152739D01*
X102306945Y-95147464D01*
X102480328Y-95023792D01*
X102488200Y-95017139D01*
X102639052Y-94866812D01*
X102645730Y-94858965D01*
X102770003Y-94686020D01*
X102775313Y-94677183D01*
X102869670Y-94486267D01*
X102873469Y-94476672D01*
X102935377Y-94272910D01*
X102937555Y-94262837D01*
X102938986Y-94251962D01*
X102938326Y-94247728D01*
X104946114Y-94247728D01*
X104946166Y-94247973D01*
X105008898Y-94451883D01*
X105013119Y-94462229D01*
X105110971Y-94651814D01*
X105116957Y-94661245D01*
X105246832Y-94830501D01*
X105254393Y-94838724D01*
X105412194Y-94982312D01*
X105421094Y-94989067D01*
X105601815Y-95102434D01*
X105611781Y-95107511D01*
X105809714Y-95187080D01*
X105820429Y-95190315D01*
X106030301Y-95233777D01*
X106039438Y-95234980D01*
X106089990Y-95237895D01*
X106093637Y-95238000D01*
X106407885Y-95238000D01*
X106423124Y-95233525D01*
X106424329Y-95232135D01*
X106426000Y-95224452D01*
X106426000Y-95219885D01*
X106934000Y-95219885D01*
X106938475Y-95235124D01*
X106939865Y-95236329D01*
X106947548Y-95238000D01*
X107234175Y-95238000D01*
X107239770Y-95237751D01*
X107398078Y-95223622D01*
X107409092Y-95221640D01*
X107614860Y-95165349D01*
X107625341Y-95161451D01*
X107817903Y-95069603D01*
X107827516Y-95063918D01*
X108000767Y-94939425D01*
X108009233Y-94932117D01*
X108157692Y-94778918D01*
X108164735Y-94770221D01*
X108283719Y-94593156D01*
X108289105Y-94583358D01*
X108374857Y-94388010D01*
X108378422Y-94377418D01*
X108408624Y-94251616D01*
X108408429Y-94247728D01*
X110534114Y-94247728D01*
X110534166Y-94247973D01*
X110596898Y-94451883D01*
X110601119Y-94462229D01*
X110698971Y-94651814D01*
X110704957Y-94661245D01*
X110834832Y-94830501D01*
X110842393Y-94838724D01*
X111000194Y-94982312D01*
X111009094Y-94989067D01*
X111189815Y-95102434D01*
X111199781Y-95107511D01*
X111397714Y-95187080D01*
X111408429Y-95190315D01*
X111618301Y-95233777D01*
X111627438Y-95234980D01*
X111677990Y-95237895D01*
X111681637Y-95238000D01*
X111995885Y-95238000D01*
X112011124Y-95233525D01*
X112012329Y-95232135D01*
X112014000Y-95224452D01*
X112014000Y-95219885D01*
X112522000Y-95219885D01*
X112526475Y-95235124D01*
X112527865Y-95236329D01*
X112535548Y-95238000D01*
X112822175Y-95238000D01*
X112827770Y-95237751D01*
X112986078Y-95223622D01*
X112997092Y-95221640D01*
X113202860Y-95165349D01*
X113213341Y-95161451D01*
X113405903Y-95069603D01*
X113415516Y-95063918D01*
X113588767Y-94939425D01*
X113597233Y-94932117D01*
X113745692Y-94778918D01*
X113752735Y-94770221D01*
X113871719Y-94593156D01*
X113877105Y-94583358D01*
X113962857Y-94388010D01*
X113966422Y-94377418D01*
X113996624Y-94251616D01*
X113996429Y-94247728D01*
X116122114Y-94247728D01*
X116122166Y-94247973D01*
X116184898Y-94451883D01*
X116189119Y-94462229D01*
X116286971Y-94651814D01*
X116292957Y-94661245D01*
X116422832Y-94830501D01*
X116430393Y-94838724D01*
X116588194Y-94982312D01*
X116597094Y-94989067D01*
X116777815Y-95102434D01*
X116787781Y-95107511D01*
X116985714Y-95187080D01*
X116996429Y-95190315D01*
X117206301Y-95233777D01*
X117215438Y-95234980D01*
X117265990Y-95237895D01*
X117269637Y-95238000D01*
X117583885Y-95238000D01*
X117599124Y-95233525D01*
X117600329Y-95232135D01*
X117602000Y-95224452D01*
X117602000Y-95219885D01*
X118110000Y-95219885D01*
X118114475Y-95235124D01*
X118115865Y-95236329D01*
X118123548Y-95238000D01*
X118410175Y-95238000D01*
X118415770Y-95237751D01*
X118574078Y-95223622D01*
X118585092Y-95221640D01*
X118790860Y-95165349D01*
X118801341Y-95161451D01*
X118993903Y-95069603D01*
X119003516Y-95063918D01*
X119176767Y-94939425D01*
X119185233Y-94932117D01*
X119333692Y-94778918D01*
X119340735Y-94770221D01*
X119459719Y-94593156D01*
X119465105Y-94583358D01*
X119550857Y-94388010D01*
X119554422Y-94377418D01*
X119584624Y-94251616D01*
X119583919Y-94237530D01*
X119575040Y-94234000D01*
X118128115Y-94234000D01*
X118112876Y-94238475D01*
X118111671Y-94239865D01*
X118110000Y-94247548D01*
X118110000Y-95219885D01*
X117602000Y-95219885D01*
X117602000Y-94252115D01*
X117597525Y-94236876D01*
X117596135Y-94235671D01*
X117588452Y-94234000D01*
X116137589Y-94234000D01*
X116123607Y-94238105D01*
X116122114Y-94247728D01*
X113996429Y-94247728D01*
X113995919Y-94237530D01*
X113987040Y-94234000D01*
X112540115Y-94234000D01*
X112524876Y-94238475D01*
X112523671Y-94239865D01*
X112522000Y-94247548D01*
X112522000Y-95219885D01*
X112014000Y-95219885D01*
X112014000Y-94252115D01*
X112009525Y-94236876D01*
X112008135Y-94235671D01*
X112000452Y-94234000D01*
X110549589Y-94234000D01*
X110535607Y-94238105D01*
X110534114Y-94247728D01*
X108408429Y-94247728D01*
X108407919Y-94237530D01*
X108399040Y-94234000D01*
X106952115Y-94234000D01*
X106936876Y-94238475D01*
X106935671Y-94239865D01*
X106934000Y-94247548D01*
X106934000Y-95219885D01*
X106426000Y-95219885D01*
X106426000Y-94252115D01*
X106421525Y-94236876D01*
X106420135Y-94235671D01*
X106412452Y-94234000D01*
X104961589Y-94234000D01*
X104947607Y-94238105D01*
X104946114Y-94247728D01*
X102938326Y-94247728D01*
X102936775Y-94237778D01*
X102923617Y-94234000D01*
X101877115Y-94234000D01*
X101861876Y-94238475D01*
X101860671Y-94239865D01*
X101859000Y-94247548D01*
X101859000Y-95298517D01*
X101351000Y-95298517D01*
X101351000Y-93980000D01*
X125386526Y-93980000D01*
X125406391Y-94232403D01*
X125407545Y-94237210D01*
X125407546Y-94237216D01*
X125441206Y-94377418D01*
X125465495Y-94478591D01*
X125467388Y-94483162D01*
X125467389Y-94483164D01*
X125551415Y-94686020D01*
X125562384Y-94712502D01*
X125694672Y-94928376D01*
X125859102Y-95120898D01*
X126051624Y-95285328D01*
X126267498Y-95417616D01*
X126272068Y-95419509D01*
X126272072Y-95419511D01*
X126475451Y-95503753D01*
X126501409Y-95514505D01*
X126564018Y-95529536D01*
X126742784Y-95572454D01*
X126742790Y-95572455D01*
X126747597Y-95573609D01*
X126847416Y-95581465D01*
X126934345Y-95588307D01*
X126934352Y-95588307D01*
X126936801Y-95588500D01*
X127063199Y-95588500D01*
X127065648Y-95588307D01*
X127065655Y-95588307D01*
X127152584Y-95581465D01*
X127252403Y-95573609D01*
X127257210Y-95572455D01*
X127257216Y-95572454D01*
X127435982Y-95529536D01*
X127498591Y-95514505D01*
X127524549Y-95503753D01*
X127727928Y-95419511D01*
X127727932Y-95419509D01*
X127732502Y-95417616D01*
X127948376Y-95285328D01*
X128140898Y-95120898D01*
X128305328Y-94928376D01*
X128437616Y-94712502D01*
X128448586Y-94686020D01*
X128532611Y-94483164D01*
X128532612Y-94483162D01*
X128534505Y-94478591D01*
X128558794Y-94377418D01*
X128592454Y-94237216D01*
X128592455Y-94237210D01*
X128593609Y-94232403D01*
X128613474Y-93980000D01*
X128593609Y-93727597D01*
X128592379Y-93722470D01*
X128547641Y-93536124D01*
X128534505Y-93481409D01*
X128532611Y-93476836D01*
X128439511Y-93252072D01*
X128439509Y-93252068D01*
X128437616Y-93247498D01*
X128305328Y-93031624D01*
X128140898Y-92839102D01*
X127948376Y-92674672D01*
X127732502Y-92542384D01*
X127727932Y-92540491D01*
X127727928Y-92540489D01*
X127503164Y-92447389D01*
X127503162Y-92447388D01*
X127498591Y-92445495D01*
X127400864Y-92422033D01*
X127257216Y-92387546D01*
X127257210Y-92387545D01*
X127252403Y-92386391D01*
X127152584Y-92378535D01*
X127065655Y-92371693D01*
X127065648Y-92371693D01*
X127063199Y-92371500D01*
X126936801Y-92371500D01*
X126934352Y-92371693D01*
X126934345Y-92371693D01*
X126847416Y-92378535D01*
X126747597Y-92386391D01*
X126742790Y-92387545D01*
X126742784Y-92387546D01*
X126599136Y-92422033D01*
X126501409Y-92445495D01*
X126496838Y-92447388D01*
X126496836Y-92447389D01*
X126272072Y-92540489D01*
X126272068Y-92540491D01*
X126267498Y-92542384D01*
X126051624Y-92674672D01*
X125859102Y-92839102D01*
X125694672Y-93031624D01*
X125562384Y-93247498D01*
X125560491Y-93252068D01*
X125560489Y-93252072D01*
X125467389Y-93476836D01*
X125465495Y-93481409D01*
X125452359Y-93536124D01*
X125407622Y-93722470D01*
X125406391Y-93727597D01*
X125386526Y-93980000D01*
X101351000Y-93980000D01*
X101351000Y-93852000D01*
X101371002Y-93783879D01*
X101424658Y-93737386D01*
X101477000Y-93726000D01*
X102923344Y-93726000D01*
X102936875Y-93722027D01*
X102938180Y-93712947D01*
X102896214Y-93545875D01*
X102892894Y-93536124D01*
X102807972Y-93340814D01*
X102803105Y-93331739D01*
X102687426Y-93152926D01*
X102681136Y-93144757D01*
X102537806Y-92987240D01*
X102530273Y-92980215D01*
X102363139Y-92848222D01*
X102354552Y-92842517D01*
X102168117Y-92739599D01*
X102158702Y-92735367D01*
X102145728Y-92730773D01*
X102088191Y-92689180D01*
X102062275Y-92623082D01*
X102076208Y-92553466D01*
X102125567Y-92502434D01*
X102187787Y-92486000D01*
X103983905Y-92486000D01*
X104052026Y-92506002D01*
X104073001Y-92522905D01*
X104652353Y-93102258D01*
X104659887Y-93110537D01*
X104664000Y-93117018D01*
X104713651Y-93163643D01*
X104716493Y-93166398D01*
X104736230Y-93186135D01*
X104739427Y-93188615D01*
X104748447Y-93196318D01*
X104780679Y-93226586D01*
X104787625Y-93230405D01*
X104787628Y-93230407D01*
X104798434Y-93236348D01*
X104814953Y-93247199D01*
X104830959Y-93259614D01*
X104838228Y-93262759D01*
X104838232Y-93262762D01*
X104871537Y-93277174D01*
X104882187Y-93282391D01*
X104920940Y-93303695D01*
X104928615Y-93305666D01*
X104928616Y-93305666D01*
X104940562Y-93308733D01*
X104959081Y-93315057D01*
X104959335Y-93315167D01*
X105013981Y-93360489D01*
X105035450Y-93428162D01*
X105024852Y-93481528D01*
X104985146Y-93571980D01*
X104981578Y-93582582D01*
X104951376Y-93708384D01*
X104952081Y-93722470D01*
X104960960Y-93726000D01*
X108398411Y-93726000D01*
X108412393Y-93721895D01*
X108413886Y-93712272D01*
X108413835Y-93712030D01*
X108350620Y-93506550D01*
X108349708Y-93435559D01*
X108387320Y-93375344D01*
X108451517Y-93345023D01*
X108471050Y-93343500D01*
X110480527Y-93343500D01*
X110548648Y-93363502D01*
X110595141Y-93417158D01*
X110605245Y-93487432D01*
X110595901Y-93520145D01*
X110573143Y-93571990D01*
X110569578Y-93582582D01*
X110539376Y-93708384D01*
X110540081Y-93722470D01*
X110548960Y-93726000D01*
X113986411Y-93726000D01*
X114000393Y-93721895D01*
X114001886Y-93712272D01*
X114001834Y-93712027D01*
X113939102Y-93508116D01*
X113934879Y-93497767D01*
X113928994Y-93486366D01*
X113915523Y-93416659D01*
X113941877Y-93350735D01*
X114005806Y-93307577D01*
X114011865Y-93305817D01*
X114045593Y-93296018D01*
X114052412Y-93291985D01*
X114052417Y-93291983D01*
X114063028Y-93285707D01*
X114080776Y-93277012D01*
X114099617Y-93269552D01*
X114135387Y-93243564D01*
X114145307Y-93237048D01*
X114176535Y-93218580D01*
X114176538Y-93218578D01*
X114183362Y-93214542D01*
X114197683Y-93200221D01*
X114212717Y-93187380D01*
X114218290Y-93183331D01*
X114229107Y-93175472D01*
X114257298Y-93141395D01*
X114265288Y-93132616D01*
X115287499Y-92110405D01*
X115349811Y-92076379D01*
X115376594Y-92073500D01*
X116193553Y-92073500D01*
X116261674Y-92093502D01*
X116293515Y-92122796D01*
X116422461Y-92290841D01*
X116422465Y-92290845D01*
X116425877Y-92295292D01*
X116592036Y-92446485D01*
X116596783Y-92449463D01*
X116596786Y-92449465D01*
X116733533Y-92535245D01*
X116782344Y-92565864D01*
X116850378Y-92593214D01*
X116906120Y-92637178D01*
X116929245Y-92704303D01*
X116912408Y-92773274D01*
X116857624Y-92823845D01*
X116718097Y-92890397D01*
X116708484Y-92896082D01*
X116535233Y-93020575D01*
X116526767Y-93027883D01*
X116378308Y-93181082D01*
X116371265Y-93189779D01*
X116252281Y-93366844D01*
X116246895Y-93376642D01*
X116161143Y-93571990D01*
X116157578Y-93582582D01*
X116127376Y-93708384D01*
X116128081Y-93722470D01*
X116136960Y-93726000D01*
X119574411Y-93726000D01*
X119588393Y-93721895D01*
X119589886Y-93712272D01*
X119589834Y-93712027D01*
X119527102Y-93508117D01*
X119522881Y-93497771D01*
X119425029Y-93308186D01*
X119419043Y-93298755D01*
X119289168Y-93129499D01*
X119281607Y-93121276D01*
X119123806Y-92977688D01*
X119114906Y-92970933D01*
X118934185Y-92857566D01*
X118924219Y-92852489D01*
X118861642Y-92827333D01*
X118805897Y-92783367D01*
X118782772Y-92716242D01*
X118799609Y-92647271D01*
X118854393Y-92596700D01*
X118914664Y-92567952D01*
X118999218Y-92527622D01*
X119181654Y-92396529D01*
X119322684Y-92250998D01*
X119334089Y-92239229D01*
X119334091Y-92239226D01*
X119337992Y-92235201D01*
X119455137Y-92060871D01*
X119460164Y-92053390D01*
X119463290Y-92048738D01*
X119553588Y-91843033D01*
X119606032Y-91624589D01*
X119610879Y-91540525D01*
X119618640Y-91405917D01*
X119618640Y-91405914D01*
X119618963Y-91400310D01*
X119591975Y-91177285D01*
X119525918Y-90962565D01*
X119523337Y-90957563D01*
X119425454Y-90767919D01*
X119425454Y-90767918D01*
X119422882Y-90762936D01*
X119286123Y-90584708D01*
X119119964Y-90433515D01*
X119115217Y-90430537D01*
X119115214Y-90430535D01*
X119052568Y-90391238D01*
X119005491Y-90338094D01*
X118994618Y-90267935D01*
X119023402Y-90203035D01*
X119082704Y-90164000D01*
X119119524Y-90158500D01*
X119154134Y-90158500D01*
X119216316Y-90151745D01*
X119352705Y-90100615D01*
X119469261Y-90013261D01*
X119556615Y-89896705D01*
X119607745Y-89760316D01*
X119614500Y-89698134D01*
X119614500Y-88101866D01*
X119607745Y-88039684D01*
X119573994Y-87949654D01*
X124505618Y-87949654D01*
X124512673Y-87959627D01*
X124543679Y-87985551D01*
X124550598Y-87990579D01*
X124775272Y-88131515D01*
X124782807Y-88135556D01*
X125024520Y-88244694D01*
X125032551Y-88247680D01*
X125286832Y-88323002D01*
X125295184Y-88324869D01*
X125557340Y-88364984D01*
X125565874Y-88365700D01*
X125831045Y-88369867D01*
X125839596Y-88369418D01*
X126102883Y-88337557D01*
X126111284Y-88335955D01*
X126367824Y-88268653D01*
X126375926Y-88265926D01*
X126620949Y-88164434D01*
X126628617Y-88160628D01*
X126857598Y-88026822D01*
X126864679Y-88022009D01*
X126944655Y-87959301D01*
X126953125Y-87947442D01*
X126946608Y-87935818D01*
X125742812Y-86732022D01*
X125728868Y-86724408D01*
X125727035Y-86724539D01*
X125720420Y-86728790D01*
X124512910Y-87936300D01*
X124505618Y-87949654D01*
X119573994Y-87949654D01*
X119556615Y-87903295D01*
X119469261Y-87786739D01*
X119352705Y-87699385D01*
X119216316Y-87648255D01*
X119154134Y-87641500D01*
X116557866Y-87641500D01*
X116495684Y-87648255D01*
X116359295Y-87699385D01*
X116242739Y-87786739D01*
X116155385Y-87903295D01*
X116104255Y-88039684D01*
X116097500Y-88101866D01*
X116097500Y-88140500D01*
X116077498Y-88208621D01*
X116023842Y-88255114D01*
X115971500Y-88266500D01*
X114152500Y-88266500D01*
X114084379Y-88246498D01*
X114037886Y-88192842D01*
X114026500Y-88140500D01*
X114026500Y-88101866D01*
X114019745Y-88039684D01*
X113968615Y-87903295D01*
X113881261Y-87786739D01*
X113764705Y-87699385D01*
X113628316Y-87648255D01*
X113566134Y-87641500D01*
X110969866Y-87641500D01*
X110907684Y-87648255D01*
X110771295Y-87699385D01*
X110654739Y-87786739D01*
X110567385Y-87903295D01*
X110516255Y-88039684D01*
X110509500Y-88101866D01*
X110509500Y-88140500D01*
X110489498Y-88208621D01*
X110435842Y-88255114D01*
X110383500Y-88266500D01*
X108564500Y-88266500D01*
X108496379Y-88246498D01*
X108449886Y-88192842D01*
X108438500Y-88140500D01*
X108438500Y-88101866D01*
X108431745Y-88039684D01*
X108380615Y-87903295D01*
X108293261Y-87786739D01*
X108176705Y-87699385D01*
X108040316Y-87648255D01*
X107978134Y-87641500D01*
X105381866Y-87641500D01*
X105319684Y-87648255D01*
X105183295Y-87699385D01*
X105066739Y-87786739D01*
X104979385Y-87903295D01*
X104928255Y-88039684D01*
X104921500Y-88101866D01*
X104921500Y-88140500D01*
X104901498Y-88208621D01*
X104847842Y-88255114D01*
X104795500Y-88266500D01*
X103832200Y-88266500D01*
X103764079Y-88246498D01*
X103744853Y-88230157D01*
X103744580Y-88230460D01*
X103739668Y-88226037D01*
X103735253Y-88221134D01*
X103696313Y-88192842D01*
X103586094Y-88112763D01*
X103586093Y-88112762D01*
X103580752Y-88108882D01*
X103574724Y-88106198D01*
X103574722Y-88106197D01*
X103412319Y-88033891D01*
X103412318Y-88033891D01*
X103406288Y-88031206D01*
X103312887Y-88011353D01*
X103225944Y-87992872D01*
X103225939Y-87992872D01*
X103219487Y-87991500D01*
X103028513Y-87991500D01*
X103022061Y-87992872D01*
X103022056Y-87992872D01*
X102935113Y-88011353D01*
X102841712Y-88031206D01*
X102835682Y-88033891D01*
X102835681Y-88033891D01*
X102673278Y-88106197D01*
X102673276Y-88106198D01*
X102667248Y-88108882D01*
X102661907Y-88112762D01*
X102661906Y-88112763D01*
X102627859Y-88137500D01*
X102512747Y-88221134D01*
X102508326Y-88226044D01*
X102508325Y-88226045D01*
X102410937Y-88334206D01*
X102384960Y-88363056D01*
X102357102Y-88411308D01*
X102297363Y-88514779D01*
X102289473Y-88528444D01*
X102287432Y-88534726D01*
X102250225Y-88649235D01*
X102210151Y-88707840D01*
X102144754Y-88735477D01*
X102074797Y-88723370D01*
X102041297Y-88699393D01*
X101283699Y-87941794D01*
X100362652Y-87020747D01*
X100355112Y-87012461D01*
X100351000Y-87005982D01*
X100325034Y-86981598D01*
X100301349Y-86959357D01*
X100298507Y-86956602D01*
X100278770Y-86936865D01*
X100275573Y-86934385D01*
X100266551Y-86926680D01*
X100258604Y-86919217D01*
X100234321Y-86896414D01*
X100227375Y-86892595D01*
X100227372Y-86892593D01*
X100216566Y-86886652D01*
X100200047Y-86875801D01*
X100198453Y-86874565D01*
X100184041Y-86863386D01*
X100176772Y-86860241D01*
X100176768Y-86860238D01*
X100143463Y-86845826D01*
X100132813Y-86840609D01*
X100094060Y-86819305D01*
X100074437Y-86814267D01*
X100055734Y-86807863D01*
X100044420Y-86802967D01*
X100044419Y-86802967D01*
X100037145Y-86799819D01*
X100029322Y-86798580D01*
X100029312Y-86798577D01*
X99993476Y-86792901D01*
X99981856Y-86790495D01*
X99946711Y-86781472D01*
X99946710Y-86781472D01*
X99939030Y-86779500D01*
X99918776Y-86779500D01*
X99899065Y-86777949D01*
X99886886Y-86776020D01*
X99879057Y-86774780D01*
X99849786Y-86777547D01*
X99835039Y-86778941D01*
X99823181Y-86779500D01*
X95028463Y-86779500D01*
X95017280Y-86778973D01*
X95009787Y-86777298D01*
X95001861Y-86777547D01*
X95001860Y-86777547D01*
X94941697Y-86779438D01*
X94937739Y-86779500D01*
X94909839Y-86779500D01*
X94905849Y-86780004D01*
X94894015Y-86780936D01*
X94849806Y-86782326D01*
X94842190Y-86784539D01*
X94842188Y-86784539D01*
X94830347Y-86787979D01*
X94810988Y-86791988D01*
X94809678Y-86792154D01*
X94790898Y-86794526D01*
X94783532Y-86797442D01*
X94783526Y-86797444D01*
X94749793Y-86810800D01*
X94738563Y-86814645D01*
X94722523Y-86819305D01*
X94696102Y-86826981D01*
X94689279Y-86831016D01*
X94678661Y-86837295D01*
X94660908Y-86845992D01*
X94653263Y-86849019D01*
X94642078Y-86853448D01*
X94631085Y-86861435D01*
X94606307Y-86879437D01*
X94596390Y-86885951D01*
X94558333Y-86908458D01*
X94544012Y-86922779D01*
X94528979Y-86935619D01*
X94512588Y-86947528D01*
X94507535Y-86953636D01*
X94484403Y-86981598D01*
X94476413Y-86990378D01*
X94274196Y-87192595D01*
X94211884Y-87226621D01*
X94185101Y-87229500D01*
X94138513Y-87229500D01*
X94132061Y-87230872D01*
X94132056Y-87230872D01*
X94064279Y-87245279D01*
X93951712Y-87269206D01*
X93945682Y-87271891D01*
X93945681Y-87271891D01*
X93783278Y-87344197D01*
X93783276Y-87344198D01*
X93777248Y-87346882D01*
X93771907Y-87350762D01*
X93771906Y-87350763D01*
X93734020Y-87378289D01*
X93622747Y-87459134D01*
X93618326Y-87464044D01*
X93618325Y-87464045D01*
X93540257Y-87550749D01*
X93494960Y-87601056D01*
X93399473Y-87766444D01*
X93340458Y-87948072D01*
X93339768Y-87954633D01*
X93339768Y-87954635D01*
X93331720Y-88031206D01*
X93320496Y-88138000D01*
X93321186Y-88144565D01*
X93339716Y-88320865D01*
X93340458Y-88327928D01*
X93399473Y-88509556D01*
X93402776Y-88515278D01*
X93402777Y-88515279D01*
X93409324Y-88526619D01*
X93494960Y-88674944D01*
X93568137Y-88756215D01*
X93598853Y-88820221D01*
X93600500Y-88840524D01*
X93600500Y-90599233D01*
X93599973Y-90610416D01*
X93598298Y-90617909D01*
X93598547Y-90625835D01*
X93598547Y-90625836D01*
X93600438Y-90685986D01*
X93600500Y-90689945D01*
X93600500Y-90717856D01*
X93600997Y-90721790D01*
X93600997Y-90721791D01*
X93601005Y-90721856D01*
X93601938Y-90733693D01*
X93603327Y-90777889D01*
X93608978Y-90797339D01*
X93612987Y-90816700D01*
X93615526Y-90836797D01*
X93618445Y-90844168D01*
X93618445Y-90844170D01*
X93631804Y-90877912D01*
X93635649Y-90889142D01*
X93640671Y-90906427D01*
X93647982Y-90931593D01*
X93658292Y-90949025D01*
X93666991Y-90966781D01*
X93674448Y-90985617D01*
X93679110Y-90992033D01*
X93679110Y-90992034D01*
X93700436Y-91021387D01*
X93706952Y-91031307D01*
X93724739Y-91061382D01*
X93729458Y-91069362D01*
X93743779Y-91083683D01*
X93756619Y-91098716D01*
X93768528Y-91115107D01*
X93774634Y-91120158D01*
X93802605Y-91143298D01*
X93811384Y-91151288D01*
X94904848Y-92244753D01*
X94912388Y-92253039D01*
X94916500Y-92259518D01*
X94922277Y-92264943D01*
X94966151Y-92306143D01*
X94968993Y-92308898D01*
X94988730Y-92328635D01*
X94991927Y-92331115D01*
X95000947Y-92338818D01*
X95033179Y-92369086D01*
X95040125Y-92372905D01*
X95040128Y-92372907D01*
X95050934Y-92378848D01*
X95067453Y-92389699D01*
X95083459Y-92402114D01*
X95090728Y-92405259D01*
X95090732Y-92405262D01*
X95124037Y-92419674D01*
X95134686Y-92424890D01*
X95173440Y-92446195D01*
X95181115Y-92448166D01*
X95181116Y-92448166D01*
X95193062Y-92451233D01*
X95211766Y-92457637D01*
X95211769Y-92457638D01*
X95230355Y-92465681D01*
X95238178Y-92466920D01*
X95238188Y-92466923D01*
X95274024Y-92472599D01*
X95285644Y-92475005D01*
X95320789Y-92484028D01*
X95328470Y-92486000D01*
X95348724Y-92486000D01*
X95368434Y-92487551D01*
X95388443Y-92490720D01*
X95396335Y-92489974D01*
X95432461Y-92486559D01*
X95444319Y-92486000D01*
X95811800Y-92486000D01*
X95879921Y-92506002D01*
X95899147Y-92522343D01*
X95899420Y-92522040D01*
X95904332Y-92526462D01*
X95908747Y-92531366D01*
X95934706Y-92550227D01*
X95978060Y-92606447D01*
X95984136Y-92677183D01*
X95951004Y-92739975D01*
X95918827Y-92763925D01*
X95798607Y-92826507D01*
X95794474Y-92829610D01*
X95794471Y-92829612D01*
X95624100Y-92957530D01*
X95619965Y-92960635D01*
X95616393Y-92964373D01*
X95508729Y-93077037D01*
X95465629Y-93122138D01*
X95358201Y-93279621D01*
X95303293Y-93324621D01*
X95232768Y-93332792D01*
X95169021Y-93301538D01*
X95148324Y-93277054D01*
X95067822Y-93152617D01*
X95067820Y-93152614D01*
X95065014Y-93148277D01*
X94914670Y-92983051D01*
X94910619Y-92979852D01*
X94910615Y-92979848D01*
X94743414Y-92847800D01*
X94743410Y-92847798D01*
X94739359Y-92844598D01*
X94708084Y-92827333D01*
X94687136Y-92815769D01*
X94543789Y-92736638D01*
X94538920Y-92734914D01*
X94538916Y-92734912D01*
X94338087Y-92663795D01*
X94338083Y-92663794D01*
X94333212Y-92662069D01*
X94328119Y-92661162D01*
X94328116Y-92661161D01*
X94118373Y-92623800D01*
X94118367Y-92623799D01*
X94113284Y-92622894D01*
X94039452Y-92621992D01*
X93895081Y-92620228D01*
X93895079Y-92620228D01*
X93889911Y-92620165D01*
X93669091Y-92653955D01*
X93456756Y-92723357D01*
X93424833Y-92739975D01*
X93263721Y-92823845D01*
X93258607Y-92826507D01*
X93254474Y-92829610D01*
X93254471Y-92829612D01*
X93084100Y-92957530D01*
X93079965Y-92960635D01*
X93008100Y-93035838D01*
X92999283Y-93045064D01*
X92937759Y-93080494D01*
X92866846Y-93077037D01*
X92809060Y-93035791D01*
X92790207Y-93002243D01*
X92748767Y-92891703D01*
X92745615Y-92883295D01*
X92658261Y-92766739D01*
X92541705Y-92679385D01*
X92405316Y-92628255D01*
X92343134Y-92621500D01*
X90546866Y-92621500D01*
X90484684Y-92628255D01*
X90348295Y-92679385D01*
X90231739Y-92766739D01*
X90144385Y-92883295D01*
X90093255Y-93019684D01*
X90086500Y-93081866D01*
X90086500Y-94878134D01*
X87382690Y-94878134D01*
X87394052Y-94866812D01*
X87400730Y-94858965D01*
X87525003Y-94686020D01*
X87530313Y-94677183D01*
X87624670Y-94486267D01*
X87628469Y-94476672D01*
X87690377Y-94272910D01*
X87692555Y-94262837D01*
X87693986Y-94251962D01*
X87691775Y-94237778D01*
X87678617Y-94234000D01*
X86632115Y-94234000D01*
X86616876Y-94238475D01*
X86615671Y-94239865D01*
X86614000Y-94247548D01*
X86614000Y-95298517D01*
X86106000Y-95298517D01*
X86106000Y-93707885D01*
X86614000Y-93707885D01*
X86618475Y-93723124D01*
X86619865Y-93724329D01*
X86627548Y-93726000D01*
X87678344Y-93726000D01*
X87691875Y-93722027D01*
X87693180Y-93712947D01*
X87651214Y-93545875D01*
X87647894Y-93536124D01*
X87562972Y-93340814D01*
X87558105Y-93331739D01*
X87442426Y-93152926D01*
X87436136Y-93144757D01*
X87292806Y-92987240D01*
X87285273Y-92980215D01*
X87118139Y-92848222D01*
X87109552Y-92842517D01*
X86923117Y-92739599D01*
X86913705Y-92735369D01*
X86712959Y-92664280D01*
X86702988Y-92661646D01*
X86631837Y-92648972D01*
X86618540Y-92650432D01*
X86614000Y-92664989D01*
X86614000Y-93707885D01*
X86106000Y-93707885D01*
X86106000Y-92663102D01*
X86102082Y-92649758D01*
X86087806Y-92647771D01*
X86049324Y-92653660D01*
X86039288Y-92656051D01*
X85836868Y-92722212D01*
X85827359Y-92726209D01*
X85638463Y-92824542D01*
X85629738Y-92830036D01*
X85459433Y-92957905D01*
X85451726Y-92964748D01*
X85304590Y-93118717D01*
X85298109Y-93126722D01*
X85193498Y-93280074D01*
X85138587Y-93325076D01*
X85068062Y-93333247D01*
X85004315Y-93301993D01*
X84983618Y-93277509D01*
X84902822Y-93152617D01*
X84902820Y-93152614D01*
X84900014Y-93148277D01*
X84749670Y-92983051D01*
X84745619Y-92979852D01*
X84745615Y-92979848D01*
X84578414Y-92847800D01*
X84578410Y-92847798D01*
X84574359Y-92844598D01*
X84543084Y-92827333D01*
X84522136Y-92815769D01*
X84378789Y-92736638D01*
X84373920Y-92734914D01*
X84373916Y-92734912D01*
X84173087Y-92663795D01*
X84173083Y-92663794D01*
X84168212Y-92662069D01*
X84163119Y-92661162D01*
X84163116Y-92661161D01*
X83953373Y-92623800D01*
X83953367Y-92623799D01*
X83948284Y-92622894D01*
X83874452Y-92621992D01*
X83730081Y-92620228D01*
X83730079Y-92620228D01*
X83724911Y-92620165D01*
X83504091Y-92653955D01*
X83291756Y-92723357D01*
X83259833Y-92739975D01*
X83098721Y-92823845D01*
X83093607Y-92826507D01*
X83089474Y-92829610D01*
X83089471Y-92829612D01*
X82919100Y-92957530D01*
X82914965Y-92960635D01*
X82843100Y-93035838D01*
X82834283Y-93045064D01*
X82772759Y-93080494D01*
X82701846Y-93077037D01*
X82644060Y-93035791D01*
X82625207Y-93002243D01*
X82583767Y-92891703D01*
X82580615Y-92883295D01*
X82493261Y-92766739D01*
X82376705Y-92679385D01*
X82240316Y-92628255D01*
X82178134Y-92621500D01*
X80381866Y-92621500D01*
X80319684Y-92628255D01*
X80183295Y-92679385D01*
X80066739Y-92766739D01*
X79979385Y-92883295D01*
X79928255Y-93019684D01*
X79921500Y-93081866D01*
X79921500Y-94878134D01*
X76266116Y-94878134D01*
X76367616Y-94712502D01*
X76378586Y-94686020D01*
X76462611Y-94483164D01*
X76462612Y-94483162D01*
X76464505Y-94478591D01*
X76488794Y-94377418D01*
X76522454Y-94237216D01*
X76522455Y-94237210D01*
X76523609Y-94232403D01*
X76543474Y-93980000D01*
X76523609Y-93727597D01*
X76522379Y-93722470D01*
X76477641Y-93536124D01*
X76464505Y-93481409D01*
X76462611Y-93476836D01*
X76369511Y-93252072D01*
X76369509Y-93252068D01*
X76367616Y-93247498D01*
X76235328Y-93031624D01*
X76070898Y-92839102D01*
X75878376Y-92674672D01*
X75662502Y-92542384D01*
X75657932Y-92540491D01*
X75657928Y-92540489D01*
X75433164Y-92447389D01*
X75433162Y-92447388D01*
X75428591Y-92445495D01*
X75330864Y-92422033D01*
X75187216Y-92387546D01*
X75187210Y-92387545D01*
X75182403Y-92386391D01*
X75082584Y-92378535D01*
X74995655Y-92371693D01*
X74995648Y-92371693D01*
X74993199Y-92371500D01*
X74866801Y-92371500D01*
X74864352Y-92371693D01*
X74864345Y-92371693D01*
X74777416Y-92378535D01*
X74677597Y-92386391D01*
X74672790Y-92387545D01*
X74672784Y-92387546D01*
X74529136Y-92422033D01*
X74431409Y-92445495D01*
X74426838Y-92447388D01*
X74426836Y-92447389D01*
X74202072Y-92540489D01*
X74202068Y-92540491D01*
X74197498Y-92542384D01*
X73981624Y-92674672D01*
X73789102Y-92839102D01*
X73624672Y-93031624D01*
X73492384Y-93247498D01*
X73490491Y-93252068D01*
X73490489Y-93252072D01*
X73397389Y-93476836D01*
X73395495Y-93481409D01*
X73382359Y-93536124D01*
X73337622Y-93722470D01*
X73336391Y-93727597D01*
X73316526Y-93980000D01*
X72898500Y-93980000D01*
X72898500Y-88405768D01*
X74131425Y-88405768D01*
X74163138Y-88513521D01*
X74167731Y-88524889D01*
X74253607Y-88689154D01*
X74260321Y-88699415D01*
X74376468Y-88843873D01*
X74385046Y-88852632D01*
X74527039Y-88971778D01*
X74537159Y-88978708D01*
X74699585Y-89068002D01*
X74710858Y-89072834D01*
X74887538Y-89128880D01*
X74899532Y-89131430D01*
X75043761Y-89147607D01*
X75050785Y-89148000D01*
X75131885Y-89148000D01*
X75147124Y-89143525D01*
X75148329Y-89142135D01*
X75150000Y-89134452D01*
X75150000Y-89129885D01*
X75658000Y-89129885D01*
X75662475Y-89145124D01*
X75663865Y-89146329D01*
X75671548Y-89148000D01*
X75750657Y-89148000D01*
X75756805Y-89147699D01*
X75894603Y-89134188D01*
X75906638Y-89131805D01*
X76084076Y-89078233D01*
X76095416Y-89073559D01*
X76259077Y-88986540D01*
X76269294Y-88979751D01*
X76412933Y-88862603D01*
X76421637Y-88853959D01*
X76539784Y-88711144D01*
X76546644Y-88700973D01*
X76634804Y-88537924D01*
X76639556Y-88526619D01*
X76675250Y-88411308D01*
X76675331Y-88405768D01*
X78061425Y-88405768D01*
X78093138Y-88513521D01*
X78097731Y-88524889D01*
X78183607Y-88689154D01*
X78190321Y-88699415D01*
X78306468Y-88843873D01*
X78315046Y-88852632D01*
X78457039Y-88971778D01*
X78467159Y-88978708D01*
X78629585Y-89068002D01*
X78640858Y-89072834D01*
X78817538Y-89128880D01*
X78829532Y-89131430D01*
X78973761Y-89147607D01*
X78980785Y-89148000D01*
X79311885Y-89148000D01*
X79327124Y-89143525D01*
X79328329Y-89142135D01*
X79330000Y-89134452D01*
X79330000Y-89129885D01*
X79838000Y-89129885D01*
X79842475Y-89145124D01*
X79843865Y-89146329D01*
X79851548Y-89148000D01*
X80180657Y-89148000D01*
X80186805Y-89147699D01*
X80324603Y-89134188D01*
X80336638Y-89131805D01*
X80514076Y-89078233D01*
X80525416Y-89073559D01*
X80689077Y-88986540D01*
X80699294Y-88979751D01*
X80842933Y-88862603D01*
X80851637Y-88853959D01*
X80969784Y-88711144D01*
X80976644Y-88700973D01*
X81064804Y-88537924D01*
X81069556Y-88526619D01*
X81105250Y-88411308D01*
X81105456Y-88397205D01*
X81098701Y-88394000D01*
X79856115Y-88394000D01*
X79840876Y-88398475D01*
X79839671Y-88399865D01*
X79838000Y-88407548D01*
X79838000Y-89129885D01*
X79330000Y-89129885D01*
X79330000Y-88412115D01*
X79325525Y-88396876D01*
X79324135Y-88395671D01*
X79316452Y-88394000D01*
X78076076Y-88394000D01*
X78062545Y-88397973D01*
X78061425Y-88405768D01*
X76675331Y-88405768D01*
X76675456Y-88397205D01*
X76668701Y-88394000D01*
X75676115Y-88394000D01*
X75660876Y-88398475D01*
X75659671Y-88399865D01*
X75658000Y-88407548D01*
X75658000Y-89129885D01*
X75150000Y-89129885D01*
X75150000Y-88412115D01*
X75145525Y-88396876D01*
X75144135Y-88395671D01*
X75136452Y-88394000D01*
X74146076Y-88394000D01*
X74132545Y-88397973D01*
X74131425Y-88405768D01*
X72898500Y-88405768D01*
X72898500Y-87882795D01*
X74132544Y-87882795D01*
X74139299Y-87886000D01*
X75131885Y-87886000D01*
X75147124Y-87881525D01*
X75148329Y-87880135D01*
X75150000Y-87872452D01*
X75150000Y-87867885D01*
X75658000Y-87867885D01*
X75662475Y-87883124D01*
X75663865Y-87884329D01*
X75671548Y-87886000D01*
X76661924Y-87886000D01*
X76672839Y-87882795D01*
X78062544Y-87882795D01*
X78069299Y-87886000D01*
X81091924Y-87886000D01*
X81105455Y-87882027D01*
X81106575Y-87874232D01*
X81074862Y-87766479D01*
X81070269Y-87755111D01*
X80984393Y-87590846D01*
X80977679Y-87580585D01*
X80869424Y-87445943D01*
X89695780Y-87445943D01*
X89696526Y-87453835D01*
X89699941Y-87489961D01*
X89700500Y-87501819D01*
X89700500Y-89140733D01*
X89699973Y-89151916D01*
X89698298Y-89159409D01*
X89698547Y-89167335D01*
X89698547Y-89167336D01*
X89700438Y-89227486D01*
X89700500Y-89231445D01*
X89700500Y-89259356D01*
X89700997Y-89263290D01*
X89700997Y-89263291D01*
X89701005Y-89263356D01*
X89701938Y-89275193D01*
X89703327Y-89319389D01*
X89708978Y-89338839D01*
X89712987Y-89358200D01*
X89715526Y-89378297D01*
X89718445Y-89385668D01*
X89718445Y-89385670D01*
X89731804Y-89419412D01*
X89735649Y-89430642D01*
X89747982Y-89473093D01*
X89752015Y-89479912D01*
X89752017Y-89479917D01*
X89758293Y-89490528D01*
X89766988Y-89508276D01*
X89774448Y-89527117D01*
X89779110Y-89533533D01*
X89779110Y-89533534D01*
X89800436Y-89562887D01*
X89806952Y-89572807D01*
X89817936Y-89591379D01*
X89829458Y-89610862D01*
X89843779Y-89625183D01*
X89856619Y-89640216D01*
X89868528Y-89656607D01*
X89874634Y-89661658D01*
X89902605Y-89684798D01*
X89911384Y-89692788D01*
X90492878Y-90274282D01*
X90526904Y-90336594D01*
X90529092Y-90350203D01*
X90546458Y-90515428D01*
X90605473Y-90697056D01*
X90608776Y-90702778D01*
X90608777Y-90702779D01*
X90615193Y-90713892D01*
X90700960Y-90862444D01*
X90705378Y-90867351D01*
X90705379Y-90867352D01*
X90785915Y-90956796D01*
X90828747Y-91004366D01*
X90912564Y-91065263D01*
X90972342Y-91108694D01*
X90983248Y-91116618D01*
X90989276Y-91119302D01*
X90989278Y-91119303D01*
X91119509Y-91177285D01*
X91157712Y-91194294D01*
X91251112Y-91214147D01*
X91338056Y-91232628D01*
X91338061Y-91232628D01*
X91344513Y-91234000D01*
X91535487Y-91234000D01*
X91541939Y-91232628D01*
X91541944Y-91232628D01*
X91628888Y-91214147D01*
X91722288Y-91194294D01*
X91760491Y-91177285D01*
X91890722Y-91119303D01*
X91890724Y-91119302D01*
X91896752Y-91116618D01*
X91907659Y-91108694D01*
X91967436Y-91065263D01*
X92051253Y-91004366D01*
X92094085Y-90956796D01*
X92174621Y-90867352D01*
X92174622Y-90867351D01*
X92179040Y-90862444D01*
X92264807Y-90713892D01*
X92271223Y-90702779D01*
X92271224Y-90702778D01*
X92274527Y-90697056D01*
X92333542Y-90515428D01*
X92353504Y-90325500D01*
X92351830Y-90309574D01*
X92334232Y-90142135D01*
X92334232Y-90142133D01*
X92333542Y-90135572D01*
X92274527Y-89953944D01*
X92179040Y-89788556D01*
X92151129Y-89757557D01*
X92055675Y-89651545D01*
X92055674Y-89651544D01*
X92051253Y-89646634D01*
X91949639Y-89572807D01*
X91902094Y-89538263D01*
X91902093Y-89538262D01*
X91896752Y-89534382D01*
X91890724Y-89531698D01*
X91890722Y-89531697D01*
X91728319Y-89459391D01*
X91728318Y-89459391D01*
X91722288Y-89456706D01*
X91628887Y-89436853D01*
X91541944Y-89418372D01*
X91541939Y-89418372D01*
X91535487Y-89417000D01*
X91479595Y-89417000D01*
X91411474Y-89396998D01*
X91390500Y-89380095D01*
X91004405Y-88994000D01*
X90970379Y-88931688D01*
X90967500Y-88904905D01*
X90967500Y-87891284D01*
X90987502Y-87823163D01*
X91041158Y-87776670D01*
X91067303Y-87768037D01*
X91108211Y-87759341D01*
X91214288Y-87736794D01*
X91220319Y-87734109D01*
X91382722Y-87661803D01*
X91382724Y-87661802D01*
X91388752Y-87659118D01*
X91543253Y-87546866D01*
X91582133Y-87503685D01*
X91666621Y-87409852D01*
X91666622Y-87409851D01*
X91671040Y-87404944D01*
X91766527Y-87239556D01*
X91825542Y-87057928D01*
X91826437Y-87049419D01*
X91844814Y-86874565D01*
X91845504Y-86868000D01*
X91838338Y-86799819D01*
X91826232Y-86684635D01*
X91826232Y-86684633D01*
X91825542Y-86678072D01*
X91766527Y-86496444D01*
X91760209Y-86485500D01*
X91713510Y-86404616D01*
X91678054Y-86343204D01*
X123717665Y-86343204D01*
X123732932Y-86607969D01*
X123734005Y-86616470D01*
X123785065Y-86876722D01*
X123787276Y-86884974D01*
X123873184Y-87135894D01*
X123876499Y-87143779D01*
X123995664Y-87380713D01*
X124000020Y-87388079D01*
X124129347Y-87576250D01*
X124139601Y-87584594D01*
X124153342Y-87577448D01*
X125357978Y-86372812D01*
X125364356Y-86361132D01*
X126094408Y-86361132D01*
X126094539Y-86362965D01*
X126098790Y-86369580D01*
X127305730Y-87576520D01*
X127317939Y-87583187D01*
X127329439Y-87574497D01*
X127426831Y-87441913D01*
X127431418Y-87434685D01*
X127557962Y-87201621D01*
X127561530Y-87193827D01*
X127655271Y-86945750D01*
X127657748Y-86937544D01*
X127716954Y-86679038D01*
X127718294Y-86670577D01*
X127742031Y-86404616D01*
X127742277Y-86399677D01*
X127742666Y-86362485D01*
X127742523Y-86357519D01*
X127724362Y-86091123D01*
X127723201Y-86082649D01*
X127669419Y-85822944D01*
X127667120Y-85814709D01*
X127578588Y-85564705D01*
X127575191Y-85556854D01*
X127453550Y-85321178D01*
X127449122Y-85313866D01*
X127330031Y-85144417D01*
X127319509Y-85136037D01*
X127306121Y-85143089D01*
X126102022Y-86347188D01*
X126094408Y-86361132D01*
X125364356Y-86361132D01*
X125365592Y-86358868D01*
X125365461Y-86357035D01*
X125361210Y-86350420D01*
X124153814Y-85143024D01*
X124141804Y-85136466D01*
X124130064Y-85145434D01*
X124021935Y-85295911D01*
X124017418Y-85303196D01*
X123893325Y-85537567D01*
X123889839Y-85545395D01*
X123798700Y-85794446D01*
X123796311Y-85802670D01*
X123739812Y-86061795D01*
X123738563Y-86070250D01*
X123717754Y-86334653D01*
X123717665Y-86343204D01*
X91678054Y-86343204D01*
X91671040Y-86331056D01*
X91653309Y-86311363D01*
X91547675Y-86194045D01*
X91547674Y-86194044D01*
X91543253Y-86189134D01*
X91388752Y-86076882D01*
X91382724Y-86074198D01*
X91382722Y-86074197D01*
X91220319Y-86001891D01*
X91220318Y-86001891D01*
X91214288Y-85999206D01*
X91120888Y-85979353D01*
X91033944Y-85960872D01*
X91033939Y-85960872D01*
X91027487Y-85959500D01*
X90836513Y-85959500D01*
X90830061Y-85960872D01*
X90830056Y-85960872D01*
X90743112Y-85979353D01*
X90649712Y-85999206D01*
X90643682Y-86001891D01*
X90643681Y-86001891D01*
X90481278Y-86074197D01*
X90481276Y-86074198D01*
X90475248Y-86076882D01*
X90320747Y-86189134D01*
X90316326Y-86194044D01*
X90316325Y-86194045D01*
X90210692Y-86311363D01*
X90192960Y-86331056D01*
X90150490Y-86404616D01*
X90103792Y-86485500D01*
X90097473Y-86496444D01*
X90038458Y-86678072D01*
X90037768Y-86684633D01*
X90037768Y-86684635D01*
X90033823Y-86722167D01*
X90021376Y-86840604D01*
X90021093Y-86843292D01*
X89994080Y-86908949D01*
X89984878Y-86919217D01*
X89941747Y-86962348D01*
X89933461Y-86969888D01*
X89926982Y-86974000D01*
X89921557Y-86979777D01*
X89880357Y-87023651D01*
X89877602Y-87026493D01*
X89857865Y-87046230D01*
X89855385Y-87049427D01*
X89847682Y-87058447D01*
X89817414Y-87090679D01*
X89813595Y-87097625D01*
X89813593Y-87097628D01*
X89807652Y-87108434D01*
X89796801Y-87124953D01*
X89784386Y-87140959D01*
X89781241Y-87148228D01*
X89781238Y-87148232D01*
X89766826Y-87181537D01*
X89761609Y-87192187D01*
X89740305Y-87230940D01*
X89738334Y-87238615D01*
X89738334Y-87238616D01*
X89735267Y-87250562D01*
X89728863Y-87269266D01*
X89720819Y-87287855D01*
X89719580Y-87295678D01*
X89719577Y-87295688D01*
X89713901Y-87331524D01*
X89711495Y-87343144D01*
X89709539Y-87350763D01*
X89700500Y-87385970D01*
X89700500Y-87406224D01*
X89698949Y-87425934D01*
X89695780Y-87445943D01*
X80869424Y-87445943D01*
X80861532Y-87436127D01*
X80852954Y-87427368D01*
X80710961Y-87308222D01*
X80700841Y-87301292D01*
X80538415Y-87211998D01*
X80527142Y-87207166D01*
X80350462Y-87151120D01*
X80338468Y-87148570D01*
X80194239Y-87132393D01*
X80187215Y-87132000D01*
X79969023Y-87132000D01*
X79900902Y-87111998D01*
X79854409Y-87058342D01*
X79844305Y-86988068D01*
X79852034Y-86959208D01*
X79853076Y-86956602D01*
X79861530Y-86935466D01*
X79862644Y-86928738D01*
X79862645Y-86928734D01*
X79889993Y-86763539D01*
X79889993Y-86763536D01*
X79891108Y-86756802D01*
X79889810Y-86732022D01*
X79881987Y-86582766D01*
X79881630Y-86575953D01*
X79870280Y-86534745D01*
X79835352Y-86407941D01*
X79833539Y-86401359D01*
X79811733Y-86360000D01*
X81382496Y-86360000D01*
X81383186Y-86366565D01*
X81400455Y-86530866D01*
X81402458Y-86549928D01*
X81461473Y-86731556D01*
X81464776Y-86737278D01*
X81464777Y-86737279D01*
X81496891Y-86792901D01*
X81556960Y-86896944D01*
X81561378Y-86901851D01*
X81561379Y-86901852D01*
X81671047Y-87023651D01*
X81684747Y-87038866D01*
X81748107Y-87084900D01*
X81831582Y-87145548D01*
X81839248Y-87151118D01*
X81845276Y-87153802D01*
X81845278Y-87153803D01*
X81932407Y-87192595D01*
X82013712Y-87228794D01*
X82107113Y-87248647D01*
X82194056Y-87267128D01*
X82194061Y-87267128D01*
X82200513Y-87268500D01*
X82391487Y-87268500D01*
X82397939Y-87267128D01*
X82397944Y-87267128D01*
X82484887Y-87248647D01*
X82578288Y-87228794D01*
X82659593Y-87192595D01*
X82746722Y-87153803D01*
X82746724Y-87153802D01*
X82752752Y-87151118D01*
X82760419Y-87145548D01*
X82843893Y-87084900D01*
X82907253Y-87038866D01*
X82920953Y-87023651D01*
X83030621Y-86901852D01*
X83030622Y-86901851D01*
X83035040Y-86896944D01*
X83110069Y-86766990D01*
X83161451Y-86717997D01*
X83231165Y-86704561D01*
X83270438Y-86714884D01*
X83277676Y-86718107D01*
X83277679Y-86718108D01*
X83283712Y-86720794D01*
X83301331Y-86724539D01*
X83464056Y-86759128D01*
X83464061Y-86759128D01*
X83470513Y-86760500D01*
X83661487Y-86760500D01*
X83667939Y-86759128D01*
X83667944Y-86759128D01*
X83754887Y-86740647D01*
X83848288Y-86720794D01*
X83854323Y-86718107D01*
X84016722Y-86645803D01*
X84016724Y-86645802D01*
X84022752Y-86643118D01*
X84177253Y-86530866D01*
X84181668Y-86525963D01*
X84186580Y-86521540D01*
X84187705Y-86522789D01*
X84241014Y-86489949D01*
X84274200Y-86485500D01*
X84757233Y-86485500D01*
X84768416Y-86486027D01*
X84775909Y-86487702D01*
X84783835Y-86487453D01*
X84783836Y-86487453D01*
X84843986Y-86485562D01*
X84847945Y-86485500D01*
X84875856Y-86485500D01*
X84879791Y-86485003D01*
X84879856Y-86484995D01*
X84891693Y-86484062D01*
X84923951Y-86483048D01*
X84927970Y-86482922D01*
X84935889Y-86482673D01*
X84955343Y-86477021D01*
X84974700Y-86473013D01*
X84986930Y-86471468D01*
X84986931Y-86471468D01*
X84994797Y-86470474D01*
X85002168Y-86467555D01*
X85002170Y-86467555D01*
X85035912Y-86454196D01*
X85047142Y-86450351D01*
X85081983Y-86440229D01*
X85081984Y-86440229D01*
X85089593Y-86438018D01*
X85096412Y-86433985D01*
X85096417Y-86433983D01*
X85107028Y-86427707D01*
X85124776Y-86419012D01*
X85143617Y-86411552D01*
X85179387Y-86385564D01*
X85189307Y-86379048D01*
X85220535Y-86360580D01*
X85220538Y-86360578D01*
X85227362Y-86356542D01*
X85241683Y-86342221D01*
X85256717Y-86329380D01*
X85273107Y-86317472D01*
X85278157Y-86311368D01*
X85278162Y-86311363D01*
X85301293Y-86283402D01*
X85309283Y-86274621D01*
X86244258Y-85339647D01*
X86252537Y-85332113D01*
X86259018Y-85328000D01*
X86305644Y-85278348D01*
X86308398Y-85275507D01*
X86328135Y-85255770D01*
X86330615Y-85252573D01*
X86338320Y-85243551D01*
X86368586Y-85211321D01*
X86372405Y-85204375D01*
X86372407Y-85204372D01*
X86378348Y-85193566D01*
X86389199Y-85177047D01*
X86396758Y-85167301D01*
X86401614Y-85161041D01*
X86404759Y-85153772D01*
X86404762Y-85153768D01*
X86419174Y-85120463D01*
X86424391Y-85109813D01*
X86445695Y-85071060D01*
X86450733Y-85051437D01*
X86457137Y-85032734D01*
X86462033Y-85021420D01*
X86462033Y-85021419D01*
X86465181Y-85014145D01*
X86466420Y-85006322D01*
X86466423Y-85006312D01*
X86472099Y-84970476D01*
X86474505Y-84958856D01*
X86483528Y-84923711D01*
X86483528Y-84923710D01*
X86485500Y-84916030D01*
X86485500Y-84895776D01*
X86487051Y-84876065D01*
X86488980Y-84863886D01*
X86490220Y-84856057D01*
X86486059Y-84812038D01*
X86485500Y-84800181D01*
X86485500Y-84772500D01*
X124506584Y-84772500D01*
X124512980Y-84783770D01*
X125717188Y-85987978D01*
X125731132Y-85995592D01*
X125732965Y-85995461D01*
X125739580Y-85991210D01*
X126946604Y-84784186D01*
X126953795Y-84771017D01*
X126946473Y-84760780D01*
X126899233Y-84722115D01*
X126892261Y-84717160D01*
X126666122Y-84578582D01*
X126658552Y-84574624D01*
X126415704Y-84468022D01*
X126407644Y-84465120D01*
X126152592Y-84392467D01*
X126144214Y-84390685D01*
X125881656Y-84353318D01*
X125873111Y-84352691D01*
X125607908Y-84351302D01*
X125599374Y-84351839D01*
X125336433Y-84386456D01*
X125328035Y-84388149D01*
X125072238Y-84458127D01*
X125064143Y-84460946D01*
X124820199Y-84564997D01*
X124812577Y-84568881D01*
X124585013Y-84705075D01*
X124577981Y-84709962D01*
X124515053Y-84760377D01*
X124506584Y-84772500D01*
X86485500Y-84772500D01*
X86485500Y-83372595D01*
X86505502Y-83304474D01*
X86522405Y-83283499D01*
X86966501Y-82839404D01*
X87028813Y-82805379D01*
X87055596Y-82802500D01*
X96822233Y-82802500D01*
X96833416Y-82803027D01*
X96840909Y-82804702D01*
X96848835Y-82804453D01*
X96848836Y-82804453D01*
X96908986Y-82802562D01*
X96912945Y-82802500D01*
X96940856Y-82802500D01*
X96944791Y-82802003D01*
X96944856Y-82801995D01*
X96956693Y-82801062D01*
X96988951Y-82800048D01*
X96992970Y-82799922D01*
X97000889Y-82799673D01*
X97020343Y-82794021D01*
X97039700Y-82790013D01*
X97051930Y-82788468D01*
X97051931Y-82788468D01*
X97059797Y-82787474D01*
X97067168Y-82784555D01*
X97067170Y-82784555D01*
X97100912Y-82771196D01*
X97112142Y-82767351D01*
X97146983Y-82757229D01*
X97146984Y-82757229D01*
X97154593Y-82755018D01*
X97161412Y-82750985D01*
X97161417Y-82750983D01*
X97172028Y-82744707D01*
X97189776Y-82736012D01*
X97208617Y-82728552D01*
X97244387Y-82702564D01*
X97254307Y-82696048D01*
X97285535Y-82677580D01*
X97285538Y-82677578D01*
X97292362Y-82673542D01*
X97306683Y-82659221D01*
X97321717Y-82646380D01*
X97331694Y-82639131D01*
X97338107Y-82634472D01*
X97366298Y-82600395D01*
X97374288Y-82591616D01*
X97684533Y-82281371D01*
X97746845Y-82247345D01*
X97817660Y-82252410D01*
X97874496Y-82294957D01*
X97898938Y-82357295D01*
X97907378Y-82437593D01*
X97912458Y-82485928D01*
X97971473Y-82667556D01*
X97974776Y-82673278D01*
X97974777Y-82673279D01*
X98006689Y-82728552D01*
X98066960Y-82832944D01*
X98071378Y-82837851D01*
X98071379Y-82837852D01*
X98111544Y-82882460D01*
X98194747Y-82974866D01*
X98349248Y-83087118D01*
X98355276Y-83089802D01*
X98355278Y-83089803D01*
X98517681Y-83162109D01*
X98523712Y-83164794D01*
X98617113Y-83184647D01*
X98704056Y-83203128D01*
X98704061Y-83203128D01*
X98710513Y-83204500D01*
X98901487Y-83204500D01*
X98907939Y-83203128D01*
X98907944Y-83203128D01*
X98994887Y-83184647D01*
X99088288Y-83164794D01*
X99094319Y-83162109D01*
X99256722Y-83089803D01*
X99256724Y-83089802D01*
X99262752Y-83087118D01*
X99417253Y-82974866D01*
X99500456Y-82882460D01*
X99540621Y-82837852D01*
X99540622Y-82837851D01*
X99545040Y-82832944D01*
X99547817Y-82828134D01*
X123721500Y-82828134D01*
X123728255Y-82890316D01*
X123779385Y-83026705D01*
X123866739Y-83143261D01*
X123983295Y-83230615D01*
X124119684Y-83281745D01*
X124181866Y-83288500D01*
X127278134Y-83288500D01*
X127340316Y-83281745D01*
X127476705Y-83230615D01*
X127593261Y-83143261D01*
X127680615Y-83026705D01*
X127731745Y-82890316D01*
X127738500Y-82828134D01*
X127738500Y-79731866D01*
X127731745Y-79669684D01*
X127680615Y-79533295D01*
X127593261Y-79416739D01*
X127476705Y-79329385D01*
X127340316Y-79278255D01*
X127278134Y-79271500D01*
X124181866Y-79271500D01*
X124119684Y-79278255D01*
X123983295Y-79329385D01*
X123866739Y-79416739D01*
X123779385Y-79533295D01*
X123728255Y-79669684D01*
X123721500Y-79731866D01*
X123721500Y-82828134D01*
X99547817Y-82828134D01*
X99605311Y-82728552D01*
X99637223Y-82673279D01*
X99637224Y-82673278D01*
X99640527Y-82667556D01*
X99699542Y-82485928D01*
X99705553Y-82428742D01*
X99718814Y-82302565D01*
X99719504Y-82296000D01*
X99699542Y-82106072D01*
X99640527Y-81924444D01*
X99545040Y-81759056D01*
X99471863Y-81677785D01*
X99441147Y-81613779D01*
X99439500Y-81593476D01*
X99439500Y-80342768D01*
X99440027Y-80331585D01*
X99441702Y-80324092D01*
X99439562Y-80256001D01*
X99439500Y-80252044D01*
X99439500Y-80224144D01*
X99438996Y-80220153D01*
X99438063Y-80208311D01*
X99436923Y-80172036D01*
X99436674Y-80164111D01*
X99434462Y-80156497D01*
X99434461Y-80156492D01*
X99431023Y-80144659D01*
X99427012Y-80125295D01*
X99425467Y-80113064D01*
X99424474Y-80105203D01*
X99421557Y-80097836D01*
X99421556Y-80097831D01*
X99408198Y-80064092D01*
X99404354Y-80052865D01*
X99394230Y-80018022D01*
X99392018Y-80010407D01*
X99381707Y-79992972D01*
X99373012Y-79975224D01*
X99365552Y-79956383D01*
X99339564Y-79920613D01*
X99333048Y-79910693D01*
X99314580Y-79879465D01*
X99314578Y-79879462D01*
X99310542Y-79872638D01*
X99296221Y-79858317D01*
X99283380Y-79843283D01*
X99276131Y-79833306D01*
X99271472Y-79826893D01*
X99265367Y-79821842D01*
X99265362Y-79821837D01*
X99237396Y-79798701D01*
X99228618Y-79790713D01*
X98388652Y-78950747D01*
X98381112Y-78942461D01*
X98377000Y-78935982D01*
X98327348Y-78889356D01*
X98324507Y-78886602D01*
X98304770Y-78866865D01*
X98301573Y-78864385D01*
X98292551Y-78856680D01*
X98279116Y-78844064D01*
X98260321Y-78826414D01*
X98253375Y-78822595D01*
X98253372Y-78822593D01*
X98242566Y-78816652D01*
X98226047Y-78805801D01*
X98225583Y-78805441D01*
X98210041Y-78793386D01*
X98202772Y-78790241D01*
X98202768Y-78790238D01*
X98169463Y-78775826D01*
X98158813Y-78770609D01*
X98120060Y-78749305D01*
X98100437Y-78744267D01*
X98081734Y-78737863D01*
X98070420Y-78732967D01*
X98070419Y-78732967D01*
X98063145Y-78729819D01*
X98055322Y-78728580D01*
X98055312Y-78728577D01*
X98019476Y-78722901D01*
X98007856Y-78720495D01*
X97972711Y-78711472D01*
X97972710Y-78711472D01*
X97965030Y-78709500D01*
X97944776Y-78709500D01*
X97925065Y-78707949D01*
X97922534Y-78707548D01*
X97905057Y-78704780D01*
X97897165Y-78705526D01*
X97861039Y-78708941D01*
X97849181Y-78709500D01*
X95514383Y-78709500D01*
X95503199Y-78708973D01*
X95495711Y-78707299D01*
X95487788Y-78707548D01*
X95427653Y-78709438D01*
X95423695Y-78709500D01*
X95395764Y-78709500D01*
X95391849Y-78709995D01*
X95391845Y-78709995D01*
X95391787Y-78710003D01*
X95391758Y-78710006D01*
X95379916Y-78710939D01*
X95335730Y-78712327D01*
X95318364Y-78717372D01*
X95316278Y-78717978D01*
X95296926Y-78721986D01*
X95284688Y-78723532D01*
X95284686Y-78723533D01*
X95276823Y-78724526D01*
X95235706Y-78740806D01*
X95224505Y-78744641D01*
X95182026Y-78756982D01*
X95175207Y-78761015D01*
X95175202Y-78761017D01*
X95164591Y-78767293D01*
X95146841Y-78775990D01*
X95128003Y-78783448D01*
X95121587Y-78788109D01*
X95121586Y-78788110D01*
X95092245Y-78809428D01*
X95082321Y-78815947D01*
X95051080Y-78834422D01*
X95051075Y-78834426D01*
X95044257Y-78838458D01*
X95029933Y-78852782D01*
X95014901Y-78865621D01*
X94998513Y-78877528D01*
X94970332Y-78911593D01*
X94962342Y-78920373D01*
X94286264Y-79596451D01*
X94223952Y-79630477D01*
X94197169Y-79633356D01*
X94141277Y-79633356D01*
X94134825Y-79634728D01*
X94134820Y-79634728D01*
X94047876Y-79653209D01*
X93954476Y-79673062D01*
X93948446Y-79675747D01*
X93948445Y-79675747D01*
X93786042Y-79748053D01*
X93786040Y-79748054D01*
X93780012Y-79750738D01*
X93625511Y-79862990D01*
X93621090Y-79867900D01*
X93621089Y-79867901D01*
X93541420Y-79956383D01*
X93497724Y-80004912D01*
X93402237Y-80170300D01*
X93343222Y-80351928D01*
X93342532Y-80358489D01*
X93342532Y-80358491D01*
X93328420Y-80492763D01*
X93323260Y-80541856D01*
X93323950Y-80548421D01*
X93340715Y-80707928D01*
X93343222Y-80731784D01*
X93361936Y-80789377D01*
X93382567Y-80852873D01*
X93384595Y-80923841D01*
X93347932Y-80984639D01*
X93284220Y-81015965D01*
X93262734Y-81017810D01*
X84059487Y-81017810D01*
X84008238Y-81006917D01*
X83854319Y-80938388D01*
X83854318Y-80938388D01*
X83848288Y-80935703D01*
X83743418Y-80913412D01*
X83667944Y-80897369D01*
X83667939Y-80897369D01*
X83661487Y-80895997D01*
X83470513Y-80895997D01*
X83464061Y-80897369D01*
X83464056Y-80897369D01*
X83388582Y-80913412D01*
X83283712Y-80935703D01*
X83277680Y-80938389D01*
X83271400Y-80940429D01*
X83270994Y-80939180D01*
X83207648Y-80947674D01*
X83143351Y-80917569D01*
X83117646Y-80886133D01*
X83038341Y-80748774D01*
X83035040Y-80743056D01*
X83030544Y-80738062D01*
X82911675Y-80606045D01*
X82911674Y-80606044D01*
X82907253Y-80601134D01*
X82770993Y-80502135D01*
X82758094Y-80492763D01*
X82758093Y-80492762D01*
X82752752Y-80488882D01*
X82746724Y-80486198D01*
X82746722Y-80486197D01*
X82584319Y-80413891D01*
X82584318Y-80413891D01*
X82578288Y-80411206D01*
X82484888Y-80391353D01*
X82397944Y-80372872D01*
X82397939Y-80372872D01*
X82391487Y-80371500D01*
X82200513Y-80371500D01*
X82194061Y-80372872D01*
X82194056Y-80372872D01*
X82107112Y-80391353D01*
X82013712Y-80411206D01*
X82007682Y-80413891D01*
X82007681Y-80413891D01*
X81845278Y-80486197D01*
X81845276Y-80486198D01*
X81839248Y-80488882D01*
X81833907Y-80492762D01*
X81833906Y-80492763D01*
X81821007Y-80502135D01*
X81684747Y-80601134D01*
X81680326Y-80606044D01*
X81680325Y-80606045D01*
X81561457Y-80738062D01*
X81556960Y-80743056D01*
X81461473Y-80908444D01*
X81402458Y-81090072D01*
X81382496Y-81280000D01*
X81402458Y-81469928D01*
X81461473Y-81651556D01*
X81464776Y-81657278D01*
X81464777Y-81657279D01*
X81482269Y-81687576D01*
X81503976Y-81725172D01*
X81520619Y-81753999D01*
X81537500Y-81816999D01*
X81537500Y-85823001D01*
X81520619Y-85886000D01*
X81461473Y-85988444D01*
X81402458Y-86170072D01*
X81401768Y-86176633D01*
X81401768Y-86176635D01*
X81390547Y-86283402D01*
X81382496Y-86360000D01*
X79811733Y-86360000D01*
X79749078Y-86241164D01*
X79744673Y-86235951D01*
X79744670Y-86235947D01*
X79636594Y-86108057D01*
X79636590Y-86108053D01*
X79632187Y-86102843D01*
X79616858Y-86091123D01*
X79493743Y-85996994D01*
X79493739Y-85996991D01*
X79488322Y-85992850D01*
X79383186Y-85943825D01*
X79330369Y-85919195D01*
X79330366Y-85919194D01*
X79324192Y-85916315D01*
X79317544Y-85914829D01*
X79317541Y-85914828D01*
X79152494Y-85877936D01*
X79152495Y-85877936D01*
X79147457Y-85876810D01*
X79141912Y-85876500D01*
X79008756Y-85876500D01*
X78873963Y-85891143D01*
X78790609Y-85919195D01*
X78708796Y-85946728D01*
X78708794Y-85946729D01*
X78702325Y-85948906D01*
X78547095Y-86042177D01*
X78542138Y-86046865D01*
X78542135Y-86046867D01*
X78504297Y-86082649D01*
X78415515Y-86166607D01*
X78411683Y-86172245D01*
X78411680Y-86172249D01*
X78360740Y-86247205D01*
X78313723Y-86316388D01*
X78246470Y-86484534D01*
X78245356Y-86491262D01*
X78245355Y-86491266D01*
X78218007Y-86656461D01*
X78216892Y-86663198D01*
X78217249Y-86670015D01*
X78217249Y-86670019D01*
X78223723Y-86793533D01*
X78226370Y-86844047D01*
X78228181Y-86850620D01*
X78228181Y-86850623D01*
X78261156Y-86970337D01*
X78274461Y-87018641D01*
X78358922Y-87178836D01*
X78363327Y-87184049D01*
X78363330Y-87184053D01*
X78381694Y-87205783D01*
X78410386Y-87270724D01*
X78399413Y-87340868D01*
X78365092Y-87384754D01*
X78325067Y-87417397D01*
X78316363Y-87426041D01*
X78198216Y-87568856D01*
X78191356Y-87579027D01*
X78103196Y-87742076D01*
X78098444Y-87753381D01*
X78062750Y-87868692D01*
X78062544Y-87882795D01*
X76672839Y-87882795D01*
X76675455Y-87882027D01*
X76676575Y-87874232D01*
X76644862Y-87766479D01*
X76640269Y-87755111D01*
X76554393Y-87590846D01*
X76547679Y-87580585D01*
X76431532Y-87436127D01*
X76422954Y-87427368D01*
X76280961Y-87308222D01*
X76270841Y-87301292D01*
X76108415Y-87211998D01*
X76097142Y-87207166D01*
X75920462Y-87151120D01*
X75908468Y-87148570D01*
X75764239Y-87132393D01*
X75757215Y-87132000D01*
X75676115Y-87132000D01*
X75660876Y-87136475D01*
X75659671Y-87137865D01*
X75658000Y-87145548D01*
X75658000Y-87867885D01*
X75150000Y-87867885D01*
X75150000Y-87150115D01*
X75145525Y-87134876D01*
X75144135Y-87133671D01*
X75136452Y-87132000D01*
X75057343Y-87132000D01*
X75051195Y-87132301D01*
X74913397Y-87145812D01*
X74901362Y-87148195D01*
X74723924Y-87201767D01*
X74712584Y-87206441D01*
X74548923Y-87293460D01*
X74538706Y-87300249D01*
X74395067Y-87417397D01*
X74386363Y-87426041D01*
X74268216Y-87568856D01*
X74261356Y-87579027D01*
X74173196Y-87742076D01*
X74168444Y-87753381D01*
X74132750Y-87868692D01*
X74132544Y-87882795D01*
X72898500Y-87882795D01*
X72898500Y-79765768D01*
X74131425Y-79765768D01*
X74163138Y-79873521D01*
X74167731Y-79884889D01*
X74253607Y-80049154D01*
X74260321Y-80059415D01*
X74376468Y-80203873D01*
X74385046Y-80212632D01*
X74527039Y-80331778D01*
X74537159Y-80338708D01*
X74699585Y-80428002D01*
X74710858Y-80432834D01*
X74887538Y-80488880D01*
X74899532Y-80491430D01*
X75043761Y-80507607D01*
X75050785Y-80508000D01*
X75131885Y-80508000D01*
X75147124Y-80503525D01*
X75148329Y-80502135D01*
X75150000Y-80494452D01*
X75150000Y-80489885D01*
X75658000Y-80489885D01*
X75662475Y-80505124D01*
X75663865Y-80506329D01*
X75671548Y-80508000D01*
X75750657Y-80508000D01*
X75756805Y-80507699D01*
X75894603Y-80494188D01*
X75906638Y-80491805D01*
X76084076Y-80438233D01*
X76095416Y-80433559D01*
X76259077Y-80346540D01*
X76269294Y-80339751D01*
X76412933Y-80222603D01*
X76421637Y-80213959D01*
X76539784Y-80071144D01*
X76546644Y-80060973D01*
X76634804Y-79897924D01*
X76639556Y-79886619D01*
X76675250Y-79771308D01*
X76675331Y-79765768D01*
X78061425Y-79765768D01*
X78093138Y-79873521D01*
X78097731Y-79884889D01*
X78183607Y-80049154D01*
X78190321Y-80059415D01*
X78306468Y-80203873D01*
X78315045Y-80212632D01*
X78367110Y-80256319D01*
X78406436Y-80315428D01*
X78407563Y-80386416D01*
X78390331Y-80423663D01*
X78313723Y-80536388D01*
X78246470Y-80704534D01*
X78245356Y-80711262D01*
X78245355Y-80711266D01*
X78221912Y-80852873D01*
X78216892Y-80883198D01*
X78217249Y-80890015D01*
X78217249Y-80890019D01*
X78223850Y-81015965D01*
X78226370Y-81064047D01*
X78228181Y-81070620D01*
X78228181Y-81070623D01*
X78251551Y-81155466D01*
X78274461Y-81238641D01*
X78358922Y-81398836D01*
X78363327Y-81404049D01*
X78363330Y-81404053D01*
X78471406Y-81531943D01*
X78471410Y-81531947D01*
X78475813Y-81537157D01*
X78481237Y-81541304D01*
X78481238Y-81541305D01*
X78614257Y-81643006D01*
X78614261Y-81643009D01*
X78619678Y-81647150D01*
X78706372Y-81687576D01*
X78777631Y-81720805D01*
X78777634Y-81720806D01*
X78783808Y-81723685D01*
X78790456Y-81725171D01*
X78790459Y-81725172D01*
X78896421Y-81748857D01*
X78960543Y-81763190D01*
X78966088Y-81763500D01*
X79099244Y-81763500D01*
X79234037Y-81748857D01*
X79352190Y-81709094D01*
X79399204Y-81693272D01*
X79399206Y-81693271D01*
X79405675Y-81691094D01*
X79560905Y-81597823D01*
X79565862Y-81593135D01*
X79565865Y-81593133D01*
X79687527Y-81478082D01*
X79687529Y-81478080D01*
X79692485Y-81473393D01*
X79696317Y-81467755D01*
X79696320Y-81467751D01*
X79790442Y-81329255D01*
X79794277Y-81323612D01*
X79861530Y-81155466D01*
X79862644Y-81148738D01*
X79862645Y-81148734D01*
X79889993Y-80983539D01*
X79889993Y-80983536D01*
X79891108Y-80976802D01*
X79889582Y-80947674D01*
X79881987Y-80802766D01*
X79881630Y-80795953D01*
X79846237Y-80667459D01*
X79847431Y-80596474D01*
X79886814Y-80537401D01*
X79951881Y-80508999D01*
X79967713Y-80508000D01*
X80180657Y-80508000D01*
X80186805Y-80507699D01*
X80324603Y-80494188D01*
X80336638Y-80491805D01*
X80514076Y-80438233D01*
X80525416Y-80433559D01*
X80689077Y-80346540D01*
X80699294Y-80339751D01*
X80842933Y-80222603D01*
X80851637Y-80213959D01*
X80969784Y-80071144D01*
X80976644Y-80060973D01*
X81064804Y-79897924D01*
X81069556Y-79886619D01*
X81105250Y-79771308D01*
X81105456Y-79757205D01*
X81098701Y-79754000D01*
X78076076Y-79754000D01*
X78062545Y-79757973D01*
X78061425Y-79765768D01*
X76675331Y-79765768D01*
X76675456Y-79757205D01*
X76668701Y-79754000D01*
X75676115Y-79754000D01*
X75660876Y-79758475D01*
X75659671Y-79759865D01*
X75658000Y-79767548D01*
X75658000Y-80489885D01*
X75150000Y-80489885D01*
X75150000Y-79772115D01*
X75145525Y-79756876D01*
X75144135Y-79755671D01*
X75136452Y-79754000D01*
X74146076Y-79754000D01*
X74132545Y-79757973D01*
X74131425Y-79765768D01*
X72898500Y-79765768D01*
X72898500Y-79242795D01*
X74132544Y-79242795D01*
X74139299Y-79246000D01*
X75131885Y-79246000D01*
X75147124Y-79241525D01*
X75148329Y-79240135D01*
X75150000Y-79232452D01*
X75150000Y-79227885D01*
X75658000Y-79227885D01*
X75662475Y-79243124D01*
X75663865Y-79244329D01*
X75671548Y-79246000D01*
X76661924Y-79246000D01*
X76672839Y-79242795D01*
X78062544Y-79242795D01*
X78069299Y-79246000D01*
X79311885Y-79246000D01*
X79327124Y-79241525D01*
X79328329Y-79240135D01*
X79330000Y-79232452D01*
X79330000Y-79227885D01*
X79838000Y-79227885D01*
X79842475Y-79243124D01*
X79843865Y-79244329D01*
X79851548Y-79246000D01*
X81091924Y-79246000D01*
X81105455Y-79242027D01*
X81106575Y-79234232D01*
X81074862Y-79126479D01*
X81070269Y-79115111D01*
X80984393Y-78950846D01*
X80977679Y-78940585D01*
X80861532Y-78796127D01*
X80852954Y-78787368D01*
X80710961Y-78668222D01*
X80700841Y-78661292D01*
X80538415Y-78571998D01*
X80527142Y-78567166D01*
X80350462Y-78511120D01*
X80338468Y-78508570D01*
X80194239Y-78492393D01*
X80187215Y-78492000D01*
X79856115Y-78492000D01*
X79840876Y-78496475D01*
X79839671Y-78497865D01*
X79838000Y-78505548D01*
X79838000Y-79227885D01*
X79330000Y-79227885D01*
X79330000Y-78510115D01*
X79325525Y-78494876D01*
X79324135Y-78493671D01*
X79316452Y-78492000D01*
X78987343Y-78492000D01*
X78981195Y-78492301D01*
X78843397Y-78505812D01*
X78831362Y-78508195D01*
X78653924Y-78561767D01*
X78642584Y-78566441D01*
X78478923Y-78653460D01*
X78468706Y-78660249D01*
X78325067Y-78777397D01*
X78316363Y-78786041D01*
X78198216Y-78928856D01*
X78191356Y-78939027D01*
X78103196Y-79102076D01*
X78098444Y-79113381D01*
X78062750Y-79228692D01*
X78062544Y-79242795D01*
X76672839Y-79242795D01*
X76675455Y-79242027D01*
X76676575Y-79234232D01*
X76644862Y-79126479D01*
X76640269Y-79115111D01*
X76554393Y-78950846D01*
X76547679Y-78940585D01*
X76431532Y-78796127D01*
X76422954Y-78787368D01*
X76280961Y-78668222D01*
X76270841Y-78661292D01*
X76108415Y-78571998D01*
X76097142Y-78567166D01*
X75920462Y-78511120D01*
X75908468Y-78508570D01*
X75764239Y-78492393D01*
X75757215Y-78492000D01*
X75676115Y-78492000D01*
X75660876Y-78496475D01*
X75659671Y-78497865D01*
X75658000Y-78505548D01*
X75658000Y-79227885D01*
X75150000Y-79227885D01*
X75150000Y-78510115D01*
X75145525Y-78494876D01*
X75144135Y-78493671D01*
X75136452Y-78492000D01*
X75057343Y-78492000D01*
X75051195Y-78492301D01*
X74913397Y-78505812D01*
X74901362Y-78508195D01*
X74723924Y-78561767D01*
X74712584Y-78566441D01*
X74548923Y-78653460D01*
X74538706Y-78660249D01*
X74395067Y-78777397D01*
X74386363Y-78786041D01*
X74268216Y-78928856D01*
X74261356Y-78939027D01*
X74173196Y-79102076D01*
X74168444Y-79113381D01*
X74132750Y-79228692D01*
X74132544Y-79242795D01*
X72898500Y-79242795D01*
X72898500Y-76462966D01*
X119826257Y-76462966D01*
X119856565Y-76597446D01*
X119859645Y-76607275D01*
X119939770Y-76804603D01*
X119944413Y-76813794D01*
X120055694Y-76995388D01*
X120061777Y-77003699D01*
X120201213Y-77164667D01*
X120208580Y-77171883D01*
X120372434Y-77307916D01*
X120380881Y-77313831D01*
X120564756Y-77421279D01*
X120574042Y-77425729D01*
X120773001Y-77501703D01*
X120782899Y-77504579D01*
X120886250Y-77525606D01*
X120900299Y-77524410D01*
X120904000Y-77514065D01*
X120904000Y-77513517D01*
X121412000Y-77513517D01*
X121416064Y-77527359D01*
X121429478Y-77529393D01*
X121436184Y-77528534D01*
X121446262Y-77526392D01*
X121650255Y-77465191D01*
X121659842Y-77461433D01*
X121851095Y-77367739D01*
X121859945Y-77362464D01*
X122033328Y-77238792D01*
X122041200Y-77232139D01*
X122192052Y-77081812D01*
X122198730Y-77073965D01*
X122323003Y-76901020D01*
X122328313Y-76892183D01*
X122422670Y-76701267D01*
X122426469Y-76691672D01*
X122488377Y-76487910D01*
X122490555Y-76477837D01*
X122491986Y-76466962D01*
X122489775Y-76452778D01*
X122476617Y-76449000D01*
X121430115Y-76449000D01*
X121414876Y-76453475D01*
X121413671Y-76454865D01*
X121412000Y-76462548D01*
X121412000Y-77513517D01*
X120904000Y-77513517D01*
X120904000Y-76467115D01*
X120899525Y-76451876D01*
X120898135Y-76450671D01*
X120890452Y-76449000D01*
X119841225Y-76449000D01*
X119827694Y-76452973D01*
X119826257Y-76462966D01*
X72898500Y-76462966D01*
X72898500Y-73660000D01*
X73316526Y-73660000D01*
X73336391Y-73912403D01*
X73395495Y-74158591D01*
X73492384Y-74392502D01*
X73624672Y-74608376D01*
X73789102Y-74800898D01*
X73981624Y-74965328D01*
X74197498Y-75097616D01*
X74202068Y-75099509D01*
X74202072Y-75099511D01*
X74426836Y-75192611D01*
X74431409Y-75194505D01*
X74516032Y-75214821D01*
X74672784Y-75252454D01*
X74672790Y-75252455D01*
X74677597Y-75253609D01*
X74777416Y-75261465D01*
X74864345Y-75268307D01*
X74864352Y-75268307D01*
X74866801Y-75268500D01*
X74993199Y-75268500D01*
X74995648Y-75268307D01*
X74995655Y-75268307D01*
X75082584Y-75261465D01*
X75182403Y-75253609D01*
X75187210Y-75252455D01*
X75187216Y-75252454D01*
X75343968Y-75214821D01*
X75428591Y-75194505D01*
X75433164Y-75192611D01*
X75657928Y-75099511D01*
X75657932Y-75099509D01*
X75662502Y-75097616D01*
X75878376Y-74965328D01*
X76070898Y-74800898D01*
X76235328Y-74608376D01*
X76269180Y-74553134D01*
X119799500Y-74553134D01*
X119806255Y-74615316D01*
X119857385Y-74751705D01*
X119944739Y-74868261D01*
X120061295Y-74955615D01*
X120069704Y-74958767D01*
X120069705Y-74958768D01*
X120178960Y-74999726D01*
X120235725Y-75042367D01*
X120260425Y-75108929D01*
X120245218Y-75178278D01*
X120225825Y-75204759D01*
X120102590Y-75333717D01*
X120096104Y-75341727D01*
X119976098Y-75517649D01*
X119971000Y-75526623D01*
X119881338Y-75719783D01*
X119877775Y-75729470D01*
X119822389Y-75929183D01*
X119823912Y-75937607D01*
X119836292Y-75941000D01*
X122476344Y-75941000D01*
X122489875Y-75937027D01*
X122491180Y-75927947D01*
X122449214Y-75760875D01*
X122445894Y-75751124D01*
X122360972Y-75555814D01*
X122356105Y-75546739D01*
X122240426Y-75367926D01*
X122234136Y-75359757D01*
X122090293Y-75201677D01*
X122059241Y-75137831D01*
X122067635Y-75067333D01*
X122112812Y-75012564D01*
X122139256Y-74998895D01*
X122246297Y-74958767D01*
X122254705Y-74955615D01*
X122371261Y-74868261D01*
X122458615Y-74751705D01*
X122509745Y-74615316D01*
X122516500Y-74553134D01*
X122516500Y-73660000D01*
X125386526Y-73660000D01*
X125406391Y-73912403D01*
X125465495Y-74158591D01*
X125562384Y-74392502D01*
X125694672Y-74608376D01*
X125859102Y-74800898D01*
X126051624Y-74965328D01*
X126267498Y-75097616D01*
X126272068Y-75099509D01*
X126272072Y-75099511D01*
X126496836Y-75192611D01*
X126501409Y-75194505D01*
X126586032Y-75214821D01*
X126742784Y-75252454D01*
X126742790Y-75252455D01*
X126747597Y-75253609D01*
X126847416Y-75261465D01*
X126934345Y-75268307D01*
X126934352Y-75268307D01*
X126936801Y-75268500D01*
X127063199Y-75268500D01*
X127065648Y-75268307D01*
X127065655Y-75268307D01*
X127152584Y-75261465D01*
X127252403Y-75253609D01*
X127257210Y-75252455D01*
X127257216Y-75252454D01*
X127413968Y-75214821D01*
X127498591Y-75194505D01*
X127503164Y-75192611D01*
X127727928Y-75099511D01*
X127727932Y-75099509D01*
X127732502Y-75097616D01*
X127948376Y-74965328D01*
X128140898Y-74800898D01*
X128305328Y-74608376D01*
X128437616Y-74392502D01*
X128534505Y-74158591D01*
X128593609Y-73912403D01*
X128613474Y-73660000D01*
X128593609Y-73407597D01*
X128534505Y-73161409D01*
X128437616Y-72927498D01*
X128305328Y-72711624D01*
X128140898Y-72519102D01*
X127948376Y-72354672D01*
X127732502Y-72222384D01*
X127727932Y-72220491D01*
X127727928Y-72220489D01*
X127503164Y-72127389D01*
X127503162Y-72127388D01*
X127498591Y-72125495D01*
X127410219Y-72104279D01*
X127257216Y-72067546D01*
X127257210Y-72067545D01*
X127252403Y-72066391D01*
X127152584Y-72058535D01*
X127065655Y-72051693D01*
X127065648Y-72051693D01*
X127063199Y-72051500D01*
X126936801Y-72051500D01*
X126934352Y-72051693D01*
X126934345Y-72051693D01*
X126847416Y-72058535D01*
X126747597Y-72066391D01*
X126742790Y-72067545D01*
X126742784Y-72067546D01*
X126589781Y-72104279D01*
X126501409Y-72125495D01*
X126496838Y-72127388D01*
X126496836Y-72127389D01*
X126272072Y-72220489D01*
X126272068Y-72220491D01*
X126267498Y-72222384D01*
X126051624Y-72354672D01*
X125859102Y-72519102D01*
X125694672Y-72711624D01*
X125562384Y-72927498D01*
X125465495Y-73161409D01*
X125406391Y-73407597D01*
X125386526Y-73660000D01*
X122516500Y-73660000D01*
X122516500Y-72756866D01*
X122509745Y-72694684D01*
X122458615Y-72558295D01*
X122371261Y-72441739D01*
X122254705Y-72354385D01*
X122118316Y-72303255D01*
X122056134Y-72296500D01*
X120259866Y-72296500D01*
X120197684Y-72303255D01*
X120061295Y-72354385D01*
X119944739Y-72441739D01*
X119857385Y-72558295D01*
X119806255Y-72694684D01*
X119799500Y-72756866D01*
X119799500Y-74553134D01*
X76269180Y-74553134D01*
X76367616Y-74392502D01*
X76464505Y-74158591D01*
X76523609Y-73912403D01*
X76543474Y-73660000D01*
X76523609Y-73407597D01*
X76464505Y-73161409D01*
X76367616Y-72927498D01*
X76235328Y-72711624D01*
X76070898Y-72519102D01*
X75878376Y-72354672D01*
X75662502Y-72222384D01*
X75657932Y-72220491D01*
X75657928Y-72220489D01*
X75433164Y-72127389D01*
X75433162Y-72127388D01*
X75428591Y-72125495D01*
X75340219Y-72104279D01*
X75187216Y-72067546D01*
X75187210Y-72067545D01*
X75182403Y-72066391D01*
X75082584Y-72058535D01*
X74995655Y-72051693D01*
X74995648Y-72051693D01*
X74993199Y-72051500D01*
X74866801Y-72051500D01*
X74864352Y-72051693D01*
X74864345Y-72051693D01*
X74777416Y-72058535D01*
X74677597Y-72066391D01*
X74672790Y-72067545D01*
X74672784Y-72067546D01*
X74519781Y-72104279D01*
X74431409Y-72125495D01*
X74426838Y-72127388D01*
X74426836Y-72127389D01*
X74202072Y-72220489D01*
X74202068Y-72220491D01*
X74197498Y-72222384D01*
X73981624Y-72354672D01*
X73789102Y-72519102D01*
X73624672Y-72711624D01*
X73492384Y-72927498D01*
X73395495Y-73161409D01*
X73336391Y-73407597D01*
X73316526Y-73660000D01*
X72898500Y-73660000D01*
X72898500Y-72407382D01*
X72900000Y-72387999D01*
X72903691Y-72364291D01*
X72902250Y-72353272D01*
X72901792Y-72324585D01*
X72911601Y-72224970D01*
X72911913Y-72221799D01*
X72916732Y-72197573D01*
X72938596Y-72125495D01*
X72952859Y-72078472D01*
X72962311Y-72055652D01*
X73020979Y-71945888D01*
X73034702Y-71925349D01*
X73113661Y-71829136D01*
X73131126Y-71811671D01*
X73227333Y-71732714D01*
X73247871Y-71718990D01*
X73357642Y-71660315D01*
X73380461Y-71650864D01*
X73437071Y-71633691D01*
X73499561Y-71614735D01*
X73523787Y-71609916D01*
X73619706Y-71600469D01*
X73635869Y-71600922D01*
X73635877Y-71600226D01*
X73644851Y-71600335D01*
X73653724Y-71601717D01*
X73685108Y-71597613D01*
X73701507Y-71596551D01*
X93388260Y-71608077D01*
G37*
G04 #@! TD.AperFunction*
M02*
