G04 #@! TF.GenerationSoftware,KiCad,Pcbnew,(6.0.10-0)*
G04 #@! TF.CreationDate,2023-02-24T11:02:46+09:00*
G04 #@! TF.ProjectId,CH224K_PD_Decoy,43483232-344b-45f5-9044-5f4465636f79,0.5*
G04 #@! TF.SameCoordinates,Original*
G04 #@! TF.FileFunction,Copper,L1,Top*
G04 #@! TF.FilePolarity,Positive*
%FSLAX46Y46*%
G04 Gerber Fmt 4.6, Leading zero omitted, Abs format (unit mm)*
G04 Created by KiCad (PCBNEW (6.0.10-0)) date 2023-02-24 11:02:46*
%MOMM*%
%LPD*%
G01*
G04 APERTURE LIST*
G04 Aperture macros list*
%AMRoundRect*
0 Rectangle with rounded corners*
0 $1 Rounding radius*
0 $2 $3 $4 $5 $6 $7 $8 $9 X,Y pos of 4 corners*
0 Add a 4 corners polygon primitive as box body*
4,1,4,$2,$3,$4,$5,$6,$7,$8,$9,$2,$3,0*
0 Add four circle primitives for the rounded corners*
1,1,$1+$1,$2,$3*
1,1,$1+$1,$4,$5*
1,1,$1+$1,$6,$7*
1,1,$1+$1,$8,$9*
0 Add four rect primitives between the rounded corners*
20,1,$1+$1,$2,$3,$4,$5,0*
20,1,$1+$1,$4,$5,$6,$7,0*
20,1,$1+$1,$6,$7,$8,$9,0*
20,1,$1+$1,$8,$9,$2,$3,0*%
G04 Aperture macros list end*
G04 #@! TA.AperFunction,SMDPad,CuDef*
%ADD10RoundRect,0.250000X0.262500X0.450000X-0.262500X0.450000X-0.262500X-0.450000X0.262500X-0.450000X0*%
G04 #@! TD*
G04 #@! TA.AperFunction,ComponentPad*
%ADD11R,2.500000X1.500000*%
G04 #@! TD*
G04 #@! TA.AperFunction,ComponentPad*
%ADD12O,2.500000X1.500000*%
G04 #@! TD*
G04 #@! TA.AperFunction,ComponentPad*
%ADD13R,3.000000X3.000000*%
G04 #@! TD*
G04 #@! TA.AperFunction,ComponentPad*
%ADD14C,3.000000*%
G04 #@! TD*
G04 #@! TA.AperFunction,SMDPad,CuDef*
%ADD15R,3.200000X2.300000*%
G04 #@! TD*
G04 #@! TA.AperFunction,SMDPad,CuDef*
%ADD16R,0.510000X1.100000*%
G04 #@! TD*
G04 #@! TA.AperFunction,SMDPad,CuDef*
%ADD17RoundRect,0.250000X1.425000X-0.362500X1.425000X0.362500X-1.425000X0.362500X-1.425000X-0.362500X0*%
G04 #@! TD*
G04 #@! TA.AperFunction,ComponentPad*
%ADD18R,1.700000X1.700000*%
G04 #@! TD*
G04 #@! TA.AperFunction,ComponentPad*
%ADD19O,1.700000X1.700000*%
G04 #@! TD*
G04 #@! TA.AperFunction,SMDPad,CuDef*
%ADD20RoundRect,0.250000X0.450000X-0.262500X0.450000X0.262500X-0.450000X0.262500X-0.450000X-0.262500X0*%
G04 #@! TD*
G04 #@! TA.AperFunction,SMDPad,CuDef*
%ADD21RoundRect,0.218750X-0.256250X0.218750X-0.256250X-0.218750X0.256250X-0.218750X0.256250X0.218750X0*%
G04 #@! TD*
G04 #@! TA.AperFunction,SMDPad,CuDef*
%ADD22R,1.450000X0.600000*%
G04 #@! TD*
G04 #@! TA.AperFunction,SMDPad,CuDef*
%ADD23R,1.450000X0.300000*%
G04 #@! TD*
G04 #@! TA.AperFunction,ComponentPad*
%ADD24O,1.600000X1.000000*%
G04 #@! TD*
G04 #@! TA.AperFunction,ComponentPad*
%ADD25O,2.100000X1.000000*%
G04 #@! TD*
G04 #@! TA.AperFunction,SMDPad,CuDef*
%ADD26RoundRect,0.250000X0.475000X-0.250000X0.475000X0.250000X-0.475000X0.250000X-0.475000X-0.250000X0*%
G04 #@! TD*
G04 #@! TA.AperFunction,ViaPad*
%ADD27C,0.800000*%
G04 #@! TD*
G04 #@! TA.AperFunction,Conductor*
%ADD28C,0.500000*%
G04 #@! TD*
G04 #@! TA.AperFunction,Conductor*
%ADD29C,0.250000*%
G04 #@! TD*
G04 #@! TA.AperFunction,Conductor*
%ADD30C,1.000000*%
G04 #@! TD*
G04 #@! TA.AperFunction,Conductor*
%ADD31C,2.000000*%
G04 #@! TD*
G04 APERTURE END LIST*
D10*
X93241500Y-79629000D03*
X91416500Y-79629000D03*
D11*
X117856000Y-88900000D03*
D12*
X117856000Y-91440000D03*
X117856000Y-93980000D03*
D13*
X125730000Y-81280000D03*
D14*
X125730000Y-86360000D03*
D15*
X95250000Y-84328000D03*
D16*
X93250000Y-86878000D03*
X94250000Y-86878000D03*
X95250000Y-86878000D03*
X96250000Y-86878000D03*
X97250000Y-86878000D03*
X97250000Y-81778000D03*
X96250000Y-81778000D03*
X95250000Y-81778000D03*
X94250000Y-81778000D03*
X93250000Y-81778000D03*
D17*
X87376000Y-81829500D03*
X87376000Y-75904500D03*
D11*
X112268000Y-88900000D03*
D12*
X112268000Y-91440000D03*
X112268000Y-93980000D03*
D18*
X81280000Y-93980000D03*
D19*
X83820000Y-93980000D03*
X86360000Y-93980000D03*
D18*
X121158000Y-73655000D03*
D19*
X121158000Y-76195000D03*
D20*
X95758000Y-79398500D03*
X95758000Y-77573500D03*
D11*
X106680000Y-88900000D03*
D12*
X106680000Y-91440000D03*
X106680000Y-93980000D03*
D21*
X91440000Y-81635500D03*
X91440000Y-83210500D03*
D18*
X91445000Y-93980000D03*
D19*
X93985000Y-93980000D03*
X96525000Y-93980000D03*
X99065000Y-93980000D03*
X101605000Y-93980000D03*
D22*
X80499000Y-80570000D03*
X80499000Y-81370000D03*
D23*
X80499000Y-82570000D03*
X80499000Y-83570000D03*
X80499000Y-84070000D03*
X80499000Y-85070000D03*
D22*
X80499000Y-86270000D03*
X80499000Y-87070000D03*
X80499000Y-87070000D03*
X80499000Y-86270000D03*
D23*
X80499000Y-85570000D03*
X80499000Y-84570000D03*
X80499000Y-83070000D03*
X80499000Y-82070000D03*
D22*
X80499000Y-81370000D03*
X80499000Y-80570000D03*
D24*
X75404000Y-88140000D03*
D25*
X79584000Y-88140000D03*
X79584000Y-79500000D03*
D24*
X75404000Y-79500000D03*
D26*
X89154000Y-88326000D03*
X89154000Y-86426000D03*
D27*
X87630000Y-91440000D03*
X105410000Y-74930000D03*
X113030000Y-77470000D03*
X91059000Y-88265000D03*
X80010000Y-91440000D03*
X78740000Y-74930000D03*
X105410000Y-77470000D03*
X102870000Y-77470000D03*
X82296000Y-79756000D03*
X102870000Y-83820000D03*
X113030000Y-74930000D03*
X107950000Y-74930000D03*
X91948000Y-84328000D03*
X102870000Y-86360000D03*
X77470000Y-91440000D03*
X110490000Y-77470000D03*
X107950000Y-77470000D03*
X81280000Y-74930000D03*
X98552000Y-84328000D03*
X102870000Y-74930000D03*
X121920000Y-93980000D03*
X121920000Y-91440000D03*
X82296000Y-87884000D03*
X110490000Y-74930000D03*
X100330000Y-74930000D03*
X103124000Y-88900000D03*
X91440000Y-90325500D03*
X90932000Y-86868000D03*
X99314000Y-90170000D03*
X94236764Y-80541856D03*
X99314000Y-88137500D03*
X98806000Y-82296000D03*
X94234000Y-88138000D03*
X96520000Y-91852500D03*
X99060000Y-91852500D03*
X95250000Y-88138000D03*
X96266000Y-80518000D03*
X83566000Y-85852000D03*
X83566000Y-81804497D03*
X85053000Y-84365000D03*
X97282000Y-80518000D03*
X82296000Y-81280000D03*
X82296000Y-86360000D03*
X96266000Y-88138000D03*
X96266000Y-89916000D03*
X83566000Y-84294500D03*
X83566000Y-82804000D03*
D28*
X81482000Y-87070000D02*
X80499000Y-87070000D01*
X95250000Y-84328000D02*
X98552000Y-84328000D01*
X90998000Y-88326000D02*
X89154000Y-88326000D01*
X81482000Y-80570000D02*
X82296000Y-79756000D01*
X95250000Y-84328000D02*
X91948000Y-84328000D01*
X91059000Y-88265000D02*
X90998000Y-88326000D01*
X80499000Y-80570000D02*
X81482000Y-80570000D01*
X82296000Y-87884000D02*
X81482000Y-87070000D01*
D29*
X96774000Y-90678000D02*
X98552000Y-88900000D01*
D28*
X87376000Y-81829500D02*
X87376000Y-85344000D01*
D29*
X91440000Y-90325500D02*
X91440000Y-92456000D01*
D28*
X90932000Y-83718500D02*
X91440000Y-83210500D01*
D29*
X95650195Y-90325500D02*
X96002695Y-90678000D01*
D28*
X87376000Y-85344000D02*
X88458000Y-86426000D01*
D29*
X91445000Y-92461000D02*
X91445000Y-93980000D01*
X98552000Y-88900000D02*
X103124000Y-88900000D01*
X96002695Y-90678000D02*
X96774000Y-90678000D01*
X91440000Y-92456000D02*
X91445000Y-92461000D01*
D28*
X90490000Y-86426000D02*
X90932000Y-86868000D01*
X93240000Y-86868000D02*
X93250000Y-86878000D01*
D29*
X91440000Y-90325500D02*
X95650195Y-90325500D01*
D28*
X90932000Y-86868000D02*
X93240000Y-86868000D01*
X88458000Y-86426000D02*
X89154000Y-86426000D01*
X90932000Y-86868000D02*
X90932000Y-83718500D01*
X89154000Y-86426000D02*
X90490000Y-86426000D01*
D29*
X94800500Y-91127500D02*
X98356500Y-91127500D01*
X94250000Y-80555092D02*
X94236764Y-80541856D01*
X93985000Y-91943000D02*
X94800500Y-91127500D01*
X99314000Y-88137500D02*
X99314000Y-82804000D01*
X93985000Y-93980000D02*
X93985000Y-91943000D01*
X98356500Y-91127500D02*
X99314000Y-90170000D01*
X99314000Y-82804000D02*
X98806000Y-82296000D01*
X94250000Y-81778000D02*
X94250000Y-80555092D01*
X94250000Y-88122000D02*
X94234000Y-88138000D01*
X96520000Y-91852500D02*
X96520000Y-93975000D01*
X94250000Y-86878000D02*
X94250000Y-88122000D01*
X96520000Y-93975000D02*
X96525000Y-93980000D01*
X95250000Y-88138000D02*
X95250000Y-86878000D01*
X99060000Y-91852500D02*
X99060000Y-93975000D01*
X99060000Y-93975000D02*
X99065000Y-93980000D01*
D28*
X91440000Y-81635500D02*
X91440000Y-79652500D01*
X91440000Y-79652500D02*
X91416500Y-79629000D01*
D29*
X83284000Y-85570000D02*
X83566000Y-85852000D01*
X96250000Y-81778000D02*
X96250000Y-80534000D01*
X83566000Y-87884000D02*
X81280000Y-90170000D01*
X81280000Y-90170000D02*
X81280000Y-93980000D01*
X80499000Y-85570000D02*
X83284000Y-85570000D01*
X83566000Y-85852000D02*
X83566000Y-87884000D01*
X96250000Y-80534000D02*
X96266000Y-80518000D01*
X97250000Y-81778000D02*
X97250000Y-80550000D01*
X83820000Y-88900000D02*
X83820000Y-93980000D01*
X82841000Y-82503695D02*
X82841000Y-82529497D01*
X83566000Y-81804497D02*
X83291497Y-82079000D01*
X97250000Y-80550000D02*
X97282000Y-80518000D01*
X83265695Y-82079000D02*
X82841000Y-82503695D01*
X83291497Y-82079000D02*
X83265695Y-82079000D01*
X82800497Y-82570000D02*
X80499000Y-82570000D01*
X82841000Y-82529497D02*
X82800497Y-82570000D01*
X85090000Y-87630000D02*
X83820000Y-88900000D01*
X85053000Y-84365000D02*
X85053000Y-87593000D01*
X85053000Y-87593000D02*
X85090000Y-87630000D01*
D28*
X95758000Y-77573500D02*
X95758000Y-75184000D01*
X80499000Y-81370000D02*
X82206000Y-81370000D01*
X98956500Y-77573500D02*
X99060000Y-77470000D01*
X82206000Y-81370000D02*
X82296000Y-81280000D01*
X87376000Y-75904500D02*
X84623500Y-75904500D01*
D30*
X82381500Y-81280000D02*
X84159500Y-79502000D01*
D31*
X99060000Y-77470000D02*
X102870000Y-81280000D01*
D28*
X95758000Y-77573500D02*
X98956500Y-77573500D01*
X84623500Y-75904500D02*
X84159500Y-76368500D01*
D31*
X91186000Y-73660000D02*
X92456000Y-74930000D01*
X119385000Y-73655000D02*
X117602000Y-75438000D01*
X121158000Y-73655000D02*
X119385000Y-73655000D01*
X92964000Y-74930000D02*
X95504000Y-74930000D01*
D30*
X82296000Y-81280000D02*
X82381500Y-81280000D01*
D31*
X85090000Y-73660000D02*
X87122000Y-73660000D01*
X84159500Y-74590500D02*
X85090000Y-73660000D01*
D28*
X95758000Y-75184000D02*
X95504000Y-74930000D01*
D31*
X87122000Y-73660000D02*
X91186000Y-73660000D01*
D28*
X80499000Y-86270000D02*
X82206000Y-86270000D01*
X87376000Y-73914000D02*
X87122000Y-73660000D01*
D31*
X96520000Y-74930000D02*
X99060000Y-77470000D01*
D28*
X87376000Y-75904500D02*
X87376000Y-73914000D01*
D31*
X92456000Y-74930000D02*
X92964000Y-74930000D01*
X84159500Y-76368500D02*
X84159500Y-74590500D01*
X95504000Y-74930000D02*
X96520000Y-74930000D01*
X125730000Y-81280000D02*
X117602000Y-81280000D01*
X84159500Y-79502000D02*
X84159500Y-76368500D01*
X117602000Y-81280000D02*
X102870000Y-81280000D01*
D28*
X82206000Y-86270000D02*
X82296000Y-86360000D01*
D31*
X117602000Y-75438000D02*
X117602000Y-81280000D01*
D29*
X95250000Y-79906500D02*
X95758000Y-79398500D01*
X95250000Y-81778000D02*
X95250000Y-79906500D01*
X93241500Y-79629000D02*
X93250000Y-79637500D01*
X93250000Y-79637500D02*
X93250000Y-81778000D01*
X96266000Y-86894000D02*
X96250000Y-86878000D01*
X84291000Y-84594805D02*
X84291000Y-84291000D01*
X80499000Y-83570000D02*
X84070000Y-83570000D01*
X84291000Y-84291000D02*
X84291000Y-83603000D01*
X85279305Y-83566000D02*
X84836000Y-83566000D01*
X84324000Y-83570000D02*
X84328000Y-83566000D01*
X84070000Y-83570000D02*
X84324000Y-83570000D01*
X83866305Y-85019500D02*
X82987500Y-85019500D01*
X82563000Y-84595000D02*
X81026000Y-84595000D01*
X84836000Y-83566000D02*
X84328000Y-83566000D01*
X84291000Y-83603000D02*
X84328000Y-83566000D01*
X84070000Y-83570000D02*
X84291000Y-83791000D01*
X84291000Y-83791000D02*
X84291000Y-84291000D01*
X84291000Y-84594805D02*
X83866305Y-85019500D01*
X96266000Y-89916000D02*
X95951000Y-89601000D01*
X85778000Y-84064694D02*
X85692653Y-83979347D01*
X87694604Y-89601000D02*
X85778000Y-87684396D01*
X85778000Y-84064695D02*
X85692653Y-83979347D01*
X85692653Y-83979347D02*
X85279305Y-83566000D01*
X95951000Y-89601000D02*
X87694604Y-89601000D01*
X84516000Y-83566000D02*
X84291000Y-83791000D01*
X85778000Y-87684396D02*
X85778000Y-84064694D01*
X82987500Y-85019500D02*
X82563000Y-84595000D01*
X84836000Y-83566000D02*
X84516000Y-83566000D01*
X96266000Y-88138000D02*
X96266000Y-86894000D01*
X83566000Y-82804000D02*
X83300000Y-83070000D01*
X97250000Y-88424000D02*
X96523000Y-89151000D01*
X83566000Y-82804000D02*
X85153701Y-82804000D01*
X85153701Y-82804000D02*
X86228000Y-83878299D01*
X86228000Y-83878299D02*
X86228000Y-87498000D01*
X87881000Y-89151000D02*
X86228000Y-87498000D01*
X83300000Y-83070000D02*
X80499000Y-83070000D01*
X83566000Y-84294500D02*
X83341500Y-84070000D01*
X96523000Y-89151000D02*
X87881000Y-89151000D01*
X97250000Y-86878000D02*
X97250000Y-88424000D01*
X83341500Y-84070000D02*
X80499000Y-84070000D01*
G04 #@! TA.AperFunction,Conductor*
G36*
X93388260Y-71608077D02*
G01*
X128220527Y-71628471D01*
X128239827Y-71629970D01*
X128263724Y-71633691D01*
X128273659Y-71632392D01*
X128274746Y-71632250D01*
X128303431Y-71631793D01*
X128376741Y-71639013D01*
X128406212Y-71641916D01*
X128430432Y-71646733D01*
X128549546Y-71682866D01*
X128572355Y-71692315D01*
X128682124Y-71750987D01*
X128702655Y-71764705D01*
X128798876Y-71843671D01*
X128816329Y-71861124D01*
X128895295Y-71957345D01*
X128909013Y-71977876D01*
X128967685Y-72087645D01*
X128977134Y-72110454D01*
X129013267Y-72229568D01*
X129018084Y-72253789D01*
X129027541Y-72349809D01*
X129027091Y-72365868D01*
X129027800Y-72365877D01*
X129027690Y-72374853D01*
X129026309Y-72383724D01*
X129027473Y-72392626D01*
X129027473Y-72392628D01*
X129030436Y-72415283D01*
X129031500Y-72431621D01*
X129031500Y-95200633D01*
X129030000Y-95220018D01*
X129027858Y-95233777D01*
X129026309Y-95243724D01*
X129027473Y-95252626D01*
X129027750Y-95254746D01*
X129028207Y-95283431D01*
X129022820Y-95338131D01*
X129018084Y-95386212D01*
X129013267Y-95410432D01*
X128977134Y-95529546D01*
X128967685Y-95552355D01*
X128909013Y-95662124D01*
X128895295Y-95682655D01*
X128816329Y-95778876D01*
X128798876Y-95796329D01*
X128702655Y-95875295D01*
X128682124Y-95889013D01*
X128572355Y-95947685D01*
X128549546Y-95957134D01*
X128430432Y-95993267D01*
X128406211Y-95998084D01*
X128310191Y-96007541D01*
X128294132Y-96007091D01*
X128294123Y-96007800D01*
X128285147Y-96007690D01*
X128276276Y-96006309D01*
X128267374Y-96007473D01*
X128267372Y-96007473D01*
X128254856Y-96009110D01*
X128244714Y-96010436D01*
X128228379Y-96011500D01*
X73709367Y-96011500D01*
X73689982Y-96010000D01*
X73675148Y-96007690D01*
X73675145Y-96007690D01*
X73666276Y-96006309D01*
X73656341Y-96007608D01*
X73655254Y-96007750D01*
X73626569Y-96008207D01*
X73553259Y-96000987D01*
X73523788Y-95998084D01*
X73499568Y-95993267D01*
X73380454Y-95957134D01*
X73357645Y-95947685D01*
X73247876Y-95889013D01*
X73227345Y-95875295D01*
X73131124Y-95796329D01*
X73113671Y-95778876D01*
X73034705Y-95682655D01*
X73020987Y-95662124D01*
X72962315Y-95552355D01*
X72952866Y-95529546D01*
X72916733Y-95410432D01*
X72911916Y-95386212D01*
X72902711Y-95292755D01*
X72902607Y-95269151D01*
X72902768Y-95267354D01*
X72903576Y-95262552D01*
X72903729Y-95250000D01*
X72899773Y-95222376D01*
X72898500Y-95204514D01*
X72898500Y-93980000D01*
X73316526Y-93980000D01*
X73336391Y-94232403D01*
X73337545Y-94237210D01*
X73337546Y-94237216D01*
X73371206Y-94377418D01*
X73395495Y-94478591D01*
X73397388Y-94483162D01*
X73397389Y-94483164D01*
X73481415Y-94686020D01*
X73492384Y-94712502D01*
X73624672Y-94928376D01*
X73789102Y-95120898D01*
X73981624Y-95285328D01*
X74197498Y-95417616D01*
X74202068Y-95419509D01*
X74202072Y-95419511D01*
X74405451Y-95503753D01*
X74431409Y-95514505D01*
X74494018Y-95529536D01*
X74672784Y-95572454D01*
X74672790Y-95572455D01*
X74677597Y-95573609D01*
X74777416Y-95581465D01*
X74864345Y-95588307D01*
X74864352Y-95588307D01*
X74866801Y-95588500D01*
X74993199Y-95588500D01*
X74995648Y-95588307D01*
X74995655Y-95588307D01*
X75082584Y-95581465D01*
X75182403Y-95573609D01*
X75187210Y-95572455D01*
X75187216Y-95572454D01*
X75365982Y-95529536D01*
X75428591Y-95514505D01*
X75454549Y-95503753D01*
X75657928Y-95419511D01*
X75657932Y-95419509D01*
X75662502Y-95417616D01*
X75878376Y-95285328D01*
X76070898Y-95120898D01*
X76235328Y-94928376D01*
X76367616Y-94712502D01*
X76378586Y-94686020D01*
X76462611Y-94483164D01*
X76462612Y-94483162D01*
X76464505Y-94478591D01*
X76488794Y-94377418D01*
X76522454Y-94237216D01*
X76522455Y-94237210D01*
X76523609Y-94232403D01*
X76543474Y-93980000D01*
X76523609Y-93727597D01*
X76522379Y-93722470D01*
X76465660Y-93486221D01*
X76464505Y-93481409D01*
X76406269Y-93340814D01*
X76369511Y-93252072D01*
X76369509Y-93252068D01*
X76367616Y-93247498D01*
X76235328Y-93031624D01*
X76070898Y-92839102D01*
X75878376Y-92674672D01*
X75662502Y-92542384D01*
X75657932Y-92540491D01*
X75657928Y-92540489D01*
X75433164Y-92447389D01*
X75433162Y-92447388D01*
X75428591Y-92445495D01*
X75327161Y-92421144D01*
X75187216Y-92387546D01*
X75187210Y-92387545D01*
X75182403Y-92386391D01*
X75082584Y-92378535D01*
X74995655Y-92371693D01*
X74995648Y-92371693D01*
X74993199Y-92371500D01*
X74866801Y-92371500D01*
X74864352Y-92371693D01*
X74864345Y-92371693D01*
X74777416Y-92378535D01*
X74677597Y-92386391D01*
X74672790Y-92387545D01*
X74672784Y-92387546D01*
X74532839Y-92421144D01*
X74431409Y-92445495D01*
X74426838Y-92447388D01*
X74426836Y-92447389D01*
X74202072Y-92540489D01*
X74202068Y-92540491D01*
X74197498Y-92542384D01*
X73981624Y-92674672D01*
X73789102Y-92839102D01*
X73624672Y-93031624D01*
X73492384Y-93247498D01*
X73490491Y-93252068D01*
X73490489Y-93252072D01*
X73453731Y-93340814D01*
X73395495Y-93481409D01*
X73394340Y-93486221D01*
X73337622Y-93722470D01*
X73336391Y-93727597D01*
X73316526Y-93980000D01*
X72898500Y-93980000D01*
X72898500Y-88405768D01*
X74131425Y-88405768D01*
X74163138Y-88513521D01*
X74167731Y-88524889D01*
X74253607Y-88689154D01*
X74260321Y-88699415D01*
X74376468Y-88843873D01*
X74385046Y-88852632D01*
X74527039Y-88971778D01*
X74537159Y-88978708D01*
X74699585Y-89068002D01*
X74710858Y-89072834D01*
X74887538Y-89128880D01*
X74899532Y-89131430D01*
X75043761Y-89147607D01*
X75050785Y-89148000D01*
X75131885Y-89148000D01*
X75147124Y-89143525D01*
X75148329Y-89142135D01*
X75150000Y-89134452D01*
X75150000Y-89129885D01*
X75658000Y-89129885D01*
X75662475Y-89145124D01*
X75663865Y-89146329D01*
X75671548Y-89148000D01*
X75750657Y-89148000D01*
X75756805Y-89147699D01*
X75894603Y-89134188D01*
X75906638Y-89131805D01*
X76084076Y-89078233D01*
X76095416Y-89073559D01*
X76259077Y-88986540D01*
X76269294Y-88979751D01*
X76412933Y-88862603D01*
X76421637Y-88853959D01*
X76539784Y-88711144D01*
X76546644Y-88700973D01*
X76634804Y-88537924D01*
X76639556Y-88526619D01*
X76675250Y-88411308D01*
X76675331Y-88405768D01*
X78061425Y-88405768D01*
X78093138Y-88513521D01*
X78097731Y-88524889D01*
X78183607Y-88689154D01*
X78190321Y-88699415D01*
X78306468Y-88843873D01*
X78315046Y-88852632D01*
X78457039Y-88971778D01*
X78467159Y-88978708D01*
X78629585Y-89068002D01*
X78640858Y-89072834D01*
X78817538Y-89128880D01*
X78829532Y-89131430D01*
X78973761Y-89147607D01*
X78980785Y-89148000D01*
X79311885Y-89148000D01*
X79327124Y-89143525D01*
X79328329Y-89142135D01*
X79330000Y-89134452D01*
X79330000Y-89129885D01*
X79838000Y-89129885D01*
X79842475Y-89145124D01*
X79843865Y-89146329D01*
X79851548Y-89148000D01*
X80180657Y-89148000D01*
X80186805Y-89147699D01*
X80324603Y-89134188D01*
X80336638Y-89131805D01*
X80514076Y-89078233D01*
X80525416Y-89073559D01*
X80689077Y-88986540D01*
X80699294Y-88979751D01*
X80842933Y-88862603D01*
X80851637Y-88853959D01*
X80969784Y-88711144D01*
X80976644Y-88700973D01*
X81064804Y-88537924D01*
X81069556Y-88526619D01*
X81105250Y-88411308D01*
X81105456Y-88397205D01*
X81098701Y-88394000D01*
X79856115Y-88394000D01*
X79840876Y-88398475D01*
X79839671Y-88399865D01*
X79838000Y-88407548D01*
X79838000Y-89129885D01*
X79330000Y-89129885D01*
X79330000Y-88412115D01*
X79325525Y-88396876D01*
X79324135Y-88395671D01*
X79316452Y-88394000D01*
X78076076Y-88394000D01*
X78062545Y-88397973D01*
X78061425Y-88405768D01*
X76675331Y-88405768D01*
X76675456Y-88397205D01*
X76668701Y-88394000D01*
X75676115Y-88394000D01*
X75660876Y-88398475D01*
X75659671Y-88399865D01*
X75658000Y-88407548D01*
X75658000Y-89129885D01*
X75150000Y-89129885D01*
X75150000Y-88412115D01*
X75145525Y-88396876D01*
X75144135Y-88395671D01*
X75136452Y-88394000D01*
X74146076Y-88394000D01*
X74132545Y-88397973D01*
X74131425Y-88405768D01*
X72898500Y-88405768D01*
X72898500Y-87882795D01*
X74132544Y-87882795D01*
X74139299Y-87886000D01*
X75131885Y-87886000D01*
X75147124Y-87881525D01*
X75148329Y-87880135D01*
X75150000Y-87872452D01*
X75150000Y-87867885D01*
X75658000Y-87867885D01*
X75662475Y-87883124D01*
X75663865Y-87884329D01*
X75671548Y-87886000D01*
X76661924Y-87886000D01*
X76675455Y-87882027D01*
X76676575Y-87874232D01*
X76644862Y-87766479D01*
X76640269Y-87755111D01*
X76554393Y-87590846D01*
X76547679Y-87580585D01*
X76431532Y-87436127D01*
X76422954Y-87427368D01*
X76280961Y-87308222D01*
X76270841Y-87301292D01*
X76108415Y-87211998D01*
X76097142Y-87207166D01*
X75920462Y-87151120D01*
X75908468Y-87148570D01*
X75764239Y-87132393D01*
X75757215Y-87132000D01*
X75676115Y-87132000D01*
X75660876Y-87136475D01*
X75659671Y-87137865D01*
X75658000Y-87145548D01*
X75658000Y-87867885D01*
X75150000Y-87867885D01*
X75150000Y-87150115D01*
X75145525Y-87134876D01*
X75144135Y-87133671D01*
X75136452Y-87132000D01*
X75057343Y-87132000D01*
X75051195Y-87132301D01*
X74913397Y-87145812D01*
X74901362Y-87148195D01*
X74723924Y-87201767D01*
X74712584Y-87206441D01*
X74548923Y-87293460D01*
X74538706Y-87300249D01*
X74395067Y-87417397D01*
X74386363Y-87426041D01*
X74268216Y-87568856D01*
X74261356Y-87579027D01*
X74173196Y-87742076D01*
X74168444Y-87753381D01*
X74132750Y-87868692D01*
X74132544Y-87882795D01*
X72898500Y-87882795D01*
X72898500Y-79765768D01*
X74131425Y-79765768D01*
X74163138Y-79873521D01*
X74167731Y-79884889D01*
X74253607Y-80049154D01*
X74260321Y-80059415D01*
X74376468Y-80203873D01*
X74385046Y-80212632D01*
X74527039Y-80331778D01*
X74537159Y-80338708D01*
X74699585Y-80428002D01*
X74710858Y-80432834D01*
X74887538Y-80488880D01*
X74899532Y-80491430D01*
X75043761Y-80507607D01*
X75050785Y-80508000D01*
X75131885Y-80508000D01*
X75147124Y-80503525D01*
X75148329Y-80502135D01*
X75150000Y-80494452D01*
X75150000Y-80489885D01*
X75658000Y-80489885D01*
X75662475Y-80505124D01*
X75663865Y-80506329D01*
X75671548Y-80508000D01*
X75750657Y-80508000D01*
X75756805Y-80507699D01*
X75894603Y-80494188D01*
X75906638Y-80491805D01*
X76084076Y-80438233D01*
X76095416Y-80433559D01*
X76259077Y-80346540D01*
X76269294Y-80339751D01*
X76412933Y-80222603D01*
X76421637Y-80213959D01*
X76539784Y-80071144D01*
X76546644Y-80060973D01*
X76634804Y-79897924D01*
X76639556Y-79886619D01*
X76675250Y-79771308D01*
X76675331Y-79765768D01*
X78061425Y-79765768D01*
X78093138Y-79873521D01*
X78097731Y-79884889D01*
X78183607Y-80049154D01*
X78190321Y-80059415D01*
X78306468Y-80203873D01*
X78315045Y-80212632D01*
X78367110Y-80256319D01*
X78406436Y-80315428D01*
X78407563Y-80386416D01*
X78390331Y-80423663D01*
X78313723Y-80536388D01*
X78246470Y-80704534D01*
X78245356Y-80711262D01*
X78245355Y-80711266D01*
X78218007Y-80876461D01*
X78216892Y-80883198D01*
X78217249Y-80890015D01*
X78217249Y-80890019D01*
X78222474Y-80989703D01*
X78226370Y-81064047D01*
X78228181Y-81070620D01*
X78228181Y-81070623D01*
X78232030Y-81084596D01*
X78274461Y-81238641D01*
X78358922Y-81398836D01*
X78363327Y-81404049D01*
X78363330Y-81404053D01*
X78471406Y-81531943D01*
X78471410Y-81531947D01*
X78475813Y-81537157D01*
X78481237Y-81541304D01*
X78481238Y-81541305D01*
X78614257Y-81643006D01*
X78614261Y-81643009D01*
X78619678Y-81647150D01*
X78724814Y-81696175D01*
X78777631Y-81720805D01*
X78777634Y-81720806D01*
X78783808Y-81723685D01*
X78790456Y-81725171D01*
X78790459Y-81725172D01*
X78896421Y-81748857D01*
X78960543Y-81763190D01*
X78966088Y-81763500D01*
X79099244Y-81763500D01*
X79125892Y-81760605D01*
X79195774Y-81773133D01*
X79247790Y-81821453D01*
X79265500Y-81885868D01*
X79265500Y-82268134D01*
X79265869Y-82271529D01*
X79265869Y-82271533D01*
X79269656Y-82306393D01*
X79269656Y-82333606D01*
X79265500Y-82371866D01*
X79265500Y-82768134D01*
X79265869Y-82771529D01*
X79265869Y-82771533D01*
X79269656Y-82806393D01*
X79269656Y-82833607D01*
X79266345Y-82864091D01*
X79265500Y-82871866D01*
X79265500Y-83268134D01*
X79265869Y-83271529D01*
X79265869Y-83271533D01*
X79269656Y-83306393D01*
X79269656Y-83333606D01*
X79265500Y-83371866D01*
X79265500Y-83768134D01*
X79265869Y-83771529D01*
X79265869Y-83771533D01*
X79269656Y-83806393D01*
X79269656Y-83833606D01*
X79265500Y-83871866D01*
X79265500Y-84268134D01*
X79265869Y-84271529D01*
X79265869Y-84271533D01*
X79269656Y-84306393D01*
X79269656Y-84333606D01*
X79265500Y-84371866D01*
X79265500Y-84768134D01*
X79265869Y-84771529D01*
X79265869Y-84771533D01*
X79269656Y-84806393D01*
X79269656Y-84833606D01*
X79265500Y-84871866D01*
X79265500Y-85268134D01*
X79265869Y-85271529D01*
X79265869Y-85271533D01*
X79269656Y-85306393D01*
X79269656Y-85333606D01*
X79265500Y-85371866D01*
X79265500Y-85750500D01*
X79245498Y-85818621D01*
X79191842Y-85865114D01*
X79139500Y-85876500D01*
X79008756Y-85876500D01*
X78873963Y-85891143D01*
X78755810Y-85930906D01*
X78708796Y-85946728D01*
X78708794Y-85946729D01*
X78702325Y-85948906D01*
X78547095Y-86042177D01*
X78542138Y-86046865D01*
X78542135Y-86046867D01*
X78445501Y-86138250D01*
X78415515Y-86166607D01*
X78411683Y-86172245D01*
X78411680Y-86172249D01*
X78336221Y-86283283D01*
X78313723Y-86316388D01*
X78246470Y-86484534D01*
X78245356Y-86491262D01*
X78245355Y-86491266D01*
X78242890Y-86506158D01*
X78216892Y-86663198D01*
X78217249Y-86670015D01*
X78217249Y-86670019D01*
X78220499Y-86732022D01*
X78226370Y-86844047D01*
X78228181Y-86850620D01*
X78228181Y-86850623D01*
X78254678Y-86946818D01*
X78274461Y-87018641D01*
X78358922Y-87178836D01*
X78363327Y-87184049D01*
X78363330Y-87184053D01*
X78381694Y-87205783D01*
X78410386Y-87270724D01*
X78399413Y-87340868D01*
X78365092Y-87384754D01*
X78325067Y-87417397D01*
X78316363Y-87426041D01*
X78198216Y-87568856D01*
X78191356Y-87579027D01*
X78103196Y-87742076D01*
X78098444Y-87753381D01*
X78062750Y-87868692D01*
X78062544Y-87882795D01*
X78069299Y-87886000D01*
X79311885Y-87886000D01*
X79327124Y-87881525D01*
X79328329Y-87880135D01*
X79330000Y-87872452D01*
X79330000Y-87585830D01*
X79350002Y-87517709D01*
X79402218Y-87472257D01*
X79405675Y-87471094D01*
X79560905Y-87377823D01*
X79565862Y-87373135D01*
X79565865Y-87373133D01*
X79625427Y-87316807D01*
X79688664Y-87284535D01*
X79759311Y-87291575D01*
X79814937Y-87335691D01*
X79838000Y-87408355D01*
X79838000Y-87867885D01*
X79842475Y-87883124D01*
X79843865Y-87884329D01*
X79851548Y-87886000D01*
X80226885Y-87886000D01*
X80242124Y-87881525D01*
X80243329Y-87880135D01*
X80245000Y-87872452D01*
X80245000Y-87342115D01*
X80240525Y-87326876D01*
X80229947Y-87317710D01*
X80185786Y-87293596D01*
X80151761Y-87231284D01*
X80156825Y-87160468D01*
X80199372Y-87103632D01*
X80265892Y-87078821D01*
X80274881Y-87078500D01*
X80627000Y-87078500D01*
X80695121Y-87098502D01*
X80741614Y-87152158D01*
X80753000Y-87204500D01*
X80753000Y-87867885D01*
X80757475Y-87883124D01*
X80758865Y-87884329D01*
X80766548Y-87886000D01*
X81091924Y-87886000D01*
X81101790Y-87883103D01*
X81137288Y-87877999D01*
X81268669Y-87877999D01*
X81275490Y-87877629D01*
X81326352Y-87872105D01*
X81341604Y-87868479D01*
X81462054Y-87823324D01*
X81477649Y-87814786D01*
X81579724Y-87738285D01*
X81592285Y-87725724D01*
X81668786Y-87623649D01*
X81677324Y-87608054D01*
X81722478Y-87487606D01*
X81726105Y-87472351D01*
X81731631Y-87421486D01*
X81732000Y-87414672D01*
X81732000Y-87297391D01*
X81752002Y-87229270D01*
X81805658Y-87182777D01*
X81875932Y-87172673D01*
X81909247Y-87182283D01*
X81971922Y-87210188D01*
X81989345Y-87217945D01*
X82013712Y-87228794D01*
X82107113Y-87248647D01*
X82194056Y-87267128D01*
X82194061Y-87267128D01*
X82200513Y-87268500D01*
X82391487Y-87268500D01*
X82397939Y-87267128D01*
X82397944Y-87267128D01*
X82484887Y-87248647D01*
X82578288Y-87228794D01*
X82602656Y-87217945D01*
X82752752Y-87151118D01*
X82753677Y-87153196D01*
X82812488Y-87138924D01*
X82879581Y-87162141D01*
X82923472Y-87217945D01*
X82932500Y-87264782D01*
X82932500Y-87569405D01*
X82912498Y-87637526D01*
X82895595Y-87658500D01*
X80887747Y-89666348D01*
X80879461Y-89673888D01*
X80872982Y-89678000D01*
X80867557Y-89683777D01*
X80826357Y-89727651D01*
X80823602Y-89730493D01*
X80803865Y-89750230D01*
X80801385Y-89753427D01*
X80793682Y-89762447D01*
X80763414Y-89794679D01*
X80759595Y-89801625D01*
X80759593Y-89801628D01*
X80753652Y-89812434D01*
X80742801Y-89828953D01*
X80730386Y-89844959D01*
X80727241Y-89852228D01*
X80727238Y-89852232D01*
X80712826Y-89885537D01*
X80707609Y-89896187D01*
X80686305Y-89934940D01*
X80684334Y-89942615D01*
X80684334Y-89942616D01*
X80681267Y-89954562D01*
X80674863Y-89973266D01*
X80666819Y-89991855D01*
X80665580Y-89999678D01*
X80665577Y-89999688D01*
X80659901Y-90035524D01*
X80657495Y-90047144D01*
X80649174Y-90079556D01*
X80646500Y-90089970D01*
X80646500Y-90110224D01*
X80644949Y-90129934D01*
X80641780Y-90149943D01*
X80642526Y-90157835D01*
X80645941Y-90193961D01*
X80646500Y-90205819D01*
X80646500Y-92495500D01*
X80626498Y-92563621D01*
X80572842Y-92610114D01*
X80520500Y-92621500D01*
X80381866Y-92621500D01*
X80319684Y-92628255D01*
X80183295Y-92679385D01*
X80066739Y-92766739D01*
X79979385Y-92883295D01*
X79928255Y-93019684D01*
X79921500Y-93081866D01*
X79921500Y-94878134D01*
X79928255Y-94940316D01*
X79979385Y-95076705D01*
X80066739Y-95193261D01*
X80183295Y-95280615D01*
X80319684Y-95331745D01*
X80381866Y-95338500D01*
X82178134Y-95338500D01*
X82240316Y-95331745D01*
X82376705Y-95280615D01*
X82493261Y-95193261D01*
X82580615Y-95076705D01*
X82602799Y-95017529D01*
X82624598Y-94959382D01*
X82667240Y-94902618D01*
X82733802Y-94877918D01*
X82803150Y-94893126D01*
X82837817Y-94921114D01*
X82866250Y-94953938D01*
X83038126Y-95096632D01*
X83231000Y-95209338D01*
X83235825Y-95211180D01*
X83235826Y-95211181D01*
X83298527Y-95235124D01*
X83439692Y-95289030D01*
X83444760Y-95290061D01*
X83444763Y-95290062D01*
X83539862Y-95309410D01*
X83658597Y-95333567D01*
X83663772Y-95333757D01*
X83663774Y-95333757D01*
X83876673Y-95341564D01*
X83876677Y-95341564D01*
X83881837Y-95341753D01*
X83886957Y-95341097D01*
X83886959Y-95341097D01*
X84098288Y-95314025D01*
X84098289Y-95314025D01*
X84103416Y-95313368D01*
X84108366Y-95311883D01*
X84312429Y-95250661D01*
X84312434Y-95250659D01*
X84317384Y-95249174D01*
X84517994Y-95150896D01*
X84699860Y-95021173D01*
X84732079Y-94989067D01*
X84843616Y-94877918D01*
X84858096Y-94863489D01*
X84875892Y-94838724D01*
X84988453Y-94682077D01*
X84989640Y-94682930D01*
X85036960Y-94639362D01*
X85106897Y-94627145D01*
X85172338Y-94654678D01*
X85200166Y-94686511D01*
X85257694Y-94780388D01*
X85263777Y-94788699D01*
X85403213Y-94949667D01*
X85410580Y-94956883D01*
X85574434Y-95092916D01*
X85582881Y-95098831D01*
X85766756Y-95206279D01*
X85776042Y-95210729D01*
X85975001Y-95286703D01*
X85984899Y-95289579D01*
X86088250Y-95310606D01*
X86102299Y-95309410D01*
X86106000Y-95299065D01*
X86106000Y-95298517D01*
X86614000Y-95298517D01*
X86618064Y-95312359D01*
X86631478Y-95314393D01*
X86638184Y-95313534D01*
X86648262Y-95311392D01*
X86852255Y-95250191D01*
X86861842Y-95246433D01*
X87053095Y-95152739D01*
X87061945Y-95147464D01*
X87235328Y-95023792D01*
X87243200Y-95017139D01*
X87394052Y-94866812D01*
X87400730Y-94858965D01*
X87525003Y-94686020D01*
X87530313Y-94677183D01*
X87624670Y-94486267D01*
X87628469Y-94476672D01*
X87690377Y-94272910D01*
X87692555Y-94262837D01*
X87693986Y-94251962D01*
X87691775Y-94237778D01*
X87678617Y-94234000D01*
X86632115Y-94234000D01*
X86616876Y-94238475D01*
X86615671Y-94239865D01*
X86614000Y-94247548D01*
X86614000Y-95298517D01*
X86106000Y-95298517D01*
X86106000Y-93707885D01*
X86614000Y-93707885D01*
X86618475Y-93723124D01*
X86619865Y-93724329D01*
X86627548Y-93726000D01*
X87678344Y-93726000D01*
X87691875Y-93722027D01*
X87693180Y-93712947D01*
X87651214Y-93545875D01*
X87647894Y-93536124D01*
X87562972Y-93340814D01*
X87558105Y-93331739D01*
X87442426Y-93152926D01*
X87436136Y-93144757D01*
X87292806Y-92987240D01*
X87285273Y-92980215D01*
X87118139Y-92848222D01*
X87109552Y-92842517D01*
X86923117Y-92739599D01*
X86913705Y-92735369D01*
X86712959Y-92664280D01*
X86702988Y-92661646D01*
X86631837Y-92648972D01*
X86618540Y-92650432D01*
X86614000Y-92664989D01*
X86614000Y-93707885D01*
X86106000Y-93707885D01*
X86106000Y-92663102D01*
X86102082Y-92649758D01*
X86087806Y-92647771D01*
X86049324Y-92653660D01*
X86039288Y-92656051D01*
X85836868Y-92722212D01*
X85827359Y-92726209D01*
X85638463Y-92824542D01*
X85629738Y-92830036D01*
X85459433Y-92957905D01*
X85451726Y-92964748D01*
X85304590Y-93118717D01*
X85298109Y-93126722D01*
X85193498Y-93280074D01*
X85138587Y-93325076D01*
X85068062Y-93333247D01*
X85004315Y-93301993D01*
X84983618Y-93277509D01*
X84902822Y-93152617D01*
X84902820Y-93152614D01*
X84900014Y-93148277D01*
X84749670Y-92983051D01*
X84745619Y-92979852D01*
X84745615Y-92979848D01*
X84578414Y-92847800D01*
X84578410Y-92847798D01*
X84574359Y-92844598D01*
X84569835Y-92842101D01*
X84569831Y-92842098D01*
X84518608Y-92813822D01*
X84468636Y-92763390D01*
X84453500Y-92703513D01*
X84453500Y-89214594D01*
X84473502Y-89146473D01*
X84490405Y-89125499D01*
X85317707Y-88298197D01*
X85380019Y-88264171D01*
X85450834Y-88269236D01*
X85495897Y-88298197D01*
X87190947Y-89993247D01*
X87198491Y-90001537D01*
X87202604Y-90008018D01*
X87208381Y-90013443D01*
X87252271Y-90054658D01*
X87255113Y-90057413D01*
X87274834Y-90077134D01*
X87278029Y-90079612D01*
X87287051Y-90087318D01*
X87319283Y-90117586D01*
X87326232Y-90121406D01*
X87337036Y-90127346D01*
X87353560Y-90138199D01*
X87369563Y-90150613D01*
X87410147Y-90168176D01*
X87420777Y-90173383D01*
X87459544Y-90194695D01*
X87467221Y-90196666D01*
X87467226Y-90196668D01*
X87479162Y-90199732D01*
X87497870Y-90206137D01*
X87516459Y-90214181D01*
X87524284Y-90215420D01*
X87524286Y-90215421D01*
X87560123Y-90221097D01*
X87571744Y-90223504D01*
X87605452Y-90232158D01*
X87614574Y-90234500D01*
X87634835Y-90234500D01*
X87654544Y-90236051D01*
X87674547Y-90239219D01*
X87682439Y-90238473D01*
X87687666Y-90237979D01*
X87718558Y-90235059D01*
X87730415Y-90234500D01*
X90403480Y-90234500D01*
X90471601Y-90254502D01*
X90518094Y-90308158D01*
X90528790Y-90347329D01*
X90538245Y-90437288D01*
X90546458Y-90515428D01*
X90605473Y-90697056D01*
X90700960Y-90862444D01*
X90774137Y-90943715D01*
X90804853Y-91007721D01*
X90806500Y-91028024D01*
X90806500Y-92377233D01*
X90805973Y-92388416D01*
X90804298Y-92395909D01*
X90804547Y-92403835D01*
X90804547Y-92403836D01*
X90806438Y-92463986D01*
X90806500Y-92467945D01*
X90806500Y-92495500D01*
X90786498Y-92563621D01*
X90732842Y-92610114D01*
X90680500Y-92621500D01*
X90546866Y-92621500D01*
X90484684Y-92628255D01*
X90348295Y-92679385D01*
X90231739Y-92766739D01*
X90144385Y-92883295D01*
X90093255Y-93019684D01*
X90086500Y-93081866D01*
X90086500Y-94878134D01*
X90093255Y-94940316D01*
X90144385Y-95076705D01*
X90231739Y-95193261D01*
X90348295Y-95280615D01*
X90484684Y-95331745D01*
X90546866Y-95338500D01*
X92343134Y-95338500D01*
X92405316Y-95331745D01*
X92541705Y-95280615D01*
X92658261Y-95193261D01*
X92745615Y-95076705D01*
X92767799Y-95017529D01*
X92789598Y-94959382D01*
X92832240Y-94902618D01*
X92898802Y-94877918D01*
X92968150Y-94893126D01*
X93002817Y-94921114D01*
X93031250Y-94953938D01*
X93203126Y-95096632D01*
X93396000Y-95209338D01*
X93400825Y-95211180D01*
X93400826Y-95211181D01*
X93463527Y-95235124D01*
X93604692Y-95289030D01*
X93609760Y-95290061D01*
X93609763Y-95290062D01*
X93704862Y-95309410D01*
X93823597Y-95333567D01*
X93828772Y-95333757D01*
X93828774Y-95333757D01*
X94041673Y-95341564D01*
X94041677Y-95341564D01*
X94046837Y-95341753D01*
X94051957Y-95341097D01*
X94051959Y-95341097D01*
X94263288Y-95314025D01*
X94263289Y-95314025D01*
X94268416Y-95313368D01*
X94273366Y-95311883D01*
X94477429Y-95250661D01*
X94477434Y-95250659D01*
X94482384Y-95249174D01*
X94682994Y-95150896D01*
X94864860Y-95021173D01*
X94897079Y-94989067D01*
X95008616Y-94877918D01*
X95023096Y-94863489D01*
X95040892Y-94838724D01*
X95153453Y-94682077D01*
X95154776Y-94683028D01*
X95201645Y-94639857D01*
X95271580Y-94627625D01*
X95337026Y-94655144D01*
X95364875Y-94686994D01*
X95424987Y-94785088D01*
X95571250Y-94953938D01*
X95743126Y-95096632D01*
X95936000Y-95209338D01*
X95940825Y-95211180D01*
X95940826Y-95211181D01*
X96003527Y-95235124D01*
X96144692Y-95289030D01*
X96149760Y-95290061D01*
X96149763Y-95290062D01*
X96244862Y-95309410D01*
X96363597Y-95333567D01*
X96368772Y-95333757D01*
X96368774Y-95333757D01*
X96581673Y-95341564D01*
X96581677Y-95341564D01*
X96586837Y-95341753D01*
X96591957Y-95341097D01*
X96591959Y-95341097D01*
X96803288Y-95314025D01*
X96803289Y-95314025D01*
X96808416Y-95313368D01*
X96813366Y-95311883D01*
X97017429Y-95250661D01*
X97017434Y-95250659D01*
X97022384Y-95249174D01*
X97222994Y-95150896D01*
X97404860Y-95021173D01*
X97437079Y-94989067D01*
X97548616Y-94877918D01*
X97563096Y-94863489D01*
X97580892Y-94838724D01*
X97693453Y-94682077D01*
X97694776Y-94683028D01*
X97741645Y-94639857D01*
X97811580Y-94627625D01*
X97877026Y-94655144D01*
X97904875Y-94686994D01*
X97964987Y-94785088D01*
X98111250Y-94953938D01*
X98283126Y-95096632D01*
X98476000Y-95209338D01*
X98480825Y-95211180D01*
X98480826Y-95211181D01*
X98543527Y-95235124D01*
X98684692Y-95289030D01*
X98689760Y-95290061D01*
X98689763Y-95290062D01*
X98784862Y-95309410D01*
X98903597Y-95333567D01*
X98908772Y-95333757D01*
X98908774Y-95333757D01*
X99121673Y-95341564D01*
X99121677Y-95341564D01*
X99126837Y-95341753D01*
X99131957Y-95341097D01*
X99131959Y-95341097D01*
X99343288Y-95314025D01*
X99343289Y-95314025D01*
X99348416Y-95313368D01*
X99353366Y-95311883D01*
X99557429Y-95250661D01*
X99557434Y-95250659D01*
X99562384Y-95249174D01*
X99762994Y-95150896D01*
X99944860Y-95021173D01*
X99977079Y-94989067D01*
X100088616Y-94877918D01*
X100103096Y-94863489D01*
X100120892Y-94838724D01*
X100233453Y-94682077D01*
X100234640Y-94682930D01*
X100281960Y-94639362D01*
X100351897Y-94627145D01*
X100417338Y-94654678D01*
X100445166Y-94686511D01*
X100502694Y-94780388D01*
X100508777Y-94788699D01*
X100648213Y-94949667D01*
X100655580Y-94956883D01*
X100819434Y-95092916D01*
X100827881Y-95098831D01*
X101011756Y-95206279D01*
X101021042Y-95210729D01*
X101220001Y-95286703D01*
X101229899Y-95289579D01*
X101333250Y-95310606D01*
X101347299Y-95309410D01*
X101351000Y-95299065D01*
X101351000Y-95298517D01*
X101859000Y-95298517D01*
X101863064Y-95312359D01*
X101876478Y-95314393D01*
X101883184Y-95313534D01*
X101893262Y-95311392D01*
X102097255Y-95250191D01*
X102106842Y-95246433D01*
X102298095Y-95152739D01*
X102306945Y-95147464D01*
X102480328Y-95023792D01*
X102488200Y-95017139D01*
X102639052Y-94866812D01*
X102645730Y-94858965D01*
X102770003Y-94686020D01*
X102775313Y-94677183D01*
X102869670Y-94486267D01*
X102873469Y-94476672D01*
X102935377Y-94272910D01*
X102937555Y-94262837D01*
X102938986Y-94251962D01*
X102938326Y-94247728D01*
X104946114Y-94247728D01*
X104946166Y-94247973D01*
X105008898Y-94451883D01*
X105013119Y-94462229D01*
X105110971Y-94651814D01*
X105116957Y-94661245D01*
X105246832Y-94830501D01*
X105254393Y-94838724D01*
X105412194Y-94982312D01*
X105421094Y-94989067D01*
X105601815Y-95102434D01*
X105611781Y-95107511D01*
X105809714Y-95187080D01*
X105820429Y-95190315D01*
X106030301Y-95233777D01*
X106039438Y-95234980D01*
X106089990Y-95237895D01*
X106093637Y-95238000D01*
X106407885Y-95238000D01*
X106423124Y-95233525D01*
X106424329Y-95232135D01*
X106426000Y-95224452D01*
X106426000Y-95219885D01*
X106934000Y-95219885D01*
X106938475Y-95235124D01*
X106939865Y-95236329D01*
X106947548Y-95238000D01*
X107234175Y-95238000D01*
X107239770Y-95237751D01*
X107398078Y-95223622D01*
X107409092Y-95221640D01*
X107614860Y-95165349D01*
X107625341Y-95161451D01*
X107817903Y-95069603D01*
X107827516Y-95063918D01*
X108000767Y-94939425D01*
X108009233Y-94932117D01*
X108157692Y-94778918D01*
X108164735Y-94770221D01*
X108283719Y-94593156D01*
X108289105Y-94583358D01*
X108374857Y-94388010D01*
X108378422Y-94377418D01*
X108408624Y-94251616D01*
X108408429Y-94247728D01*
X110534114Y-94247728D01*
X110534166Y-94247973D01*
X110596898Y-94451883D01*
X110601119Y-94462229D01*
X110698971Y-94651814D01*
X110704957Y-94661245D01*
X110834832Y-94830501D01*
X110842393Y-94838724D01*
X111000194Y-94982312D01*
X111009094Y-94989067D01*
X111189815Y-95102434D01*
X111199781Y-95107511D01*
X111397714Y-95187080D01*
X111408429Y-95190315D01*
X111618301Y-95233777D01*
X111627438Y-95234980D01*
X111677990Y-95237895D01*
X111681637Y-95238000D01*
X111995885Y-95238000D01*
X112011124Y-95233525D01*
X112012329Y-95232135D01*
X112014000Y-95224452D01*
X112014000Y-95219885D01*
X112522000Y-95219885D01*
X112526475Y-95235124D01*
X112527865Y-95236329D01*
X112535548Y-95238000D01*
X112822175Y-95238000D01*
X112827770Y-95237751D01*
X112986078Y-95223622D01*
X112997092Y-95221640D01*
X113202860Y-95165349D01*
X113213341Y-95161451D01*
X113405903Y-95069603D01*
X113415516Y-95063918D01*
X113588767Y-94939425D01*
X113597233Y-94932117D01*
X113745692Y-94778918D01*
X113752735Y-94770221D01*
X113871719Y-94593156D01*
X113877105Y-94583358D01*
X113962857Y-94388010D01*
X113966422Y-94377418D01*
X113996624Y-94251616D01*
X113996429Y-94247728D01*
X116122114Y-94247728D01*
X116122166Y-94247973D01*
X116184898Y-94451883D01*
X116189119Y-94462229D01*
X116286971Y-94651814D01*
X116292957Y-94661245D01*
X116422832Y-94830501D01*
X116430393Y-94838724D01*
X116588194Y-94982312D01*
X116597094Y-94989067D01*
X116777815Y-95102434D01*
X116787781Y-95107511D01*
X116985714Y-95187080D01*
X116996429Y-95190315D01*
X117206301Y-95233777D01*
X117215438Y-95234980D01*
X117265990Y-95237895D01*
X117269637Y-95238000D01*
X117583885Y-95238000D01*
X117599124Y-95233525D01*
X117600329Y-95232135D01*
X117602000Y-95224452D01*
X117602000Y-95219885D01*
X118110000Y-95219885D01*
X118114475Y-95235124D01*
X118115865Y-95236329D01*
X118123548Y-95238000D01*
X118410175Y-95238000D01*
X118415770Y-95237751D01*
X118574078Y-95223622D01*
X118585092Y-95221640D01*
X118790860Y-95165349D01*
X118801341Y-95161451D01*
X118993903Y-95069603D01*
X119003516Y-95063918D01*
X119176767Y-94939425D01*
X119185233Y-94932117D01*
X119333692Y-94778918D01*
X119340735Y-94770221D01*
X119459719Y-94593156D01*
X119465105Y-94583358D01*
X119550857Y-94388010D01*
X119554422Y-94377418D01*
X119584624Y-94251616D01*
X119583919Y-94237530D01*
X119575040Y-94234000D01*
X118128115Y-94234000D01*
X118112876Y-94238475D01*
X118111671Y-94239865D01*
X118110000Y-94247548D01*
X118110000Y-95219885D01*
X117602000Y-95219885D01*
X117602000Y-94252115D01*
X117597525Y-94236876D01*
X117596135Y-94235671D01*
X117588452Y-94234000D01*
X116137589Y-94234000D01*
X116123607Y-94238105D01*
X116122114Y-94247728D01*
X113996429Y-94247728D01*
X113995919Y-94237530D01*
X113987040Y-94234000D01*
X112540115Y-94234000D01*
X112524876Y-94238475D01*
X112523671Y-94239865D01*
X112522000Y-94247548D01*
X112522000Y-95219885D01*
X112014000Y-95219885D01*
X112014000Y-94252115D01*
X112009525Y-94236876D01*
X112008135Y-94235671D01*
X112000452Y-94234000D01*
X110549589Y-94234000D01*
X110535607Y-94238105D01*
X110534114Y-94247728D01*
X108408429Y-94247728D01*
X108407919Y-94237530D01*
X108399040Y-94234000D01*
X106952115Y-94234000D01*
X106936876Y-94238475D01*
X106935671Y-94239865D01*
X106934000Y-94247548D01*
X106934000Y-95219885D01*
X106426000Y-95219885D01*
X106426000Y-94252115D01*
X106421525Y-94236876D01*
X106420135Y-94235671D01*
X106412452Y-94234000D01*
X104961589Y-94234000D01*
X104947607Y-94238105D01*
X104946114Y-94247728D01*
X102938326Y-94247728D01*
X102936775Y-94237778D01*
X102923617Y-94234000D01*
X101877115Y-94234000D01*
X101861876Y-94238475D01*
X101860671Y-94239865D01*
X101859000Y-94247548D01*
X101859000Y-95298517D01*
X101351000Y-95298517D01*
X101351000Y-93980000D01*
X125386526Y-93980000D01*
X125406391Y-94232403D01*
X125407545Y-94237210D01*
X125407546Y-94237216D01*
X125441206Y-94377418D01*
X125465495Y-94478591D01*
X125467388Y-94483162D01*
X125467389Y-94483164D01*
X125551415Y-94686020D01*
X125562384Y-94712502D01*
X125694672Y-94928376D01*
X125859102Y-95120898D01*
X126051624Y-95285328D01*
X126267498Y-95417616D01*
X126272068Y-95419509D01*
X126272072Y-95419511D01*
X126475451Y-95503753D01*
X126501409Y-95514505D01*
X126564018Y-95529536D01*
X126742784Y-95572454D01*
X126742790Y-95572455D01*
X126747597Y-95573609D01*
X126847416Y-95581465D01*
X126934345Y-95588307D01*
X126934352Y-95588307D01*
X126936801Y-95588500D01*
X127063199Y-95588500D01*
X127065648Y-95588307D01*
X127065655Y-95588307D01*
X127152584Y-95581465D01*
X127252403Y-95573609D01*
X127257210Y-95572455D01*
X127257216Y-95572454D01*
X127435982Y-95529536D01*
X127498591Y-95514505D01*
X127524549Y-95503753D01*
X127727928Y-95419511D01*
X127727932Y-95419509D01*
X127732502Y-95417616D01*
X127948376Y-95285328D01*
X128140898Y-95120898D01*
X128305328Y-94928376D01*
X128437616Y-94712502D01*
X128448586Y-94686020D01*
X128532611Y-94483164D01*
X128532612Y-94483162D01*
X128534505Y-94478591D01*
X128558794Y-94377418D01*
X128592454Y-94237216D01*
X128592455Y-94237210D01*
X128593609Y-94232403D01*
X128613474Y-93980000D01*
X128593609Y-93727597D01*
X128592379Y-93722470D01*
X128535660Y-93486221D01*
X128534505Y-93481409D01*
X128476269Y-93340814D01*
X128439511Y-93252072D01*
X128439509Y-93252068D01*
X128437616Y-93247498D01*
X128305328Y-93031624D01*
X128140898Y-92839102D01*
X127948376Y-92674672D01*
X127732502Y-92542384D01*
X127727932Y-92540491D01*
X127727928Y-92540489D01*
X127503164Y-92447389D01*
X127503162Y-92447388D01*
X127498591Y-92445495D01*
X127397161Y-92421144D01*
X127257216Y-92387546D01*
X127257210Y-92387545D01*
X127252403Y-92386391D01*
X127152584Y-92378535D01*
X127065655Y-92371693D01*
X127065648Y-92371693D01*
X127063199Y-92371500D01*
X126936801Y-92371500D01*
X126934352Y-92371693D01*
X126934345Y-92371693D01*
X126847416Y-92378535D01*
X126747597Y-92386391D01*
X126742790Y-92387545D01*
X126742784Y-92387546D01*
X126602839Y-92421144D01*
X126501409Y-92445495D01*
X126496838Y-92447388D01*
X126496836Y-92447389D01*
X126272072Y-92540489D01*
X126272068Y-92540491D01*
X126267498Y-92542384D01*
X126051624Y-92674672D01*
X125859102Y-92839102D01*
X125694672Y-93031624D01*
X125562384Y-93247498D01*
X125560491Y-93252068D01*
X125560489Y-93252072D01*
X125523731Y-93340814D01*
X125465495Y-93481409D01*
X125464340Y-93486221D01*
X125407622Y-93722470D01*
X125406391Y-93727597D01*
X125386526Y-93980000D01*
X101351000Y-93980000D01*
X101351000Y-93707885D01*
X101859000Y-93707885D01*
X101863475Y-93723124D01*
X101864865Y-93724329D01*
X101872548Y-93726000D01*
X102923344Y-93726000D01*
X102936875Y-93722027D01*
X102938180Y-93712947D01*
X102896214Y-93545875D01*
X102892894Y-93536124D01*
X102807972Y-93340814D01*
X102803105Y-93331739D01*
X102687426Y-93152926D01*
X102681136Y-93144757D01*
X102537806Y-92987240D01*
X102530273Y-92980215D01*
X102363139Y-92848222D01*
X102354552Y-92842517D01*
X102168117Y-92739599D01*
X102158705Y-92735369D01*
X101957959Y-92664280D01*
X101947988Y-92661646D01*
X101876837Y-92648972D01*
X101863540Y-92650432D01*
X101859000Y-92664989D01*
X101859000Y-93707885D01*
X101351000Y-93707885D01*
X101351000Y-92663102D01*
X101347082Y-92649758D01*
X101332806Y-92647771D01*
X101294324Y-92653660D01*
X101284288Y-92656051D01*
X101081868Y-92722212D01*
X101072359Y-92726209D01*
X100883463Y-92824542D01*
X100874738Y-92830036D01*
X100704433Y-92957905D01*
X100696726Y-92964748D01*
X100549590Y-93118717D01*
X100543109Y-93126722D01*
X100438498Y-93280074D01*
X100383587Y-93325076D01*
X100313062Y-93333247D01*
X100249315Y-93301993D01*
X100228618Y-93277509D01*
X100147822Y-93152617D01*
X100147820Y-93152614D01*
X100145014Y-93148277D01*
X99994670Y-92983051D01*
X99990619Y-92979852D01*
X99990615Y-92979848D01*
X99823417Y-92847803D01*
X99819359Y-92844598D01*
X99788084Y-92827333D01*
X99758606Y-92811060D01*
X99708635Y-92760627D01*
X99693500Y-92700752D01*
X99693500Y-92555024D01*
X99713502Y-92486903D01*
X99725858Y-92470721D01*
X99799040Y-92389444D01*
X99885767Y-92239229D01*
X99891223Y-92229779D01*
X99891224Y-92229778D01*
X99894527Y-92224056D01*
X99953542Y-92042428D01*
X99960228Y-91978819D01*
X99972814Y-91859065D01*
X99973504Y-91852500D01*
X99963528Y-91757580D01*
X99954232Y-91669135D01*
X99954232Y-91669133D01*
X99953542Y-91662572D01*
X99894527Y-91480944D01*
X99893803Y-91479690D01*
X104917037Y-91479690D01*
X104944025Y-91702715D01*
X105010082Y-91917435D01*
X105012652Y-91922415D01*
X105012654Y-91922419D01*
X105077836Y-92048706D01*
X105113118Y-92117064D01*
X105249877Y-92295292D01*
X105416036Y-92446485D01*
X105420783Y-92449463D01*
X105420786Y-92449465D01*
X105550673Y-92530942D01*
X105606344Y-92565864D01*
X105674378Y-92593214D01*
X105730120Y-92637178D01*
X105753245Y-92704303D01*
X105736408Y-92773274D01*
X105681624Y-92823845D01*
X105542097Y-92890397D01*
X105532484Y-92896082D01*
X105359233Y-93020575D01*
X105350767Y-93027883D01*
X105202308Y-93181082D01*
X105195265Y-93189779D01*
X105076281Y-93366844D01*
X105070895Y-93376642D01*
X104985143Y-93571990D01*
X104981578Y-93582582D01*
X104951376Y-93708384D01*
X104952081Y-93722470D01*
X104960960Y-93726000D01*
X108398411Y-93726000D01*
X108412393Y-93721895D01*
X108413886Y-93712272D01*
X108413834Y-93712027D01*
X108351102Y-93508117D01*
X108346881Y-93497771D01*
X108249029Y-93308186D01*
X108243043Y-93298755D01*
X108113168Y-93129499D01*
X108105607Y-93121276D01*
X107947806Y-92977688D01*
X107938906Y-92970933D01*
X107758185Y-92857566D01*
X107748219Y-92852489D01*
X107685642Y-92827333D01*
X107629897Y-92783367D01*
X107606772Y-92716242D01*
X107623609Y-92647271D01*
X107678393Y-92596700D01*
X107738664Y-92567952D01*
X107823218Y-92527622D01*
X108005654Y-92396529D01*
X108161992Y-92235201D01*
X108287290Y-92048738D01*
X108377588Y-91843033D01*
X108383084Y-91820144D01*
X108428722Y-91630046D01*
X108428722Y-91630045D01*
X108430032Y-91624589D01*
X108438387Y-91479690D01*
X110505037Y-91479690D01*
X110532025Y-91702715D01*
X110598082Y-91917435D01*
X110600652Y-91922415D01*
X110600654Y-91922419D01*
X110665836Y-92048706D01*
X110701118Y-92117064D01*
X110837877Y-92295292D01*
X111004036Y-92446485D01*
X111008783Y-92449463D01*
X111008786Y-92449465D01*
X111138673Y-92530942D01*
X111194344Y-92565864D01*
X111262378Y-92593214D01*
X111318120Y-92637178D01*
X111341245Y-92704303D01*
X111324408Y-92773274D01*
X111269624Y-92823845D01*
X111130097Y-92890397D01*
X111120484Y-92896082D01*
X110947233Y-93020575D01*
X110938767Y-93027883D01*
X110790308Y-93181082D01*
X110783265Y-93189779D01*
X110664281Y-93366844D01*
X110658895Y-93376642D01*
X110573143Y-93571990D01*
X110569578Y-93582582D01*
X110539376Y-93708384D01*
X110540081Y-93722470D01*
X110548960Y-93726000D01*
X113986411Y-93726000D01*
X114000393Y-93721895D01*
X114001886Y-93712272D01*
X114001834Y-93712027D01*
X113939102Y-93508117D01*
X113934881Y-93497771D01*
X113837029Y-93308186D01*
X113831043Y-93298755D01*
X113701168Y-93129499D01*
X113693607Y-93121276D01*
X113535806Y-92977688D01*
X113526906Y-92970933D01*
X113346185Y-92857566D01*
X113336219Y-92852489D01*
X113273642Y-92827333D01*
X113217897Y-92783367D01*
X113194772Y-92716242D01*
X113211609Y-92647271D01*
X113266393Y-92596700D01*
X113326664Y-92567952D01*
X113411218Y-92527622D01*
X113593654Y-92396529D01*
X113749992Y-92235201D01*
X113875290Y-92048738D01*
X113965588Y-91843033D01*
X113971084Y-91820144D01*
X114016722Y-91630046D01*
X114016722Y-91630045D01*
X114018032Y-91624589D01*
X114026387Y-91479690D01*
X116093037Y-91479690D01*
X116120025Y-91702715D01*
X116186082Y-91917435D01*
X116188652Y-91922415D01*
X116188654Y-91922419D01*
X116253836Y-92048706D01*
X116289118Y-92117064D01*
X116425877Y-92295292D01*
X116592036Y-92446485D01*
X116596783Y-92449463D01*
X116596786Y-92449465D01*
X116726673Y-92530942D01*
X116782344Y-92565864D01*
X116850378Y-92593214D01*
X116906120Y-92637178D01*
X116929245Y-92704303D01*
X116912408Y-92773274D01*
X116857624Y-92823845D01*
X116718097Y-92890397D01*
X116708484Y-92896082D01*
X116535233Y-93020575D01*
X116526767Y-93027883D01*
X116378308Y-93181082D01*
X116371265Y-93189779D01*
X116252281Y-93366844D01*
X116246895Y-93376642D01*
X116161143Y-93571990D01*
X116157578Y-93582582D01*
X116127376Y-93708384D01*
X116128081Y-93722470D01*
X116136960Y-93726000D01*
X119574411Y-93726000D01*
X119588393Y-93721895D01*
X119589886Y-93712272D01*
X119589834Y-93712027D01*
X119527102Y-93508117D01*
X119522881Y-93497771D01*
X119425029Y-93308186D01*
X119419043Y-93298755D01*
X119289168Y-93129499D01*
X119281607Y-93121276D01*
X119123806Y-92977688D01*
X119114906Y-92970933D01*
X118934185Y-92857566D01*
X118924219Y-92852489D01*
X118861642Y-92827333D01*
X118805897Y-92783367D01*
X118782772Y-92716242D01*
X118799609Y-92647271D01*
X118854393Y-92596700D01*
X118914664Y-92567952D01*
X118999218Y-92527622D01*
X119181654Y-92396529D01*
X119337992Y-92235201D01*
X119463290Y-92048738D01*
X119553588Y-91843033D01*
X119559084Y-91820144D01*
X119604722Y-91630046D01*
X119604722Y-91630045D01*
X119606032Y-91624589D01*
X119614710Y-91474083D01*
X119618640Y-91405917D01*
X119618640Y-91405914D01*
X119618963Y-91400310D01*
X119591975Y-91177285D01*
X119525918Y-90962565D01*
X119476773Y-90867347D01*
X119425454Y-90767919D01*
X119425454Y-90767918D01*
X119422882Y-90762936D01*
X119286123Y-90584708D01*
X119119964Y-90433515D01*
X119115217Y-90430537D01*
X119115214Y-90430535D01*
X119052568Y-90391238D01*
X119005491Y-90338094D01*
X118994618Y-90267935D01*
X119023402Y-90203035D01*
X119082704Y-90164000D01*
X119119524Y-90158500D01*
X119154134Y-90158500D01*
X119216316Y-90151745D01*
X119352705Y-90100615D01*
X119469261Y-90013261D01*
X119556615Y-89896705D01*
X119607745Y-89760316D01*
X119614500Y-89698134D01*
X119614500Y-88101866D01*
X119607745Y-88039684D01*
X119573994Y-87949654D01*
X124505618Y-87949654D01*
X124512673Y-87959627D01*
X124543679Y-87985551D01*
X124550598Y-87990579D01*
X124775272Y-88131515D01*
X124782807Y-88135556D01*
X125024520Y-88244694D01*
X125032551Y-88247680D01*
X125286832Y-88323002D01*
X125295184Y-88324869D01*
X125557340Y-88364984D01*
X125565874Y-88365700D01*
X125831045Y-88369867D01*
X125839596Y-88369418D01*
X126102883Y-88337557D01*
X126111284Y-88335955D01*
X126367824Y-88268653D01*
X126375926Y-88265926D01*
X126620949Y-88164434D01*
X126628617Y-88160628D01*
X126857598Y-88026822D01*
X126864679Y-88022009D01*
X126944655Y-87959301D01*
X126953125Y-87947442D01*
X126946608Y-87935818D01*
X125742812Y-86732022D01*
X125728868Y-86724408D01*
X125727035Y-86724539D01*
X125720420Y-86728790D01*
X124512910Y-87936300D01*
X124505618Y-87949654D01*
X119573994Y-87949654D01*
X119556615Y-87903295D01*
X119469261Y-87786739D01*
X119352705Y-87699385D01*
X119216316Y-87648255D01*
X119154134Y-87641500D01*
X116557866Y-87641500D01*
X116495684Y-87648255D01*
X116359295Y-87699385D01*
X116242739Y-87786739D01*
X116155385Y-87903295D01*
X116104255Y-88039684D01*
X116097500Y-88101866D01*
X116097500Y-89698134D01*
X116104255Y-89760316D01*
X116155385Y-89896705D01*
X116242739Y-90013261D01*
X116359295Y-90100615D01*
X116495684Y-90151745D01*
X116557866Y-90158500D01*
X116591321Y-90158500D01*
X116659442Y-90178502D01*
X116705935Y-90232158D01*
X116716039Y-90302432D01*
X116686545Y-90367012D01*
X116664849Y-90386821D01*
X116652773Y-90395499D01*
X116534904Y-90480195D01*
X116534899Y-90480200D01*
X116530346Y-90483471D01*
X116374008Y-90644799D01*
X116248710Y-90831262D01*
X116158412Y-91036967D01*
X116157103Y-91042418D01*
X116157102Y-91042422D01*
X116152550Y-91061382D01*
X116105968Y-91255411D01*
X116093037Y-91479690D01*
X114026387Y-91479690D01*
X114026710Y-91474083D01*
X114030640Y-91405917D01*
X114030640Y-91405914D01*
X114030963Y-91400310D01*
X114003975Y-91177285D01*
X113937918Y-90962565D01*
X113888773Y-90867347D01*
X113837454Y-90767919D01*
X113837454Y-90767918D01*
X113834882Y-90762936D01*
X113698123Y-90584708D01*
X113531964Y-90433515D01*
X113527217Y-90430537D01*
X113527214Y-90430535D01*
X113464568Y-90391238D01*
X113417491Y-90338094D01*
X113406618Y-90267935D01*
X113435402Y-90203035D01*
X113494704Y-90164000D01*
X113531524Y-90158500D01*
X113566134Y-90158500D01*
X113628316Y-90151745D01*
X113764705Y-90100615D01*
X113881261Y-90013261D01*
X113968615Y-89896705D01*
X114019745Y-89760316D01*
X114026500Y-89698134D01*
X114026500Y-88101866D01*
X114019745Y-88039684D01*
X113968615Y-87903295D01*
X113881261Y-87786739D01*
X113764705Y-87699385D01*
X113628316Y-87648255D01*
X113566134Y-87641500D01*
X110969866Y-87641500D01*
X110907684Y-87648255D01*
X110771295Y-87699385D01*
X110654739Y-87786739D01*
X110567385Y-87903295D01*
X110516255Y-88039684D01*
X110509500Y-88101866D01*
X110509500Y-89698134D01*
X110516255Y-89760316D01*
X110567385Y-89896705D01*
X110654739Y-90013261D01*
X110771295Y-90100615D01*
X110907684Y-90151745D01*
X110969866Y-90158500D01*
X111003321Y-90158500D01*
X111071442Y-90178502D01*
X111117935Y-90232158D01*
X111128039Y-90302432D01*
X111098545Y-90367012D01*
X111076849Y-90386821D01*
X111064773Y-90395499D01*
X110946904Y-90480195D01*
X110946899Y-90480200D01*
X110942346Y-90483471D01*
X110786008Y-90644799D01*
X110660710Y-90831262D01*
X110570412Y-91036967D01*
X110569103Y-91042418D01*
X110569102Y-91042422D01*
X110564550Y-91061382D01*
X110517968Y-91255411D01*
X110505037Y-91479690D01*
X108438387Y-91479690D01*
X108438710Y-91474083D01*
X108442640Y-91405917D01*
X108442640Y-91405914D01*
X108442963Y-91400310D01*
X108415975Y-91177285D01*
X108349918Y-90962565D01*
X108300773Y-90867347D01*
X108249454Y-90767919D01*
X108249454Y-90767918D01*
X108246882Y-90762936D01*
X108110123Y-90584708D01*
X107943964Y-90433515D01*
X107939217Y-90430537D01*
X107939214Y-90430535D01*
X107876568Y-90391238D01*
X107829491Y-90338094D01*
X107818618Y-90267935D01*
X107847402Y-90203035D01*
X107906704Y-90164000D01*
X107943524Y-90158500D01*
X107978134Y-90158500D01*
X108040316Y-90151745D01*
X108176705Y-90100615D01*
X108293261Y-90013261D01*
X108380615Y-89896705D01*
X108431745Y-89760316D01*
X108438500Y-89698134D01*
X108438500Y-88101866D01*
X108431745Y-88039684D01*
X108380615Y-87903295D01*
X108293261Y-87786739D01*
X108176705Y-87699385D01*
X108040316Y-87648255D01*
X107978134Y-87641500D01*
X105381866Y-87641500D01*
X105319684Y-87648255D01*
X105183295Y-87699385D01*
X105066739Y-87786739D01*
X104979385Y-87903295D01*
X104928255Y-88039684D01*
X104921500Y-88101866D01*
X104921500Y-89698134D01*
X104928255Y-89760316D01*
X104979385Y-89896705D01*
X105066739Y-90013261D01*
X105183295Y-90100615D01*
X105319684Y-90151745D01*
X105381866Y-90158500D01*
X105415321Y-90158500D01*
X105483442Y-90178502D01*
X105529935Y-90232158D01*
X105540039Y-90302432D01*
X105510545Y-90367012D01*
X105488849Y-90386821D01*
X105476773Y-90395499D01*
X105358904Y-90480195D01*
X105358899Y-90480200D01*
X105354346Y-90483471D01*
X105198008Y-90644799D01*
X105072710Y-90831262D01*
X104982412Y-91036967D01*
X104981103Y-91042418D01*
X104981102Y-91042422D01*
X104976550Y-91061382D01*
X104929968Y-91255411D01*
X104917037Y-91479690D01*
X99893803Y-91479690D01*
X99870512Y-91439348D01*
X99802341Y-91321274D01*
X99799040Y-91315556D01*
X99679175Y-91182433D01*
X99648460Y-91118428D01*
X99657224Y-91047974D01*
X99702686Y-90993443D01*
X99721564Y-90983018D01*
X99764722Y-90963803D01*
X99764724Y-90963802D01*
X99770752Y-90961118D01*
X99925253Y-90848866D01*
X100053040Y-90706944D01*
X100148527Y-90541556D01*
X100207542Y-90359928D01*
X100211161Y-90325500D01*
X100226814Y-90176565D01*
X100227504Y-90170000D01*
X100220543Y-90103767D01*
X100208232Y-89986635D01*
X100208232Y-89986633D01*
X100207542Y-89980072D01*
X100148527Y-89798444D01*
X100130786Y-89767715D01*
X100104681Y-89722500D01*
X100087943Y-89653504D01*
X100111164Y-89586413D01*
X100166971Y-89542526D01*
X100213800Y-89533500D01*
X102415800Y-89533500D01*
X102483921Y-89553502D01*
X102503147Y-89569843D01*
X102503420Y-89569540D01*
X102508332Y-89573963D01*
X102512747Y-89578866D01*
X102523135Y-89586413D01*
X102649193Y-89678000D01*
X102667248Y-89691118D01*
X102673276Y-89693802D01*
X102673278Y-89693803D01*
X102835681Y-89766109D01*
X102841712Y-89768794D01*
X102935112Y-89788647D01*
X103022056Y-89807128D01*
X103022061Y-89807128D01*
X103028513Y-89808500D01*
X103219487Y-89808500D01*
X103225939Y-89807128D01*
X103225944Y-89807128D01*
X103312888Y-89788647D01*
X103406288Y-89768794D01*
X103412319Y-89766109D01*
X103574722Y-89693803D01*
X103574724Y-89693802D01*
X103580752Y-89691118D01*
X103598808Y-89678000D01*
X103724865Y-89586413D01*
X103735253Y-89578866D01*
X103863040Y-89436944D01*
X103958527Y-89271556D01*
X104017542Y-89089928D01*
X104019263Y-89073559D01*
X104036814Y-88906565D01*
X104037504Y-88900000D01*
X104036814Y-88893435D01*
X104018232Y-88716635D01*
X104018232Y-88716633D01*
X104017542Y-88710072D01*
X103958527Y-88528444D01*
X103952209Y-88517500D01*
X103904304Y-88434528D01*
X103863040Y-88363056D01*
X103846882Y-88345110D01*
X103739675Y-88226045D01*
X103739674Y-88226044D01*
X103735253Y-88221134D01*
X103620141Y-88137500D01*
X103586094Y-88112763D01*
X103586093Y-88112762D01*
X103580752Y-88108882D01*
X103574724Y-88106198D01*
X103574722Y-88106197D01*
X103412319Y-88033891D01*
X103412318Y-88033891D01*
X103406288Y-88031206D01*
X103312887Y-88011353D01*
X103225944Y-87992872D01*
X103225939Y-87992872D01*
X103219487Y-87991500D01*
X103028513Y-87991500D01*
X103022061Y-87992872D01*
X103022056Y-87992872D01*
X102935113Y-88011353D01*
X102841712Y-88031206D01*
X102835682Y-88033891D01*
X102835681Y-88033891D01*
X102673278Y-88106197D01*
X102673276Y-88106198D01*
X102667248Y-88108882D01*
X102661907Y-88112762D01*
X102661906Y-88112763D01*
X102575975Y-88175196D01*
X102512747Y-88221134D01*
X102508332Y-88226037D01*
X102503420Y-88230460D01*
X102502295Y-88229211D01*
X102448986Y-88262051D01*
X102415800Y-88266500D01*
X100352814Y-88266500D01*
X100284693Y-88246498D01*
X100238200Y-88192842D01*
X100227067Y-88141661D01*
X100227504Y-88137500D01*
X100223402Y-88098469D01*
X100208232Y-87954135D01*
X100208232Y-87954133D01*
X100207542Y-87947572D01*
X100148527Y-87765944D01*
X100130147Y-87734108D01*
X100097794Y-87678072D01*
X100053040Y-87600556D01*
X99979863Y-87519285D01*
X99949147Y-87455279D01*
X99947500Y-87434976D01*
X99947500Y-86343204D01*
X123717665Y-86343204D01*
X123732932Y-86607969D01*
X123734005Y-86616470D01*
X123785065Y-86876722D01*
X123787276Y-86884974D01*
X123873184Y-87135894D01*
X123876499Y-87143779D01*
X123995664Y-87380713D01*
X124000020Y-87388079D01*
X124129347Y-87576250D01*
X124139601Y-87584594D01*
X124153342Y-87577448D01*
X125357978Y-86372812D01*
X125364356Y-86361132D01*
X126094408Y-86361132D01*
X126094539Y-86362965D01*
X126098790Y-86369580D01*
X127305730Y-87576520D01*
X127317939Y-87583187D01*
X127329439Y-87574497D01*
X127426831Y-87441913D01*
X127431418Y-87434685D01*
X127557962Y-87201621D01*
X127561530Y-87193827D01*
X127655271Y-86945750D01*
X127657748Y-86937544D01*
X127716954Y-86679038D01*
X127718294Y-86670577D01*
X127742031Y-86404616D01*
X127742277Y-86399677D01*
X127742666Y-86362485D01*
X127742523Y-86357519D01*
X127724362Y-86091123D01*
X127723201Y-86082649D01*
X127669419Y-85822944D01*
X127667120Y-85814709D01*
X127578588Y-85564705D01*
X127575191Y-85556854D01*
X127453550Y-85321178D01*
X127449122Y-85313866D01*
X127330031Y-85144417D01*
X127319509Y-85136037D01*
X127306121Y-85143089D01*
X126102022Y-86347188D01*
X126094408Y-86361132D01*
X125364356Y-86361132D01*
X125365592Y-86358868D01*
X125365461Y-86357035D01*
X125361210Y-86350420D01*
X124153814Y-85143024D01*
X124141804Y-85136466D01*
X124130064Y-85145434D01*
X124021935Y-85295911D01*
X124017418Y-85303196D01*
X123893325Y-85537567D01*
X123889839Y-85545395D01*
X123798700Y-85794446D01*
X123796311Y-85802670D01*
X123739812Y-86061795D01*
X123738563Y-86070250D01*
X123717754Y-86334653D01*
X123717665Y-86343204D01*
X99947500Y-86343204D01*
X99947500Y-84772500D01*
X124506584Y-84772500D01*
X124512980Y-84783770D01*
X125717188Y-85987978D01*
X125731132Y-85995592D01*
X125732965Y-85995461D01*
X125739580Y-85991210D01*
X126946604Y-84784186D01*
X126953795Y-84771017D01*
X126946473Y-84760780D01*
X126899233Y-84722115D01*
X126892261Y-84717160D01*
X126666122Y-84578582D01*
X126658552Y-84574624D01*
X126415704Y-84468022D01*
X126407644Y-84465120D01*
X126152592Y-84392467D01*
X126144214Y-84390685D01*
X125881656Y-84353318D01*
X125873111Y-84352691D01*
X125607908Y-84351302D01*
X125599374Y-84351839D01*
X125336433Y-84386456D01*
X125328035Y-84388149D01*
X125072238Y-84458127D01*
X125064143Y-84460946D01*
X124820199Y-84564997D01*
X124812577Y-84568881D01*
X124585013Y-84705075D01*
X124577981Y-84709962D01*
X124515053Y-84760377D01*
X124506584Y-84772500D01*
X99947500Y-84772500D01*
X99947500Y-82882763D01*
X99948027Y-82871579D01*
X99949701Y-82864091D01*
X99947562Y-82796032D01*
X99947500Y-82792075D01*
X99947500Y-82764144D01*
X99946994Y-82760138D01*
X99946061Y-82748292D01*
X99945532Y-82731436D01*
X99944673Y-82704110D01*
X99939022Y-82684658D01*
X99935014Y-82665306D01*
X99933468Y-82653068D01*
X99933467Y-82653066D01*
X99932474Y-82645203D01*
X99916194Y-82604086D01*
X99912359Y-82592885D01*
X99900018Y-82550406D01*
X99895985Y-82543587D01*
X99895983Y-82543582D01*
X99889707Y-82532971D01*
X99881010Y-82515221D01*
X99873552Y-82496383D01*
X99847571Y-82460623D01*
X99841053Y-82450701D01*
X99822578Y-82419460D01*
X99822574Y-82419455D01*
X99818542Y-82412637D01*
X99804218Y-82398313D01*
X99791376Y-82383278D01*
X99779472Y-82366893D01*
X99761574Y-82352086D01*
X99721836Y-82293255D01*
X99716579Y-82268172D01*
X99714207Y-82245598D01*
X99708710Y-82193298D01*
X99700232Y-82112635D01*
X99700232Y-82112633D01*
X99699542Y-82106072D01*
X99640527Y-81924444D01*
X99545040Y-81759056D01*
X99446875Y-81650032D01*
X99421675Y-81622045D01*
X99421674Y-81622044D01*
X99417253Y-81617134D01*
X99262752Y-81504882D01*
X99256724Y-81502198D01*
X99256722Y-81502197D01*
X99094319Y-81429891D01*
X99094318Y-81429891D01*
X99088288Y-81427206D01*
X98994888Y-81407353D01*
X98907944Y-81388872D01*
X98907939Y-81388872D01*
X98901487Y-81387500D01*
X98710513Y-81387500D01*
X98704061Y-81388872D01*
X98704056Y-81388872D01*
X98617112Y-81407353D01*
X98523712Y-81427206D01*
X98517682Y-81429891D01*
X98517681Y-81429891D01*
X98355278Y-81502197D01*
X98355276Y-81502198D01*
X98349248Y-81504882D01*
X98343907Y-81508762D01*
X98343906Y-81508763D01*
X98213561Y-81603465D01*
X98146694Y-81627323D01*
X98077542Y-81611243D01*
X98028062Y-81560329D01*
X98013500Y-81501529D01*
X98013500Y-81179866D01*
X98007720Y-81126660D01*
X98020248Y-81056777D01*
X98023864Y-81050052D01*
X98037133Y-81027071D01*
X98085403Y-80943464D01*
X98113223Y-80895279D01*
X98113224Y-80895278D01*
X98116527Y-80889556D01*
X98175542Y-80707928D01*
X98178604Y-80678800D01*
X98194814Y-80524565D01*
X98195504Y-80518000D01*
X98184066Y-80409176D01*
X98176232Y-80334635D01*
X98176232Y-80334633D01*
X98175542Y-80328072D01*
X98116527Y-80146444D01*
X98021040Y-79981056D01*
X97893253Y-79839134D01*
X97792274Y-79765768D01*
X97744094Y-79730763D01*
X97744093Y-79730762D01*
X97738752Y-79726882D01*
X97732724Y-79724198D01*
X97732722Y-79724197D01*
X97570319Y-79651891D01*
X97570318Y-79651891D01*
X97564288Y-79649206D01*
X97470887Y-79629353D01*
X97383944Y-79610872D01*
X97383939Y-79610872D01*
X97377487Y-79609500D01*
X97186513Y-79609500D01*
X97180061Y-79610872D01*
X97180056Y-79610872D01*
X97144110Y-79618513D01*
X97118696Y-79623915D01*
X97047907Y-79618513D01*
X96991274Y-79575696D01*
X96966780Y-79509059D01*
X96966500Y-79500668D01*
X96966500Y-79085600D01*
X96959446Y-79017611D01*
X96956238Y-78986692D01*
X96956237Y-78986688D01*
X96955526Y-78979834D01*
X96942432Y-78940585D01*
X96901868Y-78819002D01*
X96899550Y-78812054D01*
X96806478Y-78661652D01*
X96719891Y-78575216D01*
X96685812Y-78512934D01*
X96690815Y-78442114D01*
X96719736Y-78397025D01*
X96747730Y-78368982D01*
X96810012Y-78334903D01*
X96836903Y-78332000D01*
X97736469Y-78332000D01*
X97804590Y-78352002D01*
X97825564Y-78368905D01*
X101786325Y-82329666D01*
X101788779Y-82332188D01*
X101849282Y-82396168D01*
X101857332Y-82404681D01*
X101881417Y-82423095D01*
X101919757Y-82452408D01*
X101924892Y-82456552D01*
X101980353Y-82503753D01*
X101984720Y-82507470D01*
X101989045Y-82510089D01*
X101989050Y-82510093D01*
X102012824Y-82524491D01*
X102024071Y-82532163D01*
X102050174Y-82552120D01*
X102054632Y-82554510D01*
X102054633Y-82554511D01*
X102074255Y-82565032D01*
X102117139Y-82588026D01*
X102119401Y-82589239D01*
X102125126Y-82592504D01*
X102192358Y-82633221D01*
X102197047Y-82635116D01*
X102197054Y-82635119D01*
X102222828Y-82645533D01*
X102235164Y-82651312D01*
X102259649Y-82664440D01*
X102259653Y-82664442D01*
X102264109Y-82666831D01*
X102268891Y-82668478D01*
X102268892Y-82668478D01*
X102338381Y-82692405D01*
X102344551Y-82694711D01*
X102380461Y-82709220D01*
X102412743Y-82722263D01*
X102412746Y-82722264D01*
X102417429Y-82724156D01*
X102444191Y-82730236D01*
X102449471Y-82731436D01*
X102462575Y-82735169D01*
X102493631Y-82745862D01*
X102498611Y-82746722D01*
X102498622Y-82746725D01*
X102571065Y-82759238D01*
X102577533Y-82760530D01*
X102649212Y-82776815D01*
X102649221Y-82776816D01*
X102654145Y-82777935D01*
X102686951Y-82779999D01*
X102700455Y-82781586D01*
X102721935Y-82785296D01*
X102728933Y-82786505D01*
X102728936Y-82786505D01*
X102732836Y-82787179D01*
X102736793Y-82787359D01*
X102736796Y-82787359D01*
X102760506Y-82788436D01*
X102760525Y-82788436D01*
X102761925Y-82788500D01*
X102818108Y-82788500D01*
X102826019Y-82788749D01*
X102896413Y-82793178D01*
X102937993Y-82789101D01*
X102950289Y-82788500D01*
X117564188Y-82788500D01*
X117569903Y-82788630D01*
X117654817Y-82792486D01*
X117659837Y-82791905D01*
X117659841Y-82791905D01*
X117682050Y-82789335D01*
X117696532Y-82788500D01*
X123605507Y-82788500D01*
X123673628Y-82808502D01*
X123720121Y-82862158D01*
X123727543Y-82883763D01*
X123728255Y-82890316D01*
X123731027Y-82897711D01*
X123731028Y-82897714D01*
X123750817Y-82950500D01*
X123779385Y-83026705D01*
X123866739Y-83143261D01*
X123983295Y-83230615D01*
X124119684Y-83281745D01*
X124181866Y-83288500D01*
X127278134Y-83288500D01*
X127340316Y-83281745D01*
X127476705Y-83230615D01*
X127593261Y-83143261D01*
X127680615Y-83026705D01*
X127731745Y-82890316D01*
X127738500Y-82828134D01*
X127738500Y-79731866D01*
X127731745Y-79669684D01*
X127680615Y-79533295D01*
X127593261Y-79416739D01*
X127476705Y-79329385D01*
X127340316Y-79278255D01*
X127278134Y-79271500D01*
X124181866Y-79271500D01*
X124119684Y-79278255D01*
X123983295Y-79329385D01*
X123866739Y-79416739D01*
X123779385Y-79533295D01*
X123776233Y-79541703D01*
X123731029Y-79662285D01*
X123728255Y-79669684D01*
X123727628Y-79675453D01*
X123692874Y-79736291D01*
X123629919Y-79769113D01*
X123605507Y-79771500D01*
X119236500Y-79771500D01*
X119168379Y-79751498D01*
X119121886Y-79697842D01*
X119110500Y-79645500D01*
X119110500Y-76462966D01*
X119826257Y-76462966D01*
X119856565Y-76597446D01*
X119859645Y-76607275D01*
X119939770Y-76804603D01*
X119944413Y-76813794D01*
X120055694Y-76995388D01*
X120061777Y-77003699D01*
X120201213Y-77164667D01*
X120208580Y-77171883D01*
X120372434Y-77307916D01*
X120380881Y-77313831D01*
X120564756Y-77421279D01*
X120574042Y-77425729D01*
X120773001Y-77501703D01*
X120782899Y-77504579D01*
X120886250Y-77525606D01*
X120900299Y-77524410D01*
X120904000Y-77514065D01*
X120904000Y-77513517D01*
X121412000Y-77513517D01*
X121416064Y-77527359D01*
X121429478Y-77529393D01*
X121436184Y-77528534D01*
X121446262Y-77526392D01*
X121650255Y-77465191D01*
X121659842Y-77461433D01*
X121851095Y-77367739D01*
X121859945Y-77362464D01*
X122033328Y-77238792D01*
X122041200Y-77232139D01*
X122192052Y-77081812D01*
X122198730Y-77073965D01*
X122323003Y-76901020D01*
X122328313Y-76892183D01*
X122422670Y-76701267D01*
X122426469Y-76691672D01*
X122488377Y-76487910D01*
X122490555Y-76477837D01*
X122491986Y-76466962D01*
X122489775Y-76452778D01*
X122476617Y-76449000D01*
X121430115Y-76449000D01*
X121414876Y-76453475D01*
X121413671Y-76454865D01*
X121412000Y-76462548D01*
X121412000Y-77513517D01*
X120904000Y-77513517D01*
X120904000Y-76467115D01*
X120899525Y-76451876D01*
X120898135Y-76450671D01*
X120890452Y-76449000D01*
X119841225Y-76449000D01*
X119827694Y-76452973D01*
X119826257Y-76462966D01*
X119110500Y-76462966D01*
X119110500Y-76115031D01*
X119130502Y-76046910D01*
X119147405Y-76025936D01*
X119749211Y-75424130D01*
X119811523Y-75390104D01*
X119882338Y-75395169D01*
X119939174Y-75437716D01*
X119963985Y-75504236D01*
X119952594Y-75566275D01*
X119881338Y-75719783D01*
X119877775Y-75729470D01*
X119822389Y-75929183D01*
X119823912Y-75937607D01*
X119836292Y-75941000D01*
X122476344Y-75941000D01*
X122489875Y-75937027D01*
X122491180Y-75927947D01*
X122449214Y-75760875D01*
X122445894Y-75751124D01*
X122360972Y-75555814D01*
X122356105Y-75546739D01*
X122240426Y-75367926D01*
X122234136Y-75359757D01*
X122090293Y-75201677D01*
X122059241Y-75137831D01*
X122067635Y-75067333D01*
X122112812Y-75012564D01*
X122139256Y-74998895D01*
X122246297Y-74958767D01*
X122254705Y-74955615D01*
X122371261Y-74868261D01*
X122458615Y-74751705D01*
X122509745Y-74615316D01*
X122516500Y-74553134D01*
X122516500Y-74348793D01*
X122524869Y-74303639D01*
X122608020Y-74087022D01*
X122608021Y-74087018D01*
X122609833Y-74082298D01*
X122610868Y-74077345D01*
X122658440Y-73849631D01*
X122658440Y-73849627D01*
X122659474Y-73844680D01*
X122667860Y-73660000D01*
X125386526Y-73660000D01*
X125406391Y-73912403D01*
X125407545Y-73917210D01*
X125407546Y-73917216D01*
X125441562Y-74058901D01*
X125465495Y-74158591D01*
X125467388Y-74163162D01*
X125467389Y-74163164D01*
X125546571Y-74354325D01*
X125562384Y-74392502D01*
X125694672Y-74608376D01*
X125859102Y-74800898D01*
X126051624Y-74965328D01*
X126267498Y-75097616D01*
X126272068Y-75099509D01*
X126272072Y-75099511D01*
X126391405Y-75148940D01*
X126501409Y-75194505D01*
X126586032Y-75214821D01*
X126742784Y-75252454D01*
X126742790Y-75252455D01*
X126747597Y-75253609D01*
X126847416Y-75261465D01*
X126934345Y-75268307D01*
X126934352Y-75268307D01*
X126936801Y-75268500D01*
X127063199Y-75268500D01*
X127065648Y-75268307D01*
X127065655Y-75268307D01*
X127152584Y-75261465D01*
X127252403Y-75253609D01*
X127257210Y-75252455D01*
X127257216Y-75252454D01*
X127413968Y-75214821D01*
X127498591Y-75194505D01*
X127608595Y-75148940D01*
X127727928Y-75099511D01*
X127727932Y-75099509D01*
X127732502Y-75097616D01*
X127948376Y-74965328D01*
X128140898Y-74800898D01*
X128305328Y-74608376D01*
X128437616Y-74392502D01*
X128453430Y-74354325D01*
X128532611Y-74163164D01*
X128532612Y-74163162D01*
X128534505Y-74158591D01*
X128558438Y-74058901D01*
X128592454Y-73917216D01*
X128592455Y-73917210D01*
X128593609Y-73912403D01*
X128613474Y-73660000D01*
X128593609Y-73407597D01*
X128581265Y-73356177D01*
X128535660Y-73166221D01*
X128534505Y-73161409D01*
X128437616Y-72927498D01*
X128305328Y-72711624D01*
X128140898Y-72519102D01*
X127948376Y-72354672D01*
X127744217Y-72229563D01*
X127736722Y-72224970D01*
X127732502Y-72222384D01*
X127727932Y-72220491D01*
X127727928Y-72220489D01*
X127503164Y-72127389D01*
X127503162Y-72127388D01*
X127498591Y-72125495D01*
X127410219Y-72104279D01*
X127257216Y-72067546D01*
X127257210Y-72067545D01*
X127252403Y-72066391D01*
X127152584Y-72058535D01*
X127065655Y-72051693D01*
X127065648Y-72051693D01*
X127063199Y-72051500D01*
X126936801Y-72051500D01*
X126934352Y-72051693D01*
X126934345Y-72051693D01*
X126847416Y-72058535D01*
X126747597Y-72066391D01*
X126742790Y-72067545D01*
X126742784Y-72067546D01*
X126589781Y-72104279D01*
X126501409Y-72125495D01*
X126496838Y-72127388D01*
X126496836Y-72127389D01*
X126272072Y-72220489D01*
X126272068Y-72220491D01*
X126267498Y-72222384D01*
X126263278Y-72224970D01*
X126255783Y-72229563D01*
X126051624Y-72354672D01*
X125859102Y-72519102D01*
X125694672Y-72711624D01*
X125562384Y-72927498D01*
X125465495Y-73161409D01*
X125464340Y-73166221D01*
X125418736Y-73356177D01*
X125406391Y-73407597D01*
X125386526Y-73660000D01*
X122667860Y-73660000D01*
X122670486Y-73602183D01*
X122667850Y-73579398D01*
X122643167Y-73366071D01*
X122643166Y-73366067D01*
X122642585Y-73361044D01*
X122576490Y-73127468D01*
X122574356Y-73122892D01*
X122574354Y-73122886D01*
X122528305Y-73024134D01*
X122516500Y-72970884D01*
X122516500Y-72756866D01*
X122509745Y-72694684D01*
X122458615Y-72558295D01*
X122371261Y-72441739D01*
X122254705Y-72354385D01*
X122118316Y-72303255D01*
X122056134Y-72296500D01*
X121848376Y-72296500D01*
X121788836Y-72281545D01*
X121763891Y-72268169D01*
X121534369Y-72189138D01*
X121400759Y-72166060D01*
X121299074Y-72148496D01*
X121299068Y-72148495D01*
X121295164Y-72147821D01*
X121291203Y-72147641D01*
X121291202Y-72147641D01*
X121267494Y-72146564D01*
X121267475Y-72146564D01*
X121266075Y-72146500D01*
X119409016Y-72146500D01*
X119405498Y-72146451D01*
X119310850Y-72143807D01*
X119310847Y-72143807D01*
X119305795Y-72143666D01*
X119227902Y-72154059D01*
X119221361Y-72154758D01*
X119192668Y-72157067D01*
X119148077Y-72160654D01*
X119148073Y-72160655D01*
X119143035Y-72161060D01*
X119111122Y-72168899D01*
X119097742Y-72171426D01*
X119065180Y-72175771D01*
X119060339Y-72177232D01*
X119060337Y-72177233D01*
X118989971Y-72198478D01*
X118983610Y-72200219D01*
X118907294Y-72218963D01*
X118890855Y-72225941D01*
X118877049Y-72231801D01*
X118864239Y-72236438D01*
X118832792Y-72245933D01*
X118828244Y-72248151D01*
X118828237Y-72248154D01*
X118762182Y-72280371D01*
X118756180Y-72283107D01*
X118711496Y-72302075D01*
X118683844Y-72313812D01*
X118671630Y-72321504D01*
X118656044Y-72331319D01*
X118644140Y-72337945D01*
X118614612Y-72352346D01*
X118610475Y-72355265D01*
X118610474Y-72355265D01*
X118550403Y-72397641D01*
X118544914Y-72401301D01*
X118490117Y-72435809D01*
X118478433Y-72443167D01*
X118474644Y-72446508D01*
X118474638Y-72446512D01*
X118453783Y-72464898D01*
X118443088Y-72473344D01*
X118416253Y-72492274D01*
X118394750Y-72511909D01*
X118355034Y-72551625D01*
X118349264Y-72557044D01*
X118300142Y-72600350D01*
X118300139Y-72600353D01*
X118296345Y-72603698D01*
X118293135Y-72607606D01*
X118293134Y-72607607D01*
X118269821Y-72635989D01*
X118261551Y-72645108D01*
X116552334Y-74354325D01*
X116549812Y-74356779D01*
X116481934Y-74420968D01*
X116477319Y-74425332D01*
X116429592Y-74487757D01*
X116425448Y-74492892D01*
X116379807Y-74546520D01*
X116374530Y-74552720D01*
X116371911Y-74557045D01*
X116371907Y-74557050D01*
X116357509Y-74580824D01*
X116349837Y-74592071D01*
X116329880Y-74618174D01*
X116327490Y-74622632D01*
X116327489Y-74622633D01*
X116292761Y-74687401D01*
X116289496Y-74693126D01*
X116248779Y-74760358D01*
X116246884Y-74765049D01*
X116236473Y-74790817D01*
X116230693Y-74803158D01*
X116215169Y-74832109D01*
X116213523Y-74836890D01*
X116213521Y-74836894D01*
X116189588Y-74906401D01*
X116187278Y-74912579D01*
X116157845Y-74985429D01*
X116156723Y-74990368D01*
X116150568Y-75017460D01*
X116146837Y-75030559D01*
X116136138Y-75061631D01*
X116122757Y-75139100D01*
X116121477Y-75145504D01*
X116104065Y-75222144D01*
X116102001Y-75254953D01*
X116100415Y-75268453D01*
X116094821Y-75300836D01*
X116093500Y-75329925D01*
X116093500Y-75386108D01*
X116093251Y-75394019D01*
X116088822Y-75464413D01*
X116089316Y-75469448D01*
X116092899Y-75505992D01*
X116093500Y-75518288D01*
X116093500Y-79645500D01*
X116073498Y-79713621D01*
X116019842Y-79760114D01*
X115967500Y-79771500D01*
X103547031Y-79771500D01*
X103478910Y-79751498D01*
X103457936Y-79734595D01*
X97603675Y-73880334D01*
X97601221Y-73877812D01*
X97536138Y-73808988D01*
X97536135Y-73808986D01*
X97532668Y-73805319D01*
X97470239Y-73757589D01*
X97465108Y-73753448D01*
X97409133Y-73705809D01*
X97409132Y-73705808D01*
X97405280Y-73702530D01*
X97400955Y-73699911D01*
X97400950Y-73699907D01*
X97377176Y-73685509D01*
X97365929Y-73677837D01*
X97339826Y-73657880D01*
X97334586Y-73655070D01*
X97270599Y-73620761D01*
X97264868Y-73617493D01*
X97197642Y-73576779D01*
X97167181Y-73564472D01*
X97154841Y-73558692D01*
X97130350Y-73545560D01*
X97130351Y-73545560D01*
X97125891Y-73543169D01*
X97121110Y-73541523D01*
X97121106Y-73541521D01*
X97051599Y-73517588D01*
X97045421Y-73515278D01*
X96977266Y-73487742D01*
X96977267Y-73487742D01*
X96972571Y-73485845D01*
X96940539Y-73478568D01*
X96927441Y-73474837D01*
X96896369Y-73464138D01*
X96818900Y-73450757D01*
X96812496Y-73449477D01*
X96735856Y-73432065D01*
X96703047Y-73430001D01*
X96689547Y-73428415D01*
X96657164Y-73422821D01*
X96653207Y-73422641D01*
X96653204Y-73422641D01*
X96629494Y-73421564D01*
X96629475Y-73421564D01*
X96628075Y-73421500D01*
X96571892Y-73421500D01*
X96563980Y-73421251D01*
X96558386Y-73420899D01*
X96493587Y-73416822D01*
X96454545Y-73420650D01*
X96452008Y-73420899D01*
X96439712Y-73421500D01*
X93133031Y-73421500D01*
X93064910Y-73401498D01*
X93043936Y-73384595D01*
X92269675Y-72610334D01*
X92267221Y-72607812D01*
X92202138Y-72538988D01*
X92202135Y-72538986D01*
X92198668Y-72535319D01*
X92136239Y-72487589D01*
X92131108Y-72483448D01*
X92075133Y-72435809D01*
X92075132Y-72435808D01*
X92071280Y-72432530D01*
X92066955Y-72429911D01*
X92066950Y-72429907D01*
X92043176Y-72415509D01*
X92031929Y-72407837D01*
X92005826Y-72387880D01*
X91936592Y-72350757D01*
X91930868Y-72347493D01*
X91863642Y-72306779D01*
X91833181Y-72294472D01*
X91820841Y-72288692D01*
X91817350Y-72286820D01*
X91791891Y-72273169D01*
X91787110Y-72271523D01*
X91787106Y-72271521D01*
X91717599Y-72247588D01*
X91711421Y-72245278D01*
X91643266Y-72217742D01*
X91643267Y-72217742D01*
X91638571Y-72215845D01*
X91606539Y-72208568D01*
X91593441Y-72204837D01*
X91562369Y-72194138D01*
X91484900Y-72180757D01*
X91478496Y-72179477D01*
X91401856Y-72162065D01*
X91369047Y-72160001D01*
X91355547Y-72158415D01*
X91323164Y-72152821D01*
X91319207Y-72152641D01*
X91319204Y-72152641D01*
X91295494Y-72151564D01*
X91295475Y-72151564D01*
X91294075Y-72151500D01*
X91237892Y-72151500D01*
X91229980Y-72151251D01*
X91224386Y-72150899D01*
X91159587Y-72146822D01*
X91120545Y-72150650D01*
X91118008Y-72150899D01*
X91105712Y-72151500D01*
X85114016Y-72151500D01*
X85110498Y-72151451D01*
X85015850Y-72148807D01*
X85015847Y-72148807D01*
X85010795Y-72148666D01*
X84932902Y-72159059D01*
X84926361Y-72159758D01*
X84901617Y-72161749D01*
X84853077Y-72165654D01*
X84853073Y-72165655D01*
X84848035Y-72166060D01*
X84816122Y-72173899D01*
X84802742Y-72176426D01*
X84770180Y-72180771D01*
X84765339Y-72182232D01*
X84765337Y-72182233D01*
X84694971Y-72203478D01*
X84688610Y-72205219D01*
X84612294Y-72223963D01*
X84607634Y-72225941D01*
X84582049Y-72236801D01*
X84569239Y-72241438D01*
X84537792Y-72250933D01*
X84533244Y-72253151D01*
X84533237Y-72253154D01*
X84467182Y-72285371D01*
X84461180Y-72288107D01*
X84418959Y-72306029D01*
X84388844Y-72318812D01*
X84379677Y-72324585D01*
X84361044Y-72336319D01*
X84349140Y-72342945D01*
X84319612Y-72357346D01*
X84257303Y-72401301D01*
X84255403Y-72402641D01*
X84249914Y-72406301D01*
X84203057Y-72435809D01*
X84183433Y-72448167D01*
X84179644Y-72451508D01*
X84179638Y-72451512D01*
X84158783Y-72469898D01*
X84148088Y-72478344D01*
X84121253Y-72497274D01*
X84118329Y-72499944D01*
X84100862Y-72515894D01*
X84099750Y-72516909D01*
X84060034Y-72556625D01*
X84054264Y-72562044D01*
X84005142Y-72605350D01*
X84005139Y-72605353D01*
X84001345Y-72608698D01*
X83998135Y-72612606D01*
X83998134Y-72612607D01*
X83974821Y-72640989D01*
X83966551Y-72650108D01*
X83109834Y-73506825D01*
X83107312Y-73509279D01*
X83048946Y-73564473D01*
X83034819Y-73577832D01*
X83004496Y-73617493D01*
X82987092Y-73640257D01*
X82982948Y-73645392D01*
X82948806Y-73685509D01*
X82932030Y-73705220D01*
X82929411Y-73709545D01*
X82929407Y-73709550D01*
X82915009Y-73733324D01*
X82907337Y-73744571D01*
X82887380Y-73770674D01*
X82868804Y-73805319D01*
X82850261Y-73839901D01*
X82846996Y-73845626D01*
X82806279Y-73912858D01*
X82804384Y-73917549D01*
X82793973Y-73943317D01*
X82788193Y-73955658D01*
X82772669Y-73984609D01*
X82771023Y-73989390D01*
X82771021Y-73989394D01*
X82747088Y-74058901D01*
X82744778Y-74065079D01*
X82715345Y-74137929D01*
X82714223Y-74142868D01*
X82708068Y-74169960D01*
X82704337Y-74183059D01*
X82693638Y-74214131D01*
X82680257Y-74291600D01*
X82678977Y-74298004D01*
X82661565Y-74374644D01*
X82659501Y-74407453D01*
X82657915Y-74420953D01*
X82652321Y-74453336D01*
X82651000Y-74482425D01*
X82651000Y-74538608D01*
X82650751Y-74546519D01*
X82646322Y-74616913D01*
X82646816Y-74621948D01*
X82650399Y-74658492D01*
X82651000Y-74670788D01*
X82651000Y-79532076D01*
X82630998Y-79600197D01*
X82614095Y-79621171D01*
X81945525Y-80289741D01*
X81883213Y-80323767D01*
X81812398Y-80318702D01*
X81755562Y-80276155D01*
X81731167Y-80214252D01*
X81726105Y-80167647D01*
X81722479Y-80152396D01*
X81677324Y-80031946D01*
X81668786Y-80016351D01*
X81592285Y-79914276D01*
X81579724Y-79901715D01*
X81477649Y-79825214D01*
X81462054Y-79816676D01*
X81341606Y-79771522D01*
X81326351Y-79767895D01*
X81275486Y-79762369D01*
X81268672Y-79762000D01*
X81143934Y-79762000D01*
X81109892Y-79754335D01*
X81105648Y-79754000D01*
X80771115Y-79754000D01*
X80755876Y-79758475D01*
X80754671Y-79759865D01*
X80753000Y-79767548D01*
X80753000Y-80435500D01*
X80732998Y-80503621D01*
X80679342Y-80550114D01*
X80627000Y-80561500D01*
X80267137Y-80561500D01*
X80199016Y-80541498D01*
X80152523Y-80487842D01*
X80142419Y-80417568D01*
X80171913Y-80352988D01*
X80231639Y-80314604D01*
X80242124Y-80311525D01*
X80243329Y-80310135D01*
X80245000Y-80302452D01*
X80245000Y-79772115D01*
X80240525Y-79756876D01*
X80239135Y-79755671D01*
X80231452Y-79754000D01*
X79856115Y-79754000D01*
X79840876Y-79758475D01*
X79839671Y-79759865D01*
X79838000Y-79767548D01*
X79838000Y-80225874D01*
X79817998Y-80293995D01*
X79764342Y-80340488D01*
X79694068Y-80350592D01*
X79633461Y-80321176D01*
X79632187Y-80322843D01*
X79493743Y-80216994D01*
X79493739Y-80216991D01*
X79488322Y-80212850D01*
X79482142Y-80209968D01*
X79482140Y-80209967D01*
X79402750Y-80172947D01*
X79349465Y-80126030D01*
X79330000Y-80058752D01*
X79330000Y-79772115D01*
X79325525Y-79756876D01*
X79324135Y-79755671D01*
X79316452Y-79754000D01*
X78076076Y-79754000D01*
X78062545Y-79757973D01*
X78061425Y-79765768D01*
X76675331Y-79765768D01*
X76675456Y-79757205D01*
X76668701Y-79754000D01*
X75676115Y-79754000D01*
X75660876Y-79758475D01*
X75659671Y-79759865D01*
X75658000Y-79767548D01*
X75658000Y-80489885D01*
X75150000Y-80489885D01*
X75150000Y-79772115D01*
X75145525Y-79756876D01*
X75144135Y-79755671D01*
X75136452Y-79754000D01*
X74146076Y-79754000D01*
X74132545Y-79757973D01*
X74131425Y-79765768D01*
X72898500Y-79765768D01*
X72898500Y-79242795D01*
X74132544Y-79242795D01*
X74139299Y-79246000D01*
X75131885Y-79246000D01*
X75147124Y-79241525D01*
X75148329Y-79240135D01*
X75150000Y-79232452D01*
X75150000Y-79227885D01*
X75658000Y-79227885D01*
X75662475Y-79243124D01*
X75663865Y-79244329D01*
X75671548Y-79246000D01*
X76661924Y-79246000D01*
X76672839Y-79242795D01*
X78062544Y-79242795D01*
X78069299Y-79246000D01*
X79311885Y-79246000D01*
X79327124Y-79241525D01*
X79328329Y-79240135D01*
X79330000Y-79232452D01*
X79330000Y-79227885D01*
X79838000Y-79227885D01*
X79842475Y-79243124D01*
X79843865Y-79244329D01*
X79851548Y-79246000D01*
X81091924Y-79246000D01*
X81105455Y-79242027D01*
X81106575Y-79234232D01*
X81074862Y-79126479D01*
X81070269Y-79115111D01*
X80984393Y-78950846D01*
X80977679Y-78940585D01*
X80861532Y-78796127D01*
X80852954Y-78787368D01*
X80710961Y-78668222D01*
X80700841Y-78661292D01*
X80538415Y-78571998D01*
X80527142Y-78567166D01*
X80350462Y-78511120D01*
X80338468Y-78508570D01*
X80194239Y-78492393D01*
X80187215Y-78492000D01*
X79856115Y-78492000D01*
X79840876Y-78496475D01*
X79839671Y-78497865D01*
X79838000Y-78505548D01*
X79838000Y-79227885D01*
X79330000Y-79227885D01*
X79330000Y-78510115D01*
X79325525Y-78494876D01*
X79324135Y-78493671D01*
X79316452Y-78492000D01*
X78987343Y-78492000D01*
X78981195Y-78492301D01*
X78843397Y-78505812D01*
X78831362Y-78508195D01*
X78653924Y-78561767D01*
X78642584Y-78566441D01*
X78478923Y-78653460D01*
X78468706Y-78660249D01*
X78325067Y-78777397D01*
X78316363Y-78786041D01*
X78198216Y-78928856D01*
X78191356Y-78939027D01*
X78103196Y-79102076D01*
X78098444Y-79113381D01*
X78062750Y-79228692D01*
X78062544Y-79242795D01*
X76672839Y-79242795D01*
X76675455Y-79242027D01*
X76676575Y-79234232D01*
X76644862Y-79126479D01*
X76640269Y-79115111D01*
X76554393Y-78950846D01*
X76547679Y-78940585D01*
X76431532Y-78796127D01*
X76422954Y-78787368D01*
X76280961Y-78668222D01*
X76270841Y-78661292D01*
X76108415Y-78571998D01*
X76097142Y-78567166D01*
X75920462Y-78511120D01*
X75908468Y-78508570D01*
X75764239Y-78492393D01*
X75757215Y-78492000D01*
X75676115Y-78492000D01*
X75660876Y-78496475D01*
X75659671Y-78497865D01*
X75658000Y-78505548D01*
X75658000Y-79227885D01*
X75150000Y-79227885D01*
X75150000Y-78510115D01*
X75145525Y-78494876D01*
X75144135Y-78493671D01*
X75136452Y-78492000D01*
X75057343Y-78492000D01*
X75051195Y-78492301D01*
X74913397Y-78505812D01*
X74901362Y-78508195D01*
X74723924Y-78561767D01*
X74712584Y-78566441D01*
X74548923Y-78653460D01*
X74538706Y-78660249D01*
X74395067Y-78777397D01*
X74386363Y-78786041D01*
X74268216Y-78928856D01*
X74261356Y-78939027D01*
X74173196Y-79102076D01*
X74168444Y-79113381D01*
X74132750Y-79228692D01*
X74132544Y-79242795D01*
X72898500Y-79242795D01*
X72898500Y-73660000D01*
X73316526Y-73660000D01*
X73336391Y-73912403D01*
X73337545Y-73917210D01*
X73337546Y-73917216D01*
X73371562Y-74058901D01*
X73395495Y-74158591D01*
X73397388Y-74163162D01*
X73397389Y-74163164D01*
X73476571Y-74354325D01*
X73492384Y-74392502D01*
X73624672Y-74608376D01*
X73789102Y-74800898D01*
X73981624Y-74965328D01*
X74197498Y-75097616D01*
X74202068Y-75099509D01*
X74202072Y-75099511D01*
X74321405Y-75148940D01*
X74431409Y-75194505D01*
X74516032Y-75214821D01*
X74672784Y-75252454D01*
X74672790Y-75252455D01*
X74677597Y-75253609D01*
X74777416Y-75261465D01*
X74864345Y-75268307D01*
X74864352Y-75268307D01*
X74866801Y-75268500D01*
X74993199Y-75268500D01*
X74995648Y-75268307D01*
X74995655Y-75268307D01*
X75082584Y-75261465D01*
X75182403Y-75253609D01*
X75187210Y-75252455D01*
X75187216Y-75252454D01*
X75343968Y-75214821D01*
X75428591Y-75194505D01*
X75538595Y-75148940D01*
X75657928Y-75099511D01*
X75657932Y-75099509D01*
X75662502Y-75097616D01*
X75878376Y-74965328D01*
X76070898Y-74800898D01*
X76235328Y-74608376D01*
X76367616Y-74392502D01*
X76383430Y-74354325D01*
X76462611Y-74163164D01*
X76462612Y-74163162D01*
X76464505Y-74158591D01*
X76488438Y-74058901D01*
X76522454Y-73917216D01*
X76522455Y-73917210D01*
X76523609Y-73912403D01*
X76543474Y-73660000D01*
X76523609Y-73407597D01*
X76511265Y-73356177D01*
X76465660Y-73166221D01*
X76464505Y-73161409D01*
X76367616Y-72927498D01*
X76235328Y-72711624D01*
X76070898Y-72519102D01*
X75878376Y-72354672D01*
X75674217Y-72229563D01*
X75666722Y-72224970D01*
X75662502Y-72222384D01*
X75657932Y-72220491D01*
X75657928Y-72220489D01*
X75433164Y-72127389D01*
X75433162Y-72127388D01*
X75428591Y-72125495D01*
X75340219Y-72104279D01*
X75187216Y-72067546D01*
X75187210Y-72067545D01*
X75182403Y-72066391D01*
X75082584Y-72058535D01*
X74995655Y-72051693D01*
X74995648Y-72051693D01*
X74993199Y-72051500D01*
X74866801Y-72051500D01*
X74864352Y-72051693D01*
X74864345Y-72051693D01*
X74777416Y-72058535D01*
X74677597Y-72066391D01*
X74672790Y-72067545D01*
X74672784Y-72067546D01*
X74519781Y-72104279D01*
X74431409Y-72125495D01*
X74426838Y-72127388D01*
X74426836Y-72127389D01*
X74202072Y-72220489D01*
X74202068Y-72220491D01*
X74197498Y-72222384D01*
X74193278Y-72224970D01*
X74185783Y-72229563D01*
X73981624Y-72354672D01*
X73789102Y-72519102D01*
X73624672Y-72711624D01*
X73492384Y-72927498D01*
X73395495Y-73161409D01*
X73394340Y-73166221D01*
X73348736Y-73356177D01*
X73336391Y-73407597D01*
X73316526Y-73660000D01*
X72898500Y-73660000D01*
X72898500Y-72407382D01*
X72900000Y-72387999D01*
X72900391Y-72385489D01*
X72903691Y-72364291D01*
X72902250Y-72353272D01*
X72901792Y-72324585D01*
X72911819Y-72222756D01*
X72911913Y-72221799D01*
X72916732Y-72197573D01*
X72918791Y-72190787D01*
X72952859Y-72078472D01*
X72962311Y-72055652D01*
X73020979Y-71945888D01*
X73034702Y-71925349D01*
X73113661Y-71829136D01*
X73131126Y-71811671D01*
X73227333Y-71732714D01*
X73247871Y-71718990D01*
X73357642Y-71660315D01*
X73380461Y-71650864D01*
X73437071Y-71633691D01*
X73499561Y-71614735D01*
X73523787Y-71609916D01*
X73619706Y-71600469D01*
X73635869Y-71600922D01*
X73635877Y-71600226D01*
X73644851Y-71600335D01*
X73653724Y-71601717D01*
X73685108Y-71597613D01*
X73701507Y-71596551D01*
X93388260Y-71608077D01*
G37*
G04 #@! TD.AperFunction*
G04 #@! TA.AperFunction,Conductor*
G36*
X92513351Y-87646502D02*
G01*
X92546056Y-87676935D01*
X92612765Y-87765944D01*
X92631739Y-87791261D01*
X92748295Y-87878615D01*
X92884684Y-87929745D01*
X92946866Y-87936500D01*
X93201737Y-87936500D01*
X93269858Y-87956502D01*
X93316351Y-88010158D01*
X93327047Y-88075670D01*
X93326236Y-88083386D01*
X93320496Y-88138000D01*
X93321186Y-88144565D01*
X93339417Y-88318019D01*
X93340458Y-88327928D01*
X93348463Y-88352565D01*
X93350491Y-88423530D01*
X93313829Y-88484329D01*
X93250117Y-88515654D01*
X93228630Y-88517500D01*
X89026000Y-88517500D01*
X88957879Y-88497498D01*
X88911386Y-88443842D01*
X88900000Y-88391500D01*
X88900000Y-88198000D01*
X88920002Y-88129879D01*
X88973658Y-88083386D01*
X89026000Y-88072000D01*
X90368884Y-88072000D01*
X90384123Y-88067525D01*
X90385328Y-88066135D01*
X90386999Y-88058452D01*
X90386999Y-88028905D01*
X90386662Y-88022386D01*
X90376743Y-87926794D01*
X90373851Y-87913400D01*
X90347046Y-87833055D01*
X90344462Y-87762106D01*
X90380646Y-87701022D01*
X90444110Y-87669197D01*
X90517818Y-87678072D01*
X90643677Y-87734108D01*
X90643685Y-87734111D01*
X90649712Y-87736794D01*
X90735886Y-87755111D01*
X90830056Y-87775128D01*
X90830061Y-87775128D01*
X90836513Y-87776500D01*
X91027487Y-87776500D01*
X91033939Y-87775128D01*
X91033944Y-87775128D01*
X91128114Y-87755111D01*
X91214288Y-87736794D01*
X91239152Y-87725724D01*
X91382722Y-87661803D01*
X91382724Y-87661802D01*
X91388752Y-87659118D01*
X91394091Y-87655239D01*
X91394098Y-87655235D01*
X91400528Y-87650563D01*
X91474587Y-87626500D01*
X92445230Y-87626500D01*
X92513351Y-87646502D01*
G37*
G04 #@! TD.AperFunction*
G04 #@! TA.AperFunction,Conductor*
G36*
X92560675Y-82625868D02*
G01*
X92613366Y-82666746D01*
X92631739Y-82691261D01*
X92748295Y-82778615D01*
X92884684Y-82829745D01*
X92946866Y-82836500D01*
X93053658Y-82836500D01*
X93121779Y-82856502D01*
X93168272Y-82910158D01*
X93178376Y-82980432D01*
X93171640Y-83006730D01*
X93151522Y-83060395D01*
X93147895Y-83075649D01*
X93142369Y-83126514D01*
X93142000Y-83133328D01*
X93142000Y-84055885D01*
X93146475Y-84071124D01*
X93147865Y-84072329D01*
X93155548Y-84074000D01*
X97339884Y-84074000D01*
X97355123Y-84069525D01*
X97356328Y-84068135D01*
X97357999Y-84060452D01*
X97357999Y-83133331D01*
X97357629Y-83126510D01*
X97352105Y-83075648D01*
X97348479Y-83060397D01*
X97328360Y-83006730D01*
X97323177Y-82935923D01*
X97357097Y-82873554D01*
X97419352Y-82839425D01*
X97446342Y-82836500D01*
X97553134Y-82836500D01*
X97615316Y-82829745D01*
X97751705Y-82778615D01*
X97836191Y-82715296D01*
X97902697Y-82690448D01*
X97972080Y-82705501D01*
X98020874Y-82753121D01*
X98066960Y-82832944D01*
X98071378Y-82837851D01*
X98071379Y-82837852D01*
X98169381Y-82946694D01*
X98194747Y-82974866D01*
X98266097Y-83026705D01*
X98334634Y-83076500D01*
X98349248Y-83087118D01*
X98355276Y-83089802D01*
X98355278Y-83089803D01*
X98426065Y-83121319D01*
X98523712Y-83164794D01*
X98580024Y-83176764D01*
X98580698Y-83176907D01*
X98643171Y-83210635D01*
X98677492Y-83272785D01*
X98680500Y-83300153D01*
X98680500Y-87434976D01*
X98660498Y-87503097D01*
X98648142Y-87519279D01*
X98574960Y-87600556D01*
X98530206Y-87678072D01*
X98497854Y-87734108D01*
X98479473Y-87765944D01*
X98420458Y-87947572D01*
X98419768Y-87954133D01*
X98419768Y-87954135D01*
X98404598Y-88098469D01*
X98400496Y-88137500D01*
X98401186Y-88144065D01*
X98404458Y-88175196D01*
X98391686Y-88245035D01*
X98343184Y-88296882D01*
X98314306Y-88309362D01*
X98306024Y-88311768D01*
X98306017Y-88311771D01*
X98298407Y-88313982D01*
X98291581Y-88318019D01*
X98280972Y-88324293D01*
X98263224Y-88332988D01*
X98244383Y-88340448D01*
X98237967Y-88345110D01*
X98237966Y-88345110D01*
X98208613Y-88366436D01*
X98198693Y-88372952D01*
X98167465Y-88391420D01*
X98167462Y-88391422D01*
X98160638Y-88395458D01*
X98146317Y-88409779D01*
X98131284Y-88422619D01*
X98114893Y-88434528D01*
X98109840Y-88440636D01*
X98106586Y-88444569D01*
X98047753Y-88484308D01*
X97976775Y-88485931D01*
X97916187Y-88448923D01*
X97885225Y-88385033D01*
X97883500Y-88364255D01*
X97883500Y-87812903D01*
X97903502Y-87744782D01*
X97908674Y-87737338D01*
X97917378Y-87725724D01*
X97955615Y-87674705D01*
X98006745Y-87538316D01*
X98013500Y-87476134D01*
X98013500Y-86279866D01*
X98006745Y-86217684D01*
X97955615Y-86081295D01*
X97868261Y-85964739D01*
X97751705Y-85877385D01*
X97615316Y-85826255D01*
X97553134Y-85819500D01*
X97446342Y-85819500D01*
X97378221Y-85799498D01*
X97331728Y-85745842D01*
X97321624Y-85675568D01*
X97328360Y-85649270D01*
X97348478Y-85595605D01*
X97352105Y-85580351D01*
X97357631Y-85529486D01*
X97358000Y-85522672D01*
X97358000Y-84600115D01*
X97353525Y-84584876D01*
X97352135Y-84583671D01*
X97344452Y-84582000D01*
X93160116Y-84582000D01*
X93144877Y-84586475D01*
X93143672Y-84587865D01*
X93142001Y-84595548D01*
X93142001Y-85522669D01*
X93142371Y-85529490D01*
X93147895Y-85580352D01*
X93151521Y-85595603D01*
X93171640Y-85649270D01*
X93176823Y-85720077D01*
X93142903Y-85782446D01*
X93080648Y-85816575D01*
X93053658Y-85819500D01*
X92946866Y-85819500D01*
X92884684Y-85826255D01*
X92748295Y-85877385D01*
X92631739Y-85964739D01*
X92626358Y-85971919D01*
X92626357Y-85971920D01*
X92561045Y-86059065D01*
X92504185Y-86101580D01*
X92460219Y-86109500D01*
X91816500Y-86109500D01*
X91748379Y-86089498D01*
X91701886Y-86035842D01*
X91690500Y-85983500D01*
X91690500Y-84275713D01*
X91710502Y-84207592D01*
X91764158Y-84161099D01*
X91803496Y-84150386D01*
X91809871Y-84149725D01*
X91839125Y-84146690D01*
X91839130Y-84146689D01*
X91845982Y-84145978D01*
X92006849Y-84092308D01*
X92151055Y-84003071D01*
X92270864Y-83883053D01*
X92359849Y-83738692D01*
X92362825Y-83729721D01*
X92411072Y-83584262D01*
X92411072Y-83584260D01*
X92413238Y-83577731D01*
X92423500Y-83477572D01*
X92423500Y-82943428D01*
X92412978Y-82842018D01*
X92393016Y-82782185D01*
X92390432Y-82711238D01*
X92426615Y-82650154D01*
X92490079Y-82618329D01*
X92560675Y-82625868D01*
G37*
G04 #@! TD.AperFunction*
M02*
