M48
; DRILL file {KiCad (6.0.10-0)} date 
; FORMAT={-:-/ absolute / metric / decimal}
; #@! TF.CreationDate,2023-02-24T11:04:05+09:00
; #@! TF.GenerationSoftware,Kicad,Pcbnew,(6.0.10-0)
; #@! TF.FileFunction,Plated,1,2,PTH
FMAT,2
METRIC
; #@! TA.AperFunction,Plated,PTH,ViaDrill
T1C0.400
; #@! TA.AperFunction,Plated,PTH,ComponentDrill
T2C0.600
; #@! TA.AperFunction,Plated,PTH,ComponentDrill
T3C0.800
; #@! TA.AperFunction,Plated,PTH,ComponentDrill
T4C1.000
; #@! TA.AperFunction,Plated,PTH,ComponentDrill
T5C1.520
%
G90
G05
T1
X77.47Y-91.44
X78.74Y-74.93
X80.01Y-91.44
X81.28Y-74.93
X82.296Y-79.756
X82.296Y-81.28
X82.296Y-86.36
X82.296Y-87.884
X83.566Y-81.804
X83.566Y-82.804
X83.566Y-84.294
X83.566Y-85.852
X85.053Y-84.365
X87.63Y-91.44
X90.932Y-86.868
X91.059Y-88.265
X91.44Y-90.325
X91.948Y-84.328
X94.234Y-88.138
X94.237Y-80.542
X95.25Y-88.138
X96.266Y-80.518
X96.266Y-88.138
X96.266Y-89.916
X96.52Y-91.852
X97.282Y-80.518
X98.552Y-84.328
X98.806Y-82.296
X99.06Y-91.852
X99.314Y-88.138
X99.314Y-90.17
X100.33Y-74.93
X102.87Y-74.93
X102.87Y-77.47
X102.87Y-83.82
X102.87Y-86.36
X103.124Y-88.9
X105.41Y-74.93
X105.41Y-77.47
X107.95Y-74.93
X107.95Y-77.47
X110.49Y-74.93
X110.49Y-77.47
X113.03Y-74.93
X113.03Y-77.47
X121.92Y-91.44
X121.92Y-93.98
T3
X106.68Y-88.9
X106.68Y-91.44
X106.68Y-93.98
X112.268Y-88.9
X112.268Y-91.44
X112.268Y-93.98
X117.856Y-88.9
X117.856Y-91.44
X117.856Y-93.98
T4
X81.28Y-93.98
X83.82Y-93.98
X86.36Y-93.98
X91.445Y-93.98
X93.985Y-93.98
X96.525Y-93.98
X99.065Y-93.98
X101.605Y-93.98
X121.158Y-73.655
X121.158Y-76.195
T5
X125.73Y-81.28
X125.73Y-86.36
T2
X75.704Y-79.5G85X75.104Y-79.5
G05
X75.704Y-88.14G85X75.104Y-88.14
G05
X80.134Y-79.5G85X79.034Y-79.5
G05
X80.134Y-88.14G85X79.034Y-88.14
G05
T0
M30
