G04 #@! TF.GenerationSoftware,KiCad,Pcbnew,(6.0.10-0)*
G04 #@! TF.CreationDate,2023-02-24T11:02:46+09:00*
G04 #@! TF.ProjectId,CH224K_PD_Decoy,43483232-344b-45f5-9044-5f4465636f79,0.5*
G04 #@! TF.SameCoordinates,Original*
G04 #@! TF.FileFunction,Legend,Bot*
G04 #@! TF.FilePolarity,Positive*
%FSLAX46Y46*%
G04 Gerber Fmt 4.6, Leading zero omitted, Abs format (unit mm)*
G04 Created by KiCad (PCBNEW (6.0.10-0)) date 2023-02-24 11:02:46*
%MOMM*%
%LPD*%
G01*
G04 APERTURE LIST*
%ADD10C,0.150000*%
%ADD11R,2.500000X1.500000*%
%ADD12O,2.500000X1.500000*%
%ADD13C,2.200000*%
%ADD14R,3.000000X3.000000*%
%ADD15C,3.000000*%
%ADD16R,1.700000X1.700000*%
%ADD17O,1.700000X1.700000*%
%ADD18C,0.650000*%
%ADD19O,1.600000X1.000000*%
%ADD20O,2.100000X1.000000*%
G04 APERTURE END LIST*
D10*
X87677047Y-72096380D02*
X87677047Y-72810666D01*
X87724666Y-72953523D01*
X87819904Y-73048761D01*
X87962761Y-73096380D01*
X88058000Y-73096380D01*
X86724666Y-73096380D02*
X87200857Y-73096380D01*
X87200857Y-72096380D01*
X85819904Y-73001142D02*
X85867523Y-73048761D01*
X86010380Y-73096380D01*
X86105619Y-73096380D01*
X86248476Y-73048761D01*
X86343714Y-72953523D01*
X86391333Y-72858285D01*
X86438952Y-72667809D01*
X86438952Y-72524952D01*
X86391333Y-72334476D01*
X86343714Y-72239238D01*
X86248476Y-72144000D01*
X86105619Y-72096380D01*
X86010380Y-72096380D01*
X85867523Y-72144000D01*
X85819904Y-72191619D01*
X85105619Y-72096380D02*
X85105619Y-72810666D01*
X85153238Y-72953523D01*
X85248476Y-73048761D01*
X85391333Y-73096380D01*
X85486571Y-73096380D01*
X84153238Y-73096380D02*
X84629428Y-73096380D01*
X84629428Y-72096380D01*
X83248476Y-73001142D02*
X83296095Y-73048761D01*
X83438952Y-73096380D01*
X83534190Y-73096380D01*
X83677047Y-73048761D01*
X83772285Y-72953523D01*
X83819904Y-72858285D01*
X83867523Y-72667809D01*
X83867523Y-72524952D01*
X83819904Y-72334476D01*
X83772285Y-72239238D01*
X83677047Y-72144000D01*
X83534190Y-72096380D01*
X83438952Y-72096380D01*
X83296095Y-72144000D01*
X83248476Y-72191619D01*
X82534190Y-72096380D02*
X82534190Y-72810666D01*
X82581809Y-72953523D01*
X82677047Y-73048761D01*
X82819904Y-73096380D01*
X82915142Y-73096380D01*
X81581809Y-73096380D02*
X82058000Y-73096380D01*
X82058000Y-72096380D01*
X80677047Y-73001142D02*
X80724666Y-73048761D01*
X80867523Y-73096380D01*
X80962761Y-73096380D01*
X81105619Y-73048761D01*
X81200857Y-72953523D01*
X81248476Y-72858285D01*
X81296095Y-72667809D01*
X81296095Y-72524952D01*
X81248476Y-72334476D01*
X81200857Y-72239238D01*
X81105619Y-72144000D01*
X80962761Y-72096380D01*
X80867523Y-72096380D01*
X80724666Y-72144000D01*
X80677047Y-72191619D01*
X79962761Y-72096380D02*
X79962761Y-72810666D01*
X80010380Y-72953523D01*
X80105619Y-73048761D01*
X80248476Y-73096380D01*
X80343714Y-73096380D01*
X79010380Y-73096380D02*
X79486571Y-73096380D01*
X79486571Y-72096380D01*
X78105619Y-73001142D02*
X78153238Y-73048761D01*
X78296095Y-73096380D01*
X78391333Y-73096380D01*
X78534190Y-73048761D01*
X78629428Y-72953523D01*
X78677047Y-72858285D01*
X78724666Y-72667809D01*
X78724666Y-72524952D01*
X78677047Y-72334476D01*
X78629428Y-72239238D01*
X78534190Y-72144000D01*
X78391333Y-72096380D01*
X78296095Y-72096380D01*
X78153238Y-72144000D01*
X78105619Y-72191619D01*
%LPC*%
D11*
X117856000Y-88900000D03*
D12*
X117856000Y-91440000D03*
X117856000Y-93980000D03*
D13*
X127000000Y-73660000D03*
D14*
X125730000Y-81280000D03*
D15*
X125730000Y-86360000D03*
D13*
X127000000Y-93980000D03*
D11*
X112268000Y-88900000D03*
D12*
X112268000Y-91440000D03*
X112268000Y-93980000D03*
D16*
X81280000Y-93980000D03*
D17*
X83820000Y-93980000D03*
X86360000Y-93980000D03*
D16*
X121158000Y-73655000D03*
D17*
X121158000Y-76195000D03*
D13*
X74930000Y-93980000D03*
D11*
X106680000Y-88900000D03*
D12*
X106680000Y-91440000D03*
X106680000Y-93980000D03*
D16*
X91445000Y-93980000D03*
D17*
X93985000Y-93980000D03*
X96525000Y-93980000D03*
X99065000Y-93980000D03*
X101605000Y-93980000D03*
D13*
X74930000Y-73660000D03*
D18*
X79054000Y-80930000D03*
X79054000Y-86710000D03*
D19*
X75404000Y-88140000D03*
D20*
X79584000Y-88140000D03*
X79584000Y-79500000D03*
D19*
X75404000Y-79500000D03*
M02*
